<mxfile host="65bd71144e" modified="2021-01-23T12:43:31.616Z" agent="5.0 (X11; Linux x86_64) AppleWebKit/537.36 (KHTML, like Gecko) Code/1.52.1 Chrome/83.0.4103.122 Electron/9.3.5 Safari/537.36" etag="-E_Ls4HgqGvz3Cl9dxhq" version="13.10.0" type="embed" pages="16">
    <diagram id="VKttsysx-R1jApWS6JT_" name="01 - module">
        <mxGraphModel dx="597" dy="469" grid="1" gridSize="10" guides="1" tooltips="1" connect="1" arrows="1" fold="1" page="1" pageScale="1" pageWidth="1920" pageHeight="1200" math="0" shadow="0">
            <root>
                <mxCell id="0"/>
                <mxCell id="1" parent="0"/>
                <mxCell id="TDUVbUfego_RBetQVLJ8-1" value="Javascript Modules" style="rounded=0;whiteSpace=wrap;html=1;fillColor=#dae8fc;strokeColor=#6c8ebf;fontStyle=1;fontSize=19;" parent="1" vertex="1">
                    <mxGeometry x="560" y="260" width="390" height="40" as="geometry"/>
                </mxCell>
                <mxCell id="TDUVbUfego_RBetQVLJ8-2" value="Javascript file that makes some values available to other files and/or consumes values from other files" style="rounded=0;whiteSpace=wrap;html=1;fontSize=16;" parent="1" vertex="1">
                    <mxGeometry x="560" y="310" width="390" height="70" as="geometry"/>
                </mxCell>
                <mxCell id="TDUVbUfego_RBetQVLJ8-3" value="" style="shape=image;verticalLabelPosition=bottom;labelBackgroundColor=#ffffff;verticalAlign=top;aspect=fixed;imageAspect=0;image=data:image/png,iVBORw0KGgoAAAANSUhEUgAAAkwAAACKCAYAAABYShVDAAAgAElEQVR4Xu2dB3hURReGTxISSiChhBo6gdC7dBCp0qUqVXoRpFepAgoihiJSRIrSUaSjICJFQIpIL4ZeJdRAQkkI+Z9v8t9lk2zLFkJ2v/M//6Nm5869551J7rdnzpxxExoJkAAJkAAJkAAJkIBJAm71p1+NNtSiVmFvKZcnpRTI7CUZvD3E3Z0kSYAESIAESIAESMC5CES9FLkXHiXBtyPk4KWnsv10uEEH4wkmCKV2FXwlYxoP5yJCb0iABEiABEiABEjADIGQx1GydH+o/H4mtnCKJZh6Vk8njUqkJkwSIAESIAESIAEScGkCG46GybxdD3QMdIKJYsml5wWdJwESIAESIAESiENAXzQpwYRluAG108cDteCHZbLlt+1yLviCREZGEiQJkAAJkAAJkAAJOBUBT09PCcwfIPXr1JQu7dvG8y1o2321PKcE06LO2SSTXs7Stes3pP+IUXLy9FmngkJnSIAESIAESIAESMAYgWKFC8m0yRMlh382XZOQRy+k06Jb4ha07V503OhS83ad5OQZiiVOKRIgARIgARIgAdciANH005KFsZxGlMntz+An0ZUDUuo+wDLclBmzXIsOvSUBEiABEiABEiCB/xMY2v9j6dK+jY7H3vNPxC3k0Yto/RICjC5xvpAACZAACZAACbgygbhRJizLuUVFRUfrF6UsWqEaE7xdeZbQdxIgARIgARJwcQJeXp5yYv9uHYWol9HiFh0dHavSd2CZii6Oie6TAAmQAAmQAAm4MgE3Nzc5e3ifDgGEEgWTK88I+k4CJEACJEACJBCPAAUTJwUJkAAJkAAJkAAJmCFAwcQpQgIkQAIkQAIkQAIUTJwDJEACJEACJEACJGAbAUaYbOPHq0mABEiABEiABFyAAAWTCwwyXSQBEiABEiABErCNAAWTbfx4NQmQAAmQAAmQgAsQoGBygUGmiyRAAiRAAiRAArYRoGCyjR+vJgESIAESIAEScAECFEwuMMh0kQRIgARIgARIwDYCFEy28ePVJEACJEACJEACLkCAgskFBpkukgAJkAAJkAAJ2EaAgsk2fryaBEiABEiABEjABQhQMLnAINNFEiABEiABEiAB2whQMNnGj1eTAAmQAAmQAAm4AAEKJhcYZLpIAiRAAiRAAiRgGwEKJtv48WoSIAESIAESIAEXIEDB5AKDTBdJgARIgARIgARsI0DBZBs/Xk0CJEACJEACJOACBCiYXGCQ6SIJkAAJkAAJkIBtBCiYbOPHq0mABEiABEiABFyAAAWTCwwyXSQBEiABEiABErCNAAWTbfx4NQmQAAmQAAmQgAsQoGBygUGmiyRAAiRAAiRAArYRoGCyjR+vJgESIAESIAEScAECFEwuMMh0kQRIgARIgARIwDYCFEy28ePVJEACJEACJEACLkCAgskFBpkukgAJkAAJkAAJ2EaAgsk2fryaBEiABEiABEjABQhQMLnAINNFEiABEiABEiAB2whQMNnGj1eTAAmQAAmQAAm4AAEKJhcYZLpIAiRAAiRAAiRgGwEKJtv48WoSIAESIAESIAEXIEDB5AKDTBdJgARIgARIgARsI0DBZBs/Xk0CJEACJEACJOACBCiYXGCQ6SIJkAAJkAAJkIBtBCiYbOPHq0mABEiABEiABFyAAAWTCwwyXSQBEiABEiABErCNAAWTbfx4NQmQAAmQAAmQgAsQoGBygUGmiyRAAiRAAiRAArYRoGCyjR+vJgESIAESIAEScAECFEwuMMh0kQRIgARIgARIwDYCFEy28ePVJEACJEACJEACLkCAgskFBpkukgAJkAAJkAAJ2EaAgsk2fryaBEiABEiABEjABQhQMLnAINNFEiABEiABEiAB2whQMNnGj1e/JgJjG06VZO7J5JdT62TfhZ2v6a4iefzyy7tFmkj2tLkkg7efhEeEy/3wu3L61jH58/wOuRN2+7U9iyU3ale+m/ilzmyw6dzdU+VZ5DNLunkj2+QNTC8N3i+knu3UP7dlx8bzb+Rz6j9U8pTJpPuQ8gaf8+7tcFkx76hZH/IWzCANWhU02O7YgZuye+sls304W4OPRlaSzNlSy69rzsn+HVeczb1E96d1j5Lil9lbPcei6Ycl7NHzRH+mN+EBKJjehFHgM5glMKXZXMnsk03WHV0ha4+uMNveHg1alu4gDYu30HUVLdHiJm66/x6/ebBcuPOvPW5ltz4mNpkpOdLlNtjfR8vbSHhEmN3u9bo7KlQikwye9La67W/rgmXlt6bFRoqUyaRA0Yyq/cVz9yTsUYTBR86YxVuy5vCR6OhoOXH4P7u6lSq1l3y9uonBPq9fCpWxvbeZvV/pSv7Se1Qlg+22rw+2SHSZvUkSazB7TVOBGP3h679l1y8Xk9jTO/ZxM2VNLVmyp1E3OXfijjx/9iLBNxw25R0pUNRPXden5Tp5Gh6Z4D6c8QIKJmccVSt8SpPCVzKnySpubiLBIWet6MGxl7xuwVQ2V0X5+J0Ryqnfz26Rg5f/lPN3zkn6VBkkV4Z84uedUUW73jTL4uMvXsm8dI+VP1Mh6VChp/pvawSTu5u7ZPH1lwzeGeXi3WAJf/440VzOFZBOxsyspe6/ftkp2bDstMlnyZ7bVz6dXUe1mTpil5w5FmKw/bvNA6Vll+Ly4sVL6dF4jV39c3d3E//cvrH6rNUkv1SpnVssFUwpvT113/a1jroOLifwL6kLJkQx8P+H95/Kf9ctn1sUTManad3mgdKqS3HVYETXXyTkZsK/JPUdV0VKlMuqvkR0a/iTREfb9dciyXZGwZRkh86+D96r2mCpkLeaHL12SKb9PsG+nduht9ctmHq9PVgq5Kkmd8NCZMia7vIy+qUdvHj9XRTzLy2Da4+zWjBBgH3RbI66fuzGgXL5XuItg+Gb86QF9dSzILqEKJMpexMEk6Hna9GpmNRrWdBiwWSoj5HTagqWKJO6YApa2kh806eQ1d8dk60/Wx6tpWAyPvNrNc4vrXuWVA2Gdtws90KeJPgPDwR5xRq5VGQJESZaDAEKJs4ERYCCKfZEmNx0jmT19ZdfTq6VlYcXJdlZ4kyCKbWPl8xYGbO8tTDokOzdfpmCKYkvyVEw2f9PyzsN8km73qVVx4Pab5KH954m+CZtepWSmo0ClNiC6KI5kWDycPeQqJdRiT6mWL5ACBP/s8Yc4QcSpV+8NL+G/aYJprgsrIkw2cJzaov5kjF1ZtlwbJWs+WeZNcOprvHy8JKIKMO5M1Z3moALnUkwuXu4yfyNMTllsybsk3/230hUwYTneRmV8N/1Ny3CZK0fCZiGRps6QjDZ4o9HMneJemHfaHIyT3d5EZmwPm3xoWrdPNKxX1nFvH/rDfI4NOEJ203bF5WGrQvJtYsPZVyf3+wx1E7RR5KNMJXIXlYq53tH8mUMVPkVtx5dl0t3z8v6Y6vk9qObRgfnwwq9xD9dTnkW+VS+2TlFnr+Iv2uoQbHmgv4joyIFO4seP3sUq7+WZToIckPWH1spp24ek2r5awtyXgIzF5Goly9UIvBfl3bL3gt/mJ0kudLnlVqFGkpev/ySLW0OefQsVC7fPS9Hrx+SP879avT65MlSyKDaY2N9Pm37BHka+USQj9SoeEv1TOm9/eR55HM5ceNvmbXzC137ZB6eMrTOeN1/Z/PNrq5Djsr1h1dj9Xvt/mVZcmCeWV9sbVA4a3F5J/BdKZC5iKROnkauP7gsR68fVqJl0nvfWJT0ndIrlTQq1lKNT26/AHkRFSmX712QI1cPyPYzmywWs9YIJoijkjnKCURKgcyFJF2qDIJxwpjcfnRL5UFtO71RIk0IKG1unb55TNYdW2kQaY9qA9Wc3xO8Xfac/90kdmsEU43Aemp5VhN82CkIu3L/ovq90bflB79TfF+Xzf65qSRPkUymDN8p547fea2CCX8s8a27aNkskqdAekFSOV4owafvyvqlp+TZU/NfTPDAiS2Y8DKu814BKVQyk+TOn15SpEomNy6HyuXgB7Llx7Ny979whw0nlhGRL6YZdgAmS+Yud/4Llwd3Yy8d7fv9iuwxsgMw7pIclo/KVPaXgMJ+gkT7O7fC5I/NF+T3DefVl1hTli2nj9R+L7/kDcwg2XL5SOj9Z3L5/APZufmCnPzb+CaA/EX8pNmHRXVdwwdEPmFYDm7ctogEFvOT1D7J1S6zLavPGl12tNfcwr0r1cwlXQaVU8/xcct18sSKhG0tDwpJ41OGWbcr2dPTU/LmziXnghNvGd/eEznJCSY8cPNS7dTuJexYQjQn7NljSZPCR7HBH/T5f86Qw1f2GWSVO0M+GdPgS/HAFnUDyy050+eRcQ2DBNGJVYcXy5aTP8frZ0DN0VIyx1uy/NACyZQmi9Qq2EC9mMMiwiRtynS69j8dWSIbj/9odMwg+DpW6q2iEDCIlVReqdU6KezQ5b3y3d4ZBreCQxjMbRP7hTp6Q38Je/5IRtabLH6pM8W677nbp+TzX2KSmGG45/z2P1k0n3YHb5cFe2da1NbaRlXz15JOFXsr7rDHz0IllZe3GqfgkDOKs2/KdCZ3yfmnzSn9anyihBUMQgURNs//8z12/bDM2x1kcKdYQMaCUi1/TEIxrHyeqpLCM6VcvX9RCXF9O3h5r5y8+U88VyGOvv7gByWSYJgTEOTeyWN2rMAg5sduGihPIwznFWhz66+Lu2XO7qkGcSYk2maNYGpVtqM0KNrMoqEc8GNnVWbhdRnERopUnurlc/+O6dwMe+YwpfL2lG5Dy0vxt7LGjO2LlxL5PEqQkK3G9cZj+WbifrlxJdQsisQUTGl8k0vPERWkYPGYvw+IpkTo+REeFiHzpxyw+25BDUqxslmk//iqZhmhwXdTDxotGaAJpuVz/5HsedJKtbp5lB/hjyMknV9KXf8blp9WYtaYlamcXboMfEvtuINB2Hin8VJ/g6Gztqw+I2t/OGkw6blUhWzSZ0xlXddavk/hUpml37gqgsiSvhl7FnvOLdyv3Ns5pMewCurWHzVfK88tFPL6zwoxWL56TjWf/9iU8C9EJYsXk4ljPhFfXx+5dv2GfNR/iDwMNf+7YdHESMRGSU4wvVeytTQt2VotM63++3vZ9e9WJSh8U6aVVmU6SpWAGuqzYT/3VAm7hqxJifelWam2ahlv7MYBcu1BTC4EYIyuP0VFrSAwJv36icFvJ9pL7WlEuHglS66E085zW9V9IVQ+fme45M4QoPqcsHmonL8Tf9dZ0WylZEidT1WbA5f2qDwZvHjwkq6Ut7q0K99diYe9F3bIt3umx3MDYhGiCdavxkgpmKWofP3HZGlUvIW6N/qE0Mntl0+wPR4Rlhk7PovVD5hp9mHFXlImZ0U5efOofLsnKFY7vPQdWb+nQObCSuTBwH3+numqvlEKzxRSzL+MdK7UR4knmLGyAt5eqeXLFt8K/nnhzjlZuG+W3HhwVdzd3aVI1pLSrWp/8UnhKzv/3SqL9n0Tj2flfDWke9X+Fv0qztn1pfx1aY/BtojOPI18Kmf+Oy4Pn9xXbSCgquavKW3e6qrG1JQAfRMEE7hrog9CdVT9KcqPL7eNlWsPYtf8CX360CJmidHInoJp6OTqElg8o4o+LJ55WE4dua3EBiISXQaWk9z508mta49lTK+t8vKl6YhGYgqmT76qIfkKZVBRhwVfHVR+vIiMUtvQOw94SxDxwfOP7P6rVburzI0zokmIAGn26eza4pM2hdrxiIiQvj0Ji1DC1JBpggliAM8L4fTXH1fVvyNihByewGIZlYjq98F69c+4hvHEuML2/nZZ1iw+IaEPninxBAHWsksJ8fBwk2+nHJADO2NH3XENlu+SJ4/5gjdjVRPBjsjRvbbKqKCaSiz98tM5OXHolrzbIlBKVfQ3ulHBnnMLzwIR+NHIiuq5ejRZk+DlQHNjaMnnk8aPkSoVX9Ufm/PdIlm+yrIv6Jb0n1htkpRgwpLR1ObfKlHx/V9zZMfZX+Jxw44gfKtGUcH5f8YXGmqiu3vIqPpfSF6/AurlOmHLUCWMEClqX6GHikyMWt/XqODSXmrYOYVlvbjRLDzn9JYLBcteu/7dpl7ecQ1RLgiz07eOy5Sto+MtFdUu1FCJJtxj+NpeaknHmA2rO0EKZy2hlkywxAcBt/XUetW8eoG60qlSb7V0892fM4z2kZg5TANrjVFLoCGP/5NP1vWJt2SVM31eJajwIjcmmFqV+VCwlAqRPHztR/H6QARpdIMpSiSPWNc73rItIoNYqtWsR9WBKqK17+JO+TPOstfluxesqmf0QdlOUq9oUwl7/lh6r2hrcCzeBMGk/2Bv0i65hP6R1BdMiFZcOHvPYBfV3s0r9VoEGi0rULRMFhkwoap6GY/r/Vu8KBJesFMWNRAkpVuSjJ5YgknzAxCwzILlFn3zSu4hn8+vpyI0SKjXlpcSyj0h7W3NYUJU56tRu+XSuZgvJ5rpR1nG9NpmMPI3MqiGEoiH9lyTuZP+ivfY9VsVlOYdi0nIrTAlIE3lq83f1EIJpqsXHirB9sWwnXLx//Ot+9DyKlqzIOiQ7IuzUcHecwtOlCifTfqOjYl8dW2AkgAJz7NLyBgaajtmxBCpXSNGjMKCvp4tazck/eTxJCWYWpRur3JzEH0YuqaHwa3ehbIUk+HvfqY+67a0pVoWMWTYATW+8Qy1NAXxhQjM5KazJaVnKhXRQWTHmGkvNSyZ6ecF6bdH1Kd0zvJKfPVc9kGsrpDr9Em9SepnM3Z8Lkeuxv9lhSic0ep7JRJ+O7NRlh6Yb/R5NMGEBv9cOyjTf5+oa6sJpl9PrZMVhxYa7SOxBFNmn6zyRbO5anl15aGFRmsbmVqGQqRtZqvvVbQPS4eI4BgyMAf7DcdXy5ojS03+TbAmh8ncH5lSOcpJ/5qjVLO+qzqIoegMBZM5ipZ/ri+YLLnKWB2mEV/VkIBCGdTyEISXIWvSrog0blNYzp++K5MGm85dTCzBhKKfKP5pKpG3Sdsi0rhtYSUOB7bdaFXCsCWsdS9SG8sKrJh7VLZviF9eAlGracsbqdt8NXK3nP4ndkV+LJsN+iwmT2945y0qhyquQQhPX95YICQN9aHfXhNM+Nmq+cdk29pXJRI0wTTz072Cyuz6Zu+5hb41EQahBMGUGBaYP0DGjRwm2f2zybETp2TY6E8lPNxxuXGvy8ckJZiwhIWlLHzrRy6KIdPP7RmxtrfcDL1mlKUWxcHS2oW7wVI0W0mVN2RMBGkdWfJSq1+0mbxftqO6pNfy1vIk4tVkqVWogbQv30N91n1pK4OJ5/hsWN2JgkRoHMPxxdbRRv3QF0xjNvRXkSbN0qZKL1l9/FXkxdQxHoklmPQLRCK6dCNOwrnmhynBpEWP0Hbozz2MRuPalOsqdQs3VsnXiAyaMkcIJiybjnj3c3XbwWu6y53H8RNKLZlbjs5h0ufiLBEm5DsZWpaBr8hZQW6PIcGEP5Bz1jYVTy8P+X7GYaPHkGj5LI8ePpcBbTaYnFuJJZhQkgFRsK1rzsnqBccNPiOqO6PKM2zykD8k+JRj89NsjTAZq/SNMZ25KqYExbTRe+Ilb2vRowf3nsrg9puMjtfYWbUlZ960svSbI/GWDPUv0gQTdqShP/2lREScIOCuXnwoWGbUzBFzC31rFfGxMw9Lcoll8C9TRj+5HWJ6c0ZiPZ81901SgumrFt+pHCG88P6+st+ov12r9FOJvijAiEKMxgxRjaF1x6vlLBhyTj5Z/7HZasaWvNSQxNy1cl/VL5bUboW+2gLd5q0uUrdIE5UX1GNZK6PP17PaIKmY9231YsUL1phpgglFBVFc0BpLLMFUr8h78sFbndUjm6pEbUokIG+tW5X+Kqo4D/lXRkLQJbK/JZXyVVfFF81xskUwZU+XSy2FIgkdO+XSpkonHm4egrITWKaFUTBZM0sTdo09cpgyZEolUxY3UDdGdXFj1ahRrRrLN2oem0m0TQzBlDKVp8z66T31fKaKROJ8ts+/iykOairpOmEjYbx1Ygkm5GtVrp1bLdVtWnnG6AOiCjwqzKOoJrgZM00wmWunf70j5hb610Qv8rswF2n2I5BkBBMedFGHdbodZJYgQM6OuW3XjYu3kual26nusCNq3KZBZms6WSKYSuesoHZswSZuGaZ2emnWp/oweSt3ZRXxGfxTN6Ou4CDV2oUaqWXFLkuaG22nCSZbdrMllmBqW66r1CncWJVj6PyD8Z1ZpgSTthHAkjmBNoi2Dfqpq8nm1ggm5MZ99PYQKZsr5twvlKMIeXxLHj59oOaUTwofKZgl5qVKwWTpaFnfzh6CCYnDQ794lYthydMM67RFcLCuMUsMwYTk9Alz6qpHQrI3tuwbMv2z75AEjd2IjrTEEkxaorWlvpnL6dIEU0JEpiPmFvxB6QZUgseOx76tYnJZafYhkGQEE9yd9cESVSsI28ORLG3Ojl0/FCuyE7c9IgGfNgwSNzd3lSSMvCHUcfrZTKFCSwSTFvXAPeNGmDpW/EjVGzKV/IvrECmrGlBT7Z7D9m1jlpQFE3Y8QvAof5e0MFqjyJRgqlmwvjovDRGm1YcXmy0bigNoUcPIlFkjmLpW6StVA2qp3ZIL986Svy7tiiW+uSRn7jfWvp/bQzBhOWXC3BihgZo+poSQ9vQ4DNbUgaeJIZh806WQoGUxOT3L5vwjOzYaro2jH/VYPOOw0TpI9hqpxBJMvUZUlLJVs6tyEDu3mD+89/rl0Hh5UPoMrBFMjphbeCa/LN6CwpNPn0SqpUSa/QgkKcGEnW0oSGhLJEVDh/o84xoFqZPdN59Yo6I9EDJ46aIUwMW7xs81skQw6ecwxc1T0j5DDakuPzQzGtEaVHucFPcvrbba69dQijv8SVkwVS9QRzpV6qNcGvhjF7kXbni925RgQu7ZkP8X4bRXXaCECiYk589ps1Itu639Z7nBopMUTPb7w2VJT/YQTNgePnddMxXZTkj0wNTzJYZgwvPMWdtMJTBvWnFG1i45afARtegEPvxy+C45e9xwaRZL+FvSJrEEEwpONni/kEr2RtK3rWaNYHLE3LLVD15vmkCSEkzaN/jrD67IyPUf2zS2SMiGcMF2/VHrP1ZVvUfU+1ztokK+0ZgN/YweaWGJYMLSDIofogBjn5XtYz0rlmxQqwmGJcBLd+Pv8sCLd1rLhYKkbWOlCbRO7SmYEL0L2v6qArhNkC24WL+wIupEYbeiITMlmFD1OqjlAnXZ139MksMm8tsseCTVJKGCSV8MIUEfifpxLSGCyVRiemIlfY/bNDBeEU9LeSZGO3sIJjz3Fwvrq2/tiDCh3o+tlliCafycOuKfy1eOH7olM8b+adAN/XPIBnfYJA/uJvwcsoTw0QmmBcdVMrqlZu7wXXNJ31o1bKQ79m+9XsIe2XZ8kTWCyRFzy1J+jm7n7uYm5cqWkVIlislvO3bK+Yux67c5+v6O6j9JCSYUZBzX6Cu1BX32ri9VcUZrDC+u4XU/U98aJ/86Us78d0J1gx1BE5vMUAnj289sNnociCaYkJeE4pZxz7FDZeeZrRarBN+tpzcIjo/QN5QywAsZdX6MFVLU34Ju7kVlD8GkVXeGwOu3uqPZPC5ruBu6RiXnt1yoKrX/fXW/zNwRU25B35CUj2NgEBU0VocJ2/XBDGJ6zMb+Nj9/QgUTakVNaBxT98tYeYQaBesJjuaBDVnTXdWdimvaMqyxPKvi/mWkX82RJlno94mILCKzMNSnuhV6PUFDhwKW89quUr8rKG2BEhdJxewlmOo0LSDvdyshERFRMrrnVpuPDmn4QSFp2qGoOhR1cIfNVtXJwZZ4bI0/uPuazJscvyyJoTHS/EDJAORZGaqUPmZmLZXkfPzgLZkxzrCosuf4j5pWU/IEppcj+27INxMNn85g6H62CiYcrzNpQT3BUuXOLRdkySzblq6sFUz2nltghd/VIqUzy6MHz9TOvMSw5k0aSf8+PXW37tSjj1OIpiQlmEBfi9zgGJHF+2cLjqnQDFGZinmryzuBdVVV67hnwKEdyg5MbDxT7bbbFfybLNz7daz5hDpPqPeE5bIvt41RZ8XFNU0w4eeoe/Ttnmm6sgGo4zSg1mgVqUIdDGxzN/RixPZ2bHPHEuD3+2fLzn+36W6D41kG1RqrokvY5YfdfqbMHoJJf3s/juTA0RyawScIGkN+2OOXEZXIcdQNmC/eBxZbdd2CIwpbIr8MZkwwYUfaxCYz1ZIYIkyYGxB/muEgXeRK4czBTcfN1yZJqGCCOJ7depmqkI2IIRL99Q89xq5JVCzH88EQxUM0L641LNZCcJ4cbPzmIaqwqmaIWHavOkCJJVMs9PvE2M1pu0J9yUChV9Qc0wzV0/XLXRgby8+afC3I90O5CvgV8eLVYZ4Qitgs8SaavQQTlk5Q0BH5PchlWTD1YKwXEXag1W6aX50fNufz/cY2aeoQ6RcWhNiB6NGNibenRWd/QcDhZYvt6yO6/KITP/iDjjPukL8S17y8PGTyovpKJODcuBlj9wjKIMBwXeueJdVZebAJ/barNo62Nj1LSc3GAaoaNYpD6ueIgTfO58NxJ3HNVsGE/qrXzyft+5RWf6dxbMnmVWdjHbyL3WbvtSsq65aekn9Pmt4ab61gsvfcgl+d+peVKnXyKGT2WkZO6DyYM2OqFC1cSHfZqp/Wyqx5sQMHCe3zTWif5AQTojK9qw9VggSG3KObD6+pw1pxeC1eELAfj/xg8MWIFw7OcAt9+kB94477wsBOp08bTVO5TUi2xtJf3DaaYMILOXVyH/Wiv3Lvgjx/8Vzy+AWolyZ+tvLQIkHBSEOGyAqepVzumIqsECM4dgLLS7g3zlC7ev+SKkJpKK8HOTPakRUZU2dRBS6RzKyd64WyC2uPrrB4jsWUWEDF8JiDMfHSv//knvimSCsQcHfCQmT0hr42R24MPRDGDjW2tONk8ALGyxl+ISVrnrYAAAp7SURBVBr499W/1Bl9qIxuTDChXxyCjErtiODhpY4jb5BYn9U3u0AwYbLjcGOIWGNnuWnPl1DBhOv062uhtteRawdU6Ygi2Uqo6CVqfPmkTKvmLs6Uw1EjcWtj4fiWKc3nqXmMORR8+4yqJYZaUxAtONAZx7/gLENTLPQ5I6qF6BYMxTJRVgHPk8kni3yqloRNH46JnX3D352oRBfm/CUcthsdLVl8/dUZf3EFtsWTzsEN7SWY8JjI7en1SUVJnzGVKup48+ojFWnCUl0W/zTqKIyoqGiZOmKn/HvSdO0iHA8yanpNyZE35mgilCqAUMiZL614eLirgpHGjgTRkGXKmlrGzaqtjvHAfa8E35fIyJcqOvTviTtGo0OISvUcXkHVnkJi+pXzD5W4wtEuEFLw7ccFx2MVXnTkMKH+1fg5dcUnbXKJjIiSi2fvy5MnkUqc5sjjK7t/vSSotRTX7CGYcAhxmx6l5J2G+VT3OEcOlbrd3N1UtW7wgOH4mKBRr75Aas+C8/ha9yip/jN7Hl/1T0TtnoTFiNWfvz8hxw4aP6FB68eecwt9asuc+Hcc6YKjXV63jR4+WOrUjKnnBVuyYrV8u/D71/0Ydr9fkhNMIIBv6Y1LvK8OS4XA0AxLY0jWXnt0ucHIEMRJ7+rDVHOcu2bsgF6czo6jS3CffRd2xtT20TP9HCZEQ7CMon/YLV6Ca44sk/0XzZ/yjHpMiDbp+4GXPJ5t2cHvYn2b138GQ4fv6n9uKHpmbvagz+al2kqNwPq6Q3BxDQ40xlEz2D0IUeYIg+DrXOljJQS0c8xwX/iBJS7kr+G8N3MiAaICO+YwhtqhxnheRBt3B/+mEvwt8cEawQRBgd2PLcq0V6JGM5QVwEHPEM+YJyheiehh35UdDD4LRGKXyn2VGNEMghrH3Ww/u1m0UgzmWGjXgkOrsh/GG1fMM0TiIOTMGRLrcVQPxKe+4fdtw7HVKtL6ppk9BRN8g8ho26uUqqSMf9cMwgN5QWt/OKV2XVliqNuE885wGK2+3b4RpsSOJf3gLLT2vUtL1hwxB4/DkJNz7kSITB2x2+hSH+79Yd8yElDETxB1gikReOWRrJx/VM4cdWyid1w+mf3TSJueJRVXfbt354ns2HBefjWQ22QPwaTdC2evvde+iDpPD8eb6H7nboape+/ZdsngsShxD9+N61dCojv2nFtaQjtEN5Y5sbz6us0vQ3pZu3KJ7ra9+g2Sk6cdW6LidfiYJAWTPhhEJ7Knyy1hzx/Jf6E3Yi2DOAqgoaRvraL2zdDrKnqVUMOSl3/aXHLPTEXuhPZrTXtEv7L4ZBOflL5yL+yu3A27/Vq44lkhUjGeSBpEhA1LltYY+sHLHWUoboVeM3gMiTX9WnINopQQOyhaiegnBJO+QVghGmqsqrnGIWOazEpIo509DrmFIM7mm12SJ0spD57cVVHNuPl35vzT5nlE1HMJeXw71rKnuWud6XNEQDJlS612Wd27HW52Gc6Y777pU6gXNc4pQ3TiXsiTBGHCH/CMWbxVpAvnqiFShWrTlhgiLNly+EiKVJ5y9cIDo5XQLenLHm1SeXtKlhw+4unprrgi4fx1noOGHYTZ86RVqhMRRCwHJobZY25hTmEp09K5YG8/CxcMlHlfxwQagi9clM49bdukZe/ns7a/JC+YrHXcluss2SVnS/+8lgRIgARIgASSKoHWrZrLR91iagd+/mWQ/LLt96TqSuwvu25ucvbwq80JONbYLTqOrA8sU9EpnLWXExRM9iLJfkiABEiABJyNwBcTxkqlCuXk/v0H0qJtR4l8kTjROntzZYTJCqIUTFZA4yUkQAIkQAJOTwDpFJt/XiWpU3vLgu+XyuKllm8+etPhUDBZMUIUTFZA4yUkQAIkQAJOTyAgbx5ZNG+WRERESPM2HeVh6KvyLkndeQomK0awW5X+6iT6A5f3qN1PNBIgARIgARIgARF3d3fx8vSUl9HRSjQ5k1EwOdNo0hcSIAESIAESIAGHEKBgcghWdkoCJEACJEACJOBMBCiYnGk06QsJkAAJkAAJkIBDCFAwOQQrOyUBEiABEiABEnAmAhRMzjSa9IUESIAESIAESMAhBCiYHIKVnZIACZAACZAACTgTAQomZxpN+kICJEACJEACJOAQAhRMDsHKTkmABEiABEiABJyJAAWTM40mfSEBEiABEiABEnAIAQomh2BlpyRAAiRAAiRAAs5EgILJmUaTvpAACZAACZAACTiEAAWTQ7CyUxIgARIgARIgAWciQMHkTKNJX0iABEiABEiABBxCgILJIVjZKQmQAAmQAAmQgDMRoGByptGkLyRAAiRAAiRAAg4hQMHkEKzslARIgARIgARIwJkIUDA502jSFxIgARIgARIgAYcQoGByCFZ2SgIkQAIkQAIk4EwEKJicaTTpCwmQAAmQAAmQgEMIUDA5BCs7JQESIAESIAEScCYCFEzONJr0hQRIgARIgARIwCEEKJgcgpWdkgAJkAAJkAAJOBMBCiZnGk36QgIkQAIkQAIk4BACFEwOwcpOSYAESIAESIAEnIkABZMzjSZ9IQESIAESIAEScAgBCiaHYGWnJEACJEACJEACzkSAgsmZRpO+kAAJkAAJkAAJOIQABZNDsLJTEiABEiABEiABZyJAweRMo0lfSIAESIAESIAEHEKAgskhWNkpCZAACZAACZCAMxGgYHKm0aQvJEACJEACJEACDiFAweQQrOyUBEiABEiABEjAmQhQMDnTaNIXEiABEiABEiABhxCgYHIIVnZKAiRAAiRAAiTgTAQomJxpNOkLCZAACZAACZCAQwhQMDkEKzslARIgARIgARJwJgIUTM40mvSFBEiABEiABEjAIQQomByClZ2SAAmQAAmQAAk4EwEKJmcaTfpCAiRAAiRAAiTgEAIUTA7Byk5JgARIgARIgASciQAFkzONJn0hARIgARIgARJwCAEKJodgZackQAIkQAIkQALORICCyZlGk76QAAmQAAmQAAk4hAAFk0OwslMSIAESIAESIAFnImBQMEW9jI52d3vlZtEK1SQyMtKZ/KYvJEACJEACJEACJGAxAS9PTznx125d+6iXIm4hj15EZ0zjofth83ad5OSZsxZ3yoYkQAIkQAIkQAIk4EwEihYuJGuWLNS5FPL4hbj9GfwkunJASt0PF/ywTKbMmOVMftMXEiABEiABEiABErCYwND+faRL+7a69nvPPxG3oG33ogfUTh+rE0aZLGbKhiRAAiRAAiRAAk5EIG50Ca4FbbsvbvWnX41e3Dmb6C/LXb1+QwYMH8WlOSeaAHSFBEiABEiABEjANIGihQvK9MkTJYe/v64hluM6LbwVI5hqFfaWuFEmtMTy3JZt2+Xc+QtMBOcsIwESIAESIAEScDoCnp6eEhiQT+rXqSVdOrxahtMcRXTp9zPhMYIJP+xZPZ00KpHa6UDQIRIgARIgARIgARKwhsDGY2Eyd+cDdalOMFE0WYOS15AACZAACZAACTgjAX2xFE8w4QdYnmtXwTdWTpMzgqBPJEACJEACJEACJBCXQMjjKFm2P1S2nwmP9dH/AMLyyLCLcQWBAAAAAElFTkSuQmCC;" parent="1" vertex="1">
                    <mxGeometry x="540" y="420" width="190" height="44.59" as="geometry"/>
                </mxCell>
                <mxCell id="TDUVbUfego_RBetQVLJ8-4" value="" style="shape=image;verticalLabelPosition=bottom;labelBackgroundColor=#ffffff;verticalAlign=top;aspect=fixed;imageAspect=0;image=data:image/png,iVBORw0KGgoAAAANSUhEUgAAAm4AAADeCAYAAACE/YxPAAAgAElEQVR4Xu2dd1xURxeGX6oUBQQR7L333nvvvWusMZoYS2KJUaOxG40tGlPtGo0t9m7svWvsHXtBEVAUke93Zr/FZdmFBRblynv+SWTvnTvzzNx733tmzhkb0EiABEiABEiABEiABDRBwEZqWXfqrXBTta2e1xUlszgjp48jvFztYGuriTaxkiRAAiRAAiRAAiSgGQJv3wJPgsNw6cFrHL7+EtvOBZus+4a+GW1MCjcRbO1Lu8M7hZ1mGs2KkgAJkAAJkAAJkMDHQOBhYBgWHQyIIuBMCrcelVOiQaHkH0O72QYSIAESIAESIAES0CyBtaeC8MvOpxH1jyLcKNo027esOAmQAAmQAAmQwEdIYM3JIPy6SyfeIgk3mR7tV8MzSpP/nL8IG7Zuw8XLVxEaGvoRImGTSIAESIAESIAESODDEXBwcECuHNlQt0Z1dP2kXZSKTN7ij+3ngyMLtzld0iK1wZo2v9t30HfwUJw9d+HDtYRXJgESIAESIAESIIEkRCB/3tyYOn40MqRLF9Hqh4Fv0Hn2vXfCbfKWJ+HG3rZm7Tvj7HmKtiQ0VthUEiABEiABEiCBREAgf948WLFgdqSaiNft61peuqjSvZdfhJfL7hxxgEyP/jBtRiKoOqtAAiRAAiRAAiRAAkmPwMC+vdC1w7tp031XXqB8DledcHv4/E24YeoPetuS3gBhi0mABEiABEiABBIPAWOv28Pnb+Dj7qATbmFh4eGGyXXzl67IQITE03esCQmQAAmQAAmQQBIjIAELZw/ujmh12FvA3s5GJ9zCw8Mj7ZyQq1iZJIaHzSUBEiABEiABEiCBxEXg4rEDERUSoWZrQ+GWuHqItSEBEiABEiABEiCB/xOgcONQIAESIAESIAESIAGNEKBw00hHsZokQAIkQAIkQAIkQOHGMUACJEACJEACJEACGiFA4aaRjmI1SYAESIAESIAESIDCjWOABEiABEiABEiABDRCgMJNIx3FapIACZAACZAACZAAhRvHAAmQAAmQAAmQAAlohACFm0Y6itUkARIgARIgARIgAQo3jgESIAESIAESIAES0AgBCjeNdBSrSQIkQAIkQAIkQAIUbhwDJEACJEACJEACJKARAhRuGukoVpMESIAESIAESIAEKNw4BkiABEiABEiABEhAIwQo3DTSUawmCZAACZAACZAACVC4cQyQAAmQAAmQAAmQgEYIULhppKNYTRIgARIgARIgARKgcOMYIAESIAESIAESIAGNEKBw00hHsZokQAIkQAIkQAIkQOHGMUACJEACJEACJEACGiFA4aaRjmI1SYAESIAESIAESIDCjWOABEiABEiABEiABDRCgMJNIx3FapIACZAACZAACZAAhRvHAAmQAAmQAAmQAAlohACFm0Y6itUkARIgARIgARIgAQo3jgESIAESIAESIAES0AgBCjeNdBSrSQIkQAIkQAIkQAIUbhwDJEACJEACJEACJKARAhRuGukoVpMESIAESIAESIAEKNw4BkiABEiABEiABEhAIwQo3DTSUawmCZAACZAACZAACVC4cQyQAAmQAAmQAAmQgEYIULhppKNYTRIgARIgARIgARKgcOMYIAESIAESIAESIAGNEKBw00hHsZokQAIkQAIkQAIkQOHGMUACJEACJEACJEACGiFA4aaRjmI1SYAESIAESIAESIDCjWOABEiABEiABEiABDRCgMJNIx3FapIACZAACZAACZAAhRvHAAmQAAmQAAmQAAlohACFm0Y6itUkARIgARIgARIgAQo3jgESIAESIAESIAES0AgBCjeNdBSrSQIkQAIkQAIkQAIUbhwDJEACJEACJEACJKARAhRuGukoVpMESIAEkhKB1GmTI2d+bxzYcRNhb94mpaazrSQQLQHNC7cC6YoiX5pCOHh9D248ucLuJgESIAES+AgIdO5XAuVrZMbeLdcxZ+rRj6BFbAIJWIeApoWbh3NKTG4xG3a2dgh4+Qz9lnVG2Nsw65BhKSRAAomSQJZUOVA7XyOk98gEL9dUCH4dDP/gxzh37xT2XtmBR0EPEmW9E1ulkjnZo/vAUqpaAf4hmD/jWKKpoldqF4z7ow7s7G0xqs823Lj8NNHUjRV5PwQS8/h8PwTMX0Xbws3FE1NazIatjS2ehwSg39+d8ebtmw/NlNcnARJIIAItin6C+gWbR5QejnDYwCbi3yPX98fVR5cS6OofV7G2tjb4fZ2O5a1rz/B9r62JpoHtvyiKKvWy4eyx+5gybE+iqRcr8v4IJObx+f4omL6SpoWbNKlQ+uLIl7YwDl7bjWuP+cCO64BKZu8EX7e08HDxxKnbnJaIK0eel3AEimcqgy+rDFYX2H5hAw7f2Isrjy7C08ULmbyyIZWrNzb+90/CVeAjLPnnFU2QzNkeF08/wg/f7EwULXT3dMIPc+rB3sEW4wf8i8v/PU4U9WIl3j+BxDg+3z+FqFfUvHBLDBA/hjpUzlkLnct+gZDQEHy2qOXH0CS24SMj0LNSf5TOUhGPgx5iwIrueBvOBevx7eJJ8+sjZSpnnDh4FzNG7otvcVY5v9WnhVCzSU5cOvsIEwYmDjFplYaxkFgTSIzjM9aNSIATKNwSAKoWi6Rw02Kvxb/OLi7OSOaYDE+fPYt/YQlcwvgms5DGPR02nl2FJUfnJPDVkkbxI2fVRLpM7ti37QZmTz7ywRud3C0ZJs6rB8dkdvhxyG6cO8H1ih+8U4wqIEI/6PlrhL5O+PXkiW18Jpa+SPLCTdbHmfpyl4CHuAQ6xPU8GRBSl/BwWbUTbrXxIWWKxeSdSEzCzdbWFm/fRvWm2Nvb482b2K1htLOzQ1hY3B8wDg4OCA0NjVd/xLeMZMkc8erV63jVwSlZMri6usLJKRk8U6ZEpozpUaZUCZQuURyr12/E9J9/s6j8+PK06CJmDprU/Hd4J/fBmlNLseLEovgUFeVcezsHvAmzvJ/je6+aeu7IWj0bG5sY71VrNvybiVWQI18qbFt9GX/9etKaRceprKYd86Neqzy4dtEfY/ptt6gMWQv19m3UZ6atnQ3ehsXuWRqXc4wrKVO8b0Lj7g22sQHs7GzxJo4pUOR8ewe7eAsrF1cHSICAo5M9JFgkfWZ3FCuXDtnypMLM0ftx4sCdGPsnvjwT2/iMscHv6QDNCbcyWSujSq5aJvH8dWQ2rj++bBZdt/J9kDqFL37YPAxlslVGtVx1kMEzC649uoRZuyfhafATNCrcWk3HyHqviw/+wy+7f8TTF08ilVkqSwVUy10XJ/wOq6//3L4FUClnDeT1LQjXZMlx48lV/Hf3JNac/jtG8ZfCyQ0NCrRAVu+cap1O2Ns3uPnkGi4/PK/Of/3mldn2dCn3paqn3laeWIQL98/C3tYeVXLVQdXcteGTIo36+WHgA4xY109NheqtU5nPkdYjg/qnROj6uKVVwvHSw3ORrhke/hY/bPkuxrbEZcx+O6Af0vr6ot+gIahRrQoaN6iL7Nmy4vyFixgx9gc8fvwEndq3QfUqlZA+XTqcPnsWI8dNxKPHkftEf21bGxs0bdwApYoXQ57cOeHi7IwrV6/j9Nn/MHvBIrx48TLaaoporFKxvKpHpowZkNLDA8EvXsDv9h3cvOWHDZu34vjJ09GW4erigob166BG1cpIm8YX8m//p8/g53cbV65dx/JVa3D77l2TZYhIK1e6FEoWL4qC+fPBO5UXnJycVB3u3LmLHbv2YNmqNXj9OmYhJ6KsRbNGyJIpkyrHnN25ew+tO3Yz+XN8ecZlTJg7Jy7CLadPXjQv2iGiyEeBD/D73qnq3+lTZkKTwm2Ryycf5D4MDHmO9WeWm10nF5d71dnBBf2qD8OdZ7ew8NBvaFqkHeT5kSKZG477HcLve6ZCjmlTsisKpiumnh/7rv6LeQd+TpD7zZhtnxHlUbBkGqxZdA6rF/1nze6KdVkiFH6YVw/OLg6Y/v0+nDoU9R6RvG5NPsmHgztv4dShe2jWqQAKlUqD0Fdh2PrPZWxacREZs3mgcYf8yFMotcr/tmLuGfy7/qrZ+ji7OqBey9zInjcVMuVIqUTXzStPcfLAXWxfexnhMWg/qW+lOllRqkpGePu6qvo/fxaC+7cD4XctANvWXMbDu0HR8kjl64qajXMifzEfeHq7qPV9Tx68wP07gbh87jF2rLmCF8GmPyzcUzqhSJl0yFfUB5lzpIRbSifY29v+vw5B2L7mMo7uvR1jf4jIkoCQkpUyIk2GFHBN7mj2nD2br2PuNNNroePL0/Ci1hif7u5ucEuRQj3DPxbTnHCrX6A5WhT7xCT/iVuG4+zdE2b7Zkyjn9TDWr7YGxZqpVKIJE+WHHa29iqVwIPn91AlV208e+EPd+eU6ut3/9Wd+HXP5Ehl1snXGK1LdMGxWwdx9OZ+dCvXG7Y2dnj20h8ezp7qPDERdjN3/oDQMNMv2cxe2dG76mB4uXqr40VU2dnawsFOd8PcfnoT0/8dhwfPTb/kRzWcioyeWSPqtvjwH2rRdp9qQ1EwXdFIdRYvXud5jZUw09vw+pOQNVXOGMfyo8D76L+ie4zHxeWAeb/NRNYsmTFv0RJ0bNdaCRy3FMkh3rVjJ07i9p17aFS/Dh4/8VeeIvm63rLtX4yaMCnK5ZInd8V3gwegTMkS6rfQN2/w+tUr5WkSkxt36PdjcO3GTZNVlWtOGDVciSYxEUdP/J/Cw90Nzs7OEeccPnYcA74dbtIrKAJp1rQf4ZNa16ciuJ4/D1TCScoXE2+itHf2/KheIxFpa5ctUmJNtSE0FC9DQtSDR2+379xFty/6Ijg42GQ7RGyNHDYYlSqUU7/f8ruNu/fuw8vLE9myZFFl/vLnHNy+fRePnzxRglRYGVt8ecZlPBiek907NyrmqB7xJxE8Tg7OuOV/DdcfR87ZePjGPpP3ftGMpdCn6pCIMl6+DkaPxW2QP21h9Ks2DOJpM7R/Ti3BqhOLo1Q9rveqa7IU+LnNIrUu79KDcyibrbJKXeLpmkpdY8PZlcjjWwCS4sTw73/u+wm7Lyd8lGf5mlnUy/74/jsffFqyQZu8aNwhH/yuPcMIMxGuRculwxdDyipvjyToTZPBDYHPXkECGuTZtmjWCTRunx/OLvYIDnoNNw8n5Y0b1mOzElLGljaTG3oNLQefdMnVTy9fhCrR4+Bop/59+vA9/D7pMF4EmX6Gp/RyxuDJVeHl7RJxfnDga8jfJZWJ7n4Px7q/zpsVxnkKp0bfkRXUdeXxHPT8lfKWpUzlgv+/SvAyOBS/TzyEU4fvRWlDrgLeGDihcsTfQ17q7mUnZ93zRuzIHj/8Mu6g2VtSxN+A8ZUUT/H03bkRgMCAV4px6jTJ8eThCyyffVoxfXQ/GI/uBUd6l+gLji9P4wrGd3y2at4En3XpCJn12LPvAL4dMTq+j6VEcb7mhJt8nbo46l7EYvKFOqrhNPX/lgo3mTYUMXbo2h5kTpUdI+r/qM4XgTV9xzicvnMMRTKURN9qQ6F/0Bv2ll64hYS+RDIHJ+y8uBnLjy9A0KtAVbfWxTujUs6a6pRlx+dj3enlUTo7ebIU+LH5H+pFJALt1z1T4Pf0upouFQ9Aj4r94e7sARFNg1b1NPn1LefK8XXyN0HDgi2x9fxaJQpq5WuEm/7XsPb0Mrx8/QIDan5vsh3yUrG31T2gymarour96k2IWvhtaG/ehiH4VdSHnjVGsF64Sb1HjZ+E7Tt3I3fOHPhtxhRVvIinISPG4OCRo8oTNX7Ud0qw1G4cNYBi+qTxKFKoAJ74+2PC5Ok4cuyEmlrNkjkjvh3wlSr3pt9tfNKtp0nR1aFNK3Tv8okSNmN+mIx/d++NOC61tzdKFCuixKV43eYu/Mtk8yePH62Ou3f/AYaPHo/zF3WRzjLFmC5tGuWFa9G0Eb4ZNhInT58xWUbj+nXx4uVLHD95SglWMRFy9WrVwJc9P1Vlrd+0BeN/1I17YxMPZdeO7RWnId+PVQJYb3ly5cTEsd9DZuOHjRqLE6dM10GOjy/P+I6PctmqonuFvhYVM2vXRJWE29hk6YJETIvNbLNI3S/f/tML39WbBAc7e6w/uxKnbx9FnfxNUSxjacjHz+ZzayIVE597VS/cpED5UJy0dThu+V9H3fxN0ap4J3Uduccnbh2uPhzlg1CeL8dvHcK0HWMsavvHcJBEtk6cWw+uKRwxa9wBHN1j2kOkF27SZok2nTFqP14Ev8bnQ8qiSGnd7IN46kRshYW+xVdjKqqp4CW/nVQeOUNzSe6I8bPrKM+STM3Om3YUd24GwMbWBvmK+KDLVyXh5pEMuzddw7zppnPcSfly7OP7wfhl/EFcv6S7X8V7JYKnVOWMqNE4B376fh8unnkUpatEIE5Z3EB56U4fuYcFM47D/9ELdZys85P1h9UaZkfeIj74rucWJeqMTcSdeBivnn+ivHMi8sQ8vJzRsE1eVKqr+7j/Y9JhtQtF1PNt8PWYihABKaL55zEH8PDeOw+hJEGWZMjihRTe+voZl2MNntYcyw729li5ZD483N0jiu3+ZT+cv6D97BOaE27GHSsPVXkgi1kq3JYdm491Z96JqT86LFderj/2Tceey9tUWc6OLvil7RL1/z0Wt1YCSG964Sb/loe8POwNTTxuw+v9iCypsitv2cCVPaKMR/Eaivcw+HUQ+i//FC9eR/aeZEiZGaMbTdfdcHunYc8V8+s9xHvYrEg7JQBl8bZ4+n7eNVGJPV+3dJjQdJb64v96uenpMLnGh1rjphduv/45FwuXLIvgtH39Kjg6OmLcpKlKKImJ52zTP3+r/xfhZuhxKlWiGCaNHamEVufPekXxqonHbNnC2XB3c8PYiVOwcYuunw3tpx/Ho3DBAti5ey+GjRpn8hkiD4O34eEm181JfaV+8nU35adZWLlmnckyRISFhLybso7Nw+rz7l3RpkVTBDx/jvrN2kQ5VaZ6N69epoTez7/9ib+WrYxyjHyF9vqsG65dv4GO3b8weXlr8IxNu0wdK9P36VJmjPjpswpfKU/4/ms7sdfofrjx+Kq6l6KzOR3/UcJNPmrSuWfA2E3f4uqji+qUnhX7o3TWimoaVZL4Glp87lVD4TZy/YCI62XzzqnEo5h4s0W8iek9hOJVHLbGMtEaX86J4fzazXKhRdeCuOcXqLxjhjMDhvXTCzeZivz2000RIqVOi9xo3rkAHtwJxPAvtkas72rdvbASTiLaRLwZmhwv54k3aUj3TVHWhGXL44Vvf6yKsLBwDPtsEx4YTXeK6JqxrLGa1lz08wnsWGd65x5ZJ/YqxPTa3FwFvTFwvM5bNqznZty9+dxkd0RXRnT9J6JuyORqyJLLE8f23VaizNiy5vLEkCnV1J/NJTvuPbwcCpVKi+1rrmDxL6ZnteLL09rjUGYeli2aA/no1luHbj1x4+Yta1/qvZeXJIXbzJ0TIFMrevul3RK1zmTsxsFqXZuYo50jfu+gE3cieET46E0v3AJDAtBrybv1M4a9VytvQ7QtqRNK363pq14WepOyf2q9EE4OTthybg0WGQk//XGDa49Fbt/88Ht6A0NX9zY7OPTCTQ6Q6ZYhq7+MEIJ64Sbr7oav7We2jA8t3L4bNU55uPS2afUytTas11eDcOrMWfVnWf+1bd0q9f8t2nfG/Qfv+mTW1EnIny8PNm/bgdETdB5UYxMvlHijzvx3Dp/3HRDld71wu3j5Crr36mfSKxfdHSqCbfOa5RBxt2zVaosX/Mfmri9fphTGjfxOndKoZTs1tWxoWTNnwrzff1Z/+vSLvrhwKeqaT1k7N3PKD+qYZm074eGjqJ4Aa/CMTbssOTYua9wMy9ULN/mbrIfdZJDzTS/cpm4frT589Bbfe9VQuMmzQp4ZYpk8s2Jkw6kqEKnT3EYR15N1bl/XGB7jh5YlvLRyjKOjHSbMraumNc15hfRt0Qu3u7eeK4GnN0kfImlELpx+iInf7Ir4e/MuBVGneS7s23oDs6e8i5qVdViTFzZQXi3ZTku21TJlg36orPZLXbfkPFbN1z2H9CaCbeaKJmqKM67BHYbCTbxZliz4j22/6tOriCge+tmmKKdXbZAd7XoWwauXb/B5M93z1djqt8mDJh3yq2nSb7psiPK7NXjGtl2WHF+nZjX06vGpWuu8btMW/DhtpiWnJfpjKNwAmBJuygMXg3B79vIp+iztaLKTZc2Kfgp22o6xOH7r3foCWWcn6+3EJm8baTbhbaNCrdRiZtkNotuCZma/Qg2F2+Ijf2Lzf6sj6iQvnmzeuZSQMxSPxpVOvMJtIE6d+b+YdnSEeOLEDIWbfFltXbdSeehkinTdxncPdMN2li9bGuO+H6ZSXzRs0S5Kv33SthU+7axbP3n0+EnMX7wEp06fVR42S23KhDEoXrSw6iuJ1ly+crWanrWWiUdQBKZYq0+6qrVrhqbWC/6meziJ51GCIYxNBK4IM7EuPXvj8pXIC7etxdNabdaXYy3hJuKpr9EuKxKk4+7koaYxDT138b1XYxRu4eHoNO+dcJO9l/vXGJGkhJtMBbbtUUSJgm8/3RhtJGhMwu38qYeYNNhAuP3fq2Ys3PTeNBlbg7ttNBs8oPfYmVsjJlOMMo0pj4hdG68qAScCyVITT9qPC+pDhI+sr9vw9wXIwn9ZX2Yta9guLxq1y6emOAd0XB+lWD1/CX74soXpBNYS6SsRvzIN28vEMdbiaa02G5YjH/wuzi6aSHlkafsp3BJIuEnaAnnRiM098DP+vfjuS0e/fk5+G772K9x4YtrFXjlnTXQu20uV0W9ZF+VNM2V64SbpDPr83UmttYutaVm4+fqkxrKFurxesuBfFuObsjRpfNVCVbGaDZvj5cvIEaaydmz08CEQr5beROQdOHQE/+7ai6MnTsaYjsTL0xMzpkxA+rTvon2lPnv3H1QeRVMeMFN1Fc9Zw3p1kDlzRnh7eanAAqmfCl5x0C2oNyXcZJp+7fLFakp40rQZWL1uY5TimzVqgL69eqjp3hoNmkVJd2ItnrEdgzEdby3hJrsrLDkyO6bLqd/je69SuEWPWbxV42fXVUmA5/90DLs2vpuZMHWmtYRb2eqZ0fWrEipw4I+Jh82mYCpYIg3KVM2EG1eeYlTvqMsrJCjimx+qqEX8epMgCElofHSPn0V7rOYumBoyFSnr/MTko+/qBX8VMHJs7208fmA6CMmQj0yJ5ivqi9L/j2yV9W0p3JOpQDk7OxsVKGFOuKXP4o7vZ+rWZMuUsakgjs+HlEGxculx6exjTBj4b5SusRZPi25KHgQKtwQSbhKkMKutbgH7iuMLVWoPvVXPXQ8dSn+m/vnVsq54Ehx1qkp+k8XSvat+q44zXB9jPG71wi0+0Z9aFm6GXihL7+kW7bvg/gPTyT3LlCyO5k0aoUjhgmraU28SKDDr99nYsj3qg8vwunJOg7q1Ubd2DeTMni0iyliOkWCFqTN+wbkLurVVxiaRpyO+HRgRERoQ8FylDvH3f4o3YWFqoa0EYIiZEm7ydwlgaNm0sQps6N3/m0hh8BLtKlGvEuW6duNm/DBZt47S0KzN09I+iek4awm33/ZMUSk3LLH43qsUbtFTrlg7Kzr2Loanj1+qKbiYcpdZS7jpvVCWjAE5RtbBDewU1Vslv4n4lHaUq5kZmbJJNoJ3pUqwwuJZJ1TwQ3QmIqtW05woUTEDUvm8C76Tcw7v8sPff5zC0yemUxmJ6P1qdEWkzeimLiF1ffIwWHntZHMR+btEe5oTblLfYdOqI1P2lDh/8iFmjtkfsXZQyhOP4lejK6jnmES2Hvw36hoxa/K0tE+S8nEUbgkk3FIlT62iRsWMPW6ls1RAz0q6NVayHk2CCkxZ+exV8Wl53QJlifR8+P8FzMbHJnXhljlTRiz4Y5bCsuKftbhnRpAZchNPVEwBAhLQIKlBKpQtrYSUJLEVE+G1YvVai54bqbw8Ua5MKVQoW0aVJQ8/iVqVNXamvG+D+/dF3Vo1VHoOEVVbd+yMFAgR01SpVEquIVO+Hdq0VFG5Bw4fxd2795AqlRfKli6p1g5KbrsvvhpgMq9dQvG0CFg0B30I4Rbfe5XCzXyHSuTl2N/rqNxnf/1yUuU7i8msJdyq1M+G9p8XVR43SXMR02oISQeyd+uNmKqnIjklr1xRlVfNV4k4yQs3rv8Oi7xvcgGJJC1SJi2Kl0+PDFk91DUlylM8fsa53GSqdciUquociWz9c/IRtVWYocU0VSrHSuoQicyVXHAB/iE4d/KB+m+ajG4oWELaYaPWAcp6QFOWUDxjBJ5ED6BwSyDhJvnRJE+amPE6NsPfJmwepnLImbJ6BZqhZbGOKpO6rHEzt5NDUhduMnUoQQuS400CEyRAwdomHqoJo0cgR7asSnjVatjcZO6z6K6bL09uSLoQ2WZKkvj2GaDbMF1vIhQlKlUiQ/+ct9BkyhFLhJuUJ165H8eNwrOA5yoPnTCS5MM3/fyw7d9dSuCa21HiffCMS/98COEW33uVws18T8sUZLf+JVWi2EGdNuC1BVsoWUu4iRdJ1qeJybovcyku4jJO9edkze2lriGiyDhowtJyJSFu+y90eSUlQbIkSja0/MV80W9UBfUn2dfVWLTJ3y0RbnJc3Za5VUJjEYBePq5KdErfSCDI5pWXVE47c/Y+eFrKLCkcR+GWQMKtaq466FimpxpDg//5Anef+UWMJ8nAPqP1QvXvpUfnqiScpuyLygNRMnN5ld9p4Erd1Kops6Zwkzxu3Re+v03m9elAzEeVxhycIEz+XjAbaXx9lCCZOvOXBLl3q1WuiBFDBqmyu37eG5cum8/Gbq4C/fv0UgmFJTFv7UYtIh1mKMr6DhwSKf+a/kBLhJtnSg8sXTAbYW/eoFm7znj54gWcnJ1i3DXCsDLvg2dsO+lDCLf43qsfu3CTvUWr1s+mxMmBf2+pPGCWmMcLIA4AACAASURBVHhwRv1SS2XoF4/XxuWmlw4Yl2Ut4Sa7E8ieqGIyNXh8X8Jk1f+kVzGVR00CD3o1N73wPyZeY36rDd/0KVR+OtlRwtD0okzWxX3WaKXaKcLYLBFukupD1tlJrrkfBu1UeegcHOzMpjExvsb74hkTK+PfZZaketXK8PJMqXJf6vNixracxHY8hVs8hJsk4BVBJYk1jU0iSiWy1Fw+JknuKwuf7z+/g0ErdQLP0OSFMbXlXLV9lWyoLVtrmTNrCDd9GgK5hqQekRQk78OsJdz0uclkT88O3XqoBLixNdkpICjI/ELg+nVqYdBXurQs5tbIxVTGsG/6o2a1KiqViUTGGpp482b/oos2nvnrn1iyPKqgb9ygHr7u/bk6Rrapku2qjK1W9aoYOuhrlYi4ebvOMQZUmOJkDZ6x5R/T8R9CuEmd4nOvfuzCTdZGyc4LYpLtv/8n69QG5DFZ8Qrp0XNwGcguAwM6rVepKCwxawk3uZY+N5kk3ZWdGmK7r6mUIdt0mduKSn7/dEApFTAQ3Ro5FVFqZjsrKWPSgvpqJ4Z9225g9uR3KU3kN8lRJ5GvYiN7b1NJco3ts29Ko2TFDGodofSPKevctzhklwLZGmvW2Ki53izpG2vwtOQ6sTlm9HffRqwXlkCzZm06xnqmJDbXe1/HUrjFQ7hJJ4k3bMr2kbgXoPtik42i25ToonYvEDOXPFefx0mO2X15G+YemBkxFerqmFy9LGSfxechASqPXHR7llpDuMkuDVNazIFkmt9xcSPmH/glItJK/pbGPb3ZtXjxGazWEm4yvbd4zm+QiEhJLCtTppevvotQk3VdLZs1RrYsmVVyXeMEn56eKfHbT1PUVOLMX/6IksBX0mxMHDNCJXOUFBwSGGBsMj05ccxI9WU3Z8FiPAvQ5ezSm+yBOmzwABXwYGrnA2nDhpVLVPJcCWL4ou+ASA8ZWfsmwlGmUsUGDh2hIl6NTdKRSFoSMdnmS9KpBAXrktPKNO+du/dx8dJlk6lC9GXFl2d8xoS5cz+UcIvPvfoxCzfZE3T4TzUidZepHQpM9eeIGTXU+q3VC//DmsWRp/+iGzvWFG6yYF+iKWWJxbF9d7BgxrFIaThk/9CGbfOqKEtJ02FskoNNtqqStV8yhWmcwkPEqQg3CV4wtz5M0mzUbp5Lcdi54WqkzeklT1zj9vlUkmD1LjGx84HsCiEbsYsZ55ITr+YnvYuhYq0s6nd55n3ZYrXy/hlbk0/yo37rPOqY6xf9cf3y04i6hLwIxYM7Qbj03yMl/sxZfHla+5khz9GNq5ZGbDUo5cuONfsOHrL2pd57eZoTbi2Ld0KpzOUjQEkmdP2+fyJyDAXOyhOLse/qu/VO+r1KLUnAa0keN9kiS1JwODu6qh0SHgTeR2avbHBz0m2xceTGPrV5vbm1abLtjWRllzZIbqlrjy8jmX0yyL6Isp2VpPWQup67Z3pT8y8qD1I7Jbg5eajtsSTf270AXSoMSR0ia+tiY40LtUaTIm3VKSJI7wb4qXqk98ioEhR/s+pzPAqKvScrujpYS7jJNfLmzoVR3w1W4kp2UJAM2XfvP0BaXx9kSJ9OrfOSdV2ytkyfG05fN8nxNmTAVxCPmZh8nV29dgNBQUFqo/icObKrv8sUZ/9vv8PZ/85HaZYk+JVccCKs5AEoXj8RkfIAzZI5kypH7PqNm+g78NsoyXPlN32qDnWt4GDs2X8QL1+GqNxw0gbZ1UE2vi9UMD9kz9Kvvhlq0rs4oO+XaFivdrTdf/DwUUycOsNkAt748ozNuLP02LgIN9kHtF2pT9UlZDcS/b2hz9UmW9Wd9Isqfo3rFNd79WMWbrK/5cT59VW6Cb1JZn7J0B+d6aflREAM7LTB7D6gpsqwpnCT8ivUyoK2PYtAkgC/fhWG29efKY+hb4YUKmhC7t3nz16p/HLGXjHZV1WElwg/CW6QtB23bwTA1gZIm8ldnS8muyFMHLxLrRczNBFmX35XDrJOTUymOe/dDsR9v0CV102iPJO76fatPrzbT0V0mvIK6lN1yHHi2ZMkvhKlmqewD1K4O2L90guoXDcrZFr7v+MPMPW7PSoow9Bky62vx1ZElpyeZrtOIn5l+6+lv50yG/0bH56WPgdic9yKxfOQ2lu3L7DY198Mg+w1rXXTnHDrUu5LVMoR+SvPXCcsOPgrtl14F8JtbeEmCXhHrR+A7hX6Ke+YeNvEAkOeqy15lh6bazZprr7OedMUQruS3SAJQEXAib0Oe602pJ6zf0akHRuM22m8ybzh7xKBarznaEyDVa4va/OaFm0H8frpTYIjTvgdgghhcxGwMZVt7ndrCje5hmzGLjnKZMsmw43ZJYJ0/6Ej+GPugkjpMQzrJYKoW6cOSiTJejl5aOst5NUrJZpkCykRY+Yse9YsKqIzd66ckLVmhiYpPTZu3Y6/lq2ApPkwZXLNRvXqoHuXjkiR4l0fyLSnXHvp8lXw9fHB9EnjVJRooxbtEBhkequnbFmzIE+uHEjl5RXRljS+vsifN7cSgWLXbtxEzz5fm13/Fh+ecR0T5s6Li3Az3mTeuGzZs3j/1Z0WVTUu9+rHLNwEmuxMINN14lWSBfiTh+4xuc7KELBsryTbLIkXa8Vc83vlmuoUaws3uYZEZLb/oggy5/RUAk5vsi+oJMPdsOyiWXEpXkPxVmXJmVLt/GBoAU9DsH/bDWxaccnkHqP6Y6VNtZvmQrrM7pE2hpffZRp398brajstY7GlP1/yv8muBpJIV0SkmAhJ8RTK9lTnTjxQ+7h2/bok7t8JxOi+prdPlMdd7kKp1UbzesEo5aXP7A4JtBChLmZqytaw3fHhadGNGIuDZG/o7wbrMjjIh3DDlu1VpL3WTXPCLTEA1295ZbhzguxtmjFlFjwPeRYxbRqbujraJ1Pnvw57hTvPbpn10sWmzLgeKwLOO4UPJImweDFFBMp6Pq2ZTJumS5sWd+/dU2vKzO1/aKpd4mbPkikjXFxc8PjxY9x/+BCyfi425u7uhiyZMiE8/C0ePX6i6iCeQEtMvym9iK6bt/zUejVDE4GXOVMGXL8Rt333ShYriknjRipBN3LcRJV2JCaLD8+YytbS74npXk0M3MS7I5vDm0rcalw/ffSheLckL5o1dwiILwsRKeJpk/bcuxUYxUMWU/ni0UqXyU09Z2RKUbxf5sSWqbJEOMkif590KdR0ppTxzEzuNlPny/ZdIrqSOdnB71pAlClR2VtVcr49NNpzNaZ26X/XT6fKv7/usC7GusWXp6X1iu64dq2ao0c33VrihNqG0Br1jG0ZFG6xJQbAlHCLQzE8hQSsTqBCuTLInTMHTpw6rbbtis7+mve72uFh4ZJl+PXPuVavCwskAWMCAydURq4C3iY3fSetD0NA9nkV4S3bgkm+OHMmARISKCE2ZdgenD0Webu9D1P76K/6w5gRKFNSt0NGm07domwRmBjrbEmdKNwsoWR0DIVbHKDxlPdCoFP7NpC1drv37ceQEboABVMmwRgrFs1VC3eHjx6PHbv2vJf68SJJm4B43Ko3zI75M47H6LFJ2qTeX+v7j6uEPIVSx5gEWba8kvV0Yv3arlFr/xKzyZ7LG1Ythaura4zPw8TcDlN1o3CLQ49RuMUBGk95LwQM87zJmrgNm7fiwcNHal9W2Ww5pUdKlChWBO1bt1DBEjJ927VnbzwPjP3+tu+lQbwICZBAghKQyNlG7fMh5OUbLJ9zGqcO3VPTxLLjgwQteKV2QeHSaVUghkzHnjp8D9NH7E3QOlmj8BzZs2H2LN2Wfr2+epcP1Bplf+gyKNzi0AMUbnGAxlPeG4Ge3Tqjbavmka4na+v0aUT0P0hU6teDh3000wfvDTAvRAIfEQHZgH7AuEqQ1CKGJtOL+mAH/d9l9wTJ82bJLhcfGlGLJo3Q+/PuuHj5Crp93udDV8eq16dwiwNOibyslrsubvlfh0Sl0UggsRGQ6FbZoSFjhgwqa7ibWwoEBgapzOH3HzxQ217JGrjYBGwktjayPiRAAtYhIIERBYqngWxD5untDLeUTirC9fnTV3jm/1Jte7V3yw0V5aoVk2Ug9nZ2eBMWFqck5Im5nRRuibl3WDcSIAESIAESIAESMCBA4cbhQAIkQAIkQAIkQAIaIUDhppGOYjVJgARIgARIgARIgMKNY4AESIAESIAESIAENEKAwk0jHcVqkgAJkAAJkAAJkACFG8cACZAACZAACZAACWiEAIWbRjqK1SQBEiABEiABEiABCjeOARIgARIgARIgARLQCAEKN410FKtJAiRAAiRAAiRAAhRuHAMkQAIkQAIkQAIkoBECFG4a6ShWkwRIgARIgARIgAQo3DgGSIAESIAESIAESEAjBCjcNNJRrCYJkAAJkAAJkAAJULhxDJAACZAACZAACZCARghQuGmko1hNEiABEiABEiABEqBw4xggARIgARIgARIgAY0QoHDTSEexmiRAAiRAAiRAAiRA4cYxQAIkQAIkQAIkQAIaIUDhppGOYjVJgARIgARIgARIgMKNY4AESIAESIAESIAENEKAwk0jHcVqkgAJkAAJkAAJkACFG8cACZAACZAACZAACWiEAIWbRjqK1SQBEiABEiABEiABCjeOARIgARIgARIgARLQCAEKN410FKtJAiRAAiRAAiRAAhRuHAMkQAIkQAIkQAIkoBECFG4a6ShWkwRIgARIgARIgAQo3DgGSIAESIAESIAESEAjBCjcNNJRrCYJkAAJkAAJkAAJULhxDJAACZAACZAACZCARghQuGmko1hNEiABEiABEiABEqBw4xggARIgARIgARIgAY0QoHDTSEexmiRAAiRAAiRAAiRA4cYxQAIkQAIkQAIkQAIaIUDhppGOYjVJgARIgARIgARIgMKNY4AESIAESIAESIAENEKAwk0jHcVqkgAJkAAJkAAJkACFG8cACZAACZAACZAACWiEAIWbRjqK1SQBEiABEiABEiABCjeOARIgARIgARIgARLQCAEKN410FKtJAiRAAiRAAiRAAhRuHAMkQAIkQAIkQAIkoBECFG4a6ShWkwRIgARIgARIgAQo3DgGSIAESIAESIAESEAjBCjcNNJRrCYJkAAJkAAJkAAJULhxDJAACZAACZAACZCARghQuGmko1hNEiABEiABEiABEqBw4xggARIgARIgARIgAY0QoHDTSEexmiRAAiRAAiRAAiRA4cYxQAIkQAIkQAIkQAIaIUDhppGOYjVJgARIgARIgARIgMKNY4AESIAESIAESIAENEKAwk0jHcVqkgAJkAAJkAAJkACFG8cACZAACZAACZAACWiEAIWbRjqK1SQBGxsbFCtSCEePnySMJEzA1tYWhQsWwPGTp5IwBTadBJIuAQq3pNv3bLmGCMjLetBXvVG3Vg2MnTgFG7ds01DtWVVrEujbqweaNqyPn2b9jmWrVluzaJZFAiSgAQIUbhroJFYxaRNwcHDA90MGoUK5Mrjldxu9+w/GE3//pA0lCbc+T66cmDx+NJInd8W8RUvwx9wFSZgGm04CSY8AhVvS63PV4lTp8yN/+U9Mtv72pb24cnyNZsgUa1UNrl7uJuu7/891ePPqtWbaYlxRmR6dMHo4ypQsQdGm2V60fsUNxdv8xUvx+5z51r8ISyQBEkiUBCjcEmW3JHylMuSuhEqtxpu80IVDf+PopikJXwkrXaHusM7wSO9tsrTl/abj9YsQK13p/RfToU0rdO/yifKwde3Zh562998FifaK+fLkxozJE2BnZ4cBQ4bj0JFjibaurBgJkID1CFC4WY+lpkpySJYcyT3SRKpzuabD4ZE6G7Qm3FL4eMLewT6iLamyp0OJNjXUv7Us3Armz4effhwPWd82cOgIHDh0RFNjjJVNeAKd2rdB147t8SwgAJ0/64XHTziFnvDUeQUS+LAEKNw+LP9EdfXaXf9AqvT5NCfcjCGmyZcFVXq30LRwEy/Kknl/wNcnNdZt3IIJk6clqrHCyiQOAjJOZk2bBJk63XvgEAZ/NzJxVIy1IAESSDACFG4JhlZ7BVO4vd8+S5E6JQIfPjV50fJlS2Pc98Pw5s0bNG7VHgHPA99v5Xi1OBFwcHSBnUMyhASb7tc4FRrDSUULF8S0iePw9m04WnbojAcPHyXEZVgmCZBAIiHw0Qg3W1t7vH37Js5YbWztEP42LM7n60+MTz2kDkA4wt++jXM94nN9awq3+NQjzo3//4nW9LjZ2tnibVjc+0OCCxxdnWDv6AB7J0ek8PaAV+Y0yFgsF5J7p8TK/jPwKvhllCb/MGaECkjYf/AwBg37Pl5IbGxto44pGxtI3WI71uJ7n9jZOSAsLDRe7YlvGXb2yRD25lW86mDv4ARZbmDvkAxOyb3gnioT0uUsh7TZy+DysVU4ummqReXHl6dcxNbGBssXz4N3Ki/MXfgX/py30KJr8yASIAFtEtC0cMtWuD7S5igDrzS5kNwjLV4GP0HAoxvwu7ALl46uilaIyQMzT+nW8M1aAl5pcsMhmQuePbyGJ3fP47+9CxD07K7ZHs2UrzpylWgGib48t3+RunbuUi2ROlMhePjkQOirYDy+fUY9vAP9b0c7MrwzFESeMq3hlTYvXFJ4Izw8TJ0T8Pgm7lzah2unN8YoKD19cyJXyebwSpcX7qmyIOSFP/zvXlT1u3zsH4tHZnyFW7ocZZG1UB14pcsHV3cfPH98C0/unceZXXMQ6O9ncT3ie2B8hVvKDD7IWaUovDL7wj1NKoQEBsP/5gPcOXMVV3bHnPxWhFr+umXgkysT3Hw9YWew/s64bftnr8eNQ/9F+rNPam/8vWAObG1tMHLcRGzdsdMiJA7JXFGlzSQ8e3QdRzb+iMJVuiNT/upI5uKB2xf3YP8/I+Hg6IpitfogXY4ycHRKgWunN+HQuglmx5iNja0aW2mzl1Zj1N7RGU8fXMGjW6dweucfCH39Itq6iWjMlLcachRvAvdUmeHkmlLdH8+f3ELA4xu4emI9HtyIflG9tCtHscbIUqAmkqdMB/l3SLC/Gl9PH1xWU/vm7jMRaelzlUfabKXgnbEQXNy8Ye/grOog59z8bzsuHFqKsDcxRx6LKMtTuhXcU2dV96o5C3x6B6unNzf5c3x5mrtmr8+6oVXzJnj0+Amat+uEtxZ+/EmqmayZM+Hi5SsWjTEeRAIk8OEJaFK4yQunTKOhyJC7YgRBefDa2TtG/FsE3M4lA00KBicXD1RoMRo+mYup49+GvUFYaAgcnJKrf79+GYi9K4fj7pUDJnsoT5m2KFbzS/hd2I1LR1eifLORSObshuCAB5AXhZOrR0Q5q39qjlcvn5ssp0DFLihU5VNdHd6GqZeRra1DxPnyd3m5bF/QG0HP7pksI2vBOihVf5CanhGTazk6JYe8IMRunduB/atH483rqF4d4wLjKtzkWoWqdNelF7GxAcLD8eplgBIMYvJyP/DPaNw6/+97GfHxEW5ZSudDyfa1IsTW6+AQOLgkU94pxfP4RRycu9FsihGfnBlRoWdjOLo4IfTlKzy78whhb8KQMp03kqVwwYMLN3Fh+zF1fsC9Jwh5HhyFSZWK5TFy2GD197pNWiEwKMgibjIGWwzcjOBn9/Hw1klkKVgbL54/hItbanW+fGT4ZC4Kr7R5Iv394JqxuHJibZRryDgq1/R7iCDX3SehCAt9FXGfiPja/fdg9cFjysTrWrntJCWaxOQefRn0BHL/iQDU272rh7Bj8VcmvX8ikGp1/V19CKix9CpYjXH5u62dLiBFvIZn9sxRQtLYRKQ1H7BeiTV9Hd6Ehqj7VW/yUbHhty4IfWWas4xveV5kzFNFnfL8yU0EPb0L5+Re8PDJjrdvQnFi+894/sQPLwMfK0EqrIwtvjyjGwTFixbGlAlj1CEtO3TBvfsPYhwzsvvC6O++hbu7G/xu38HnfQeoIAcaCZBA4iagOeEmD9E6n86GZ5pcSnCd+vdX3Di7VYkm5+SpkDpjQeSv2Alhoa+xZU4Pk9Ontbr+Bu/0BfA6JBD7/xkFeXHI9I2bV0aUbTRU5TiTl8Gama1MfsnrhZu8ROQFJJ6tY5unI+jpHdXbGfNWRcXmo5WIkZfJ6V1/RhkF4mmr1eVX9feze+fjvz3zIrwX8lIR71mBip3Vy27bgt5KDBlbmmylUK29bkrm5n/bcGzLDLx4/gCyziZLwVooXudr2Nra4dqpjcrbEpPFVbgVrNQVBSt3Uy+rE9t+xuXjq5VQdHL1RNEaXyBrobrqtzUzWpkVoDHVLTa/x1W4pcmbGVX6tNTxPHoBJ5b/ixdPA+Hg5IjMJfOieJvqEA/S9YNncWDOhihVcnJzRd2hneDk7oqbR87j8MLNCA3ReXLE6yb55rJXKKQ8bAfnb8LbN6an5sVzIh6UV69eo3r9JhY3XS/c5AT5CNi+oK/ySOUt2w5Fa/RS5cgY3b6wrxrXRWt+ibxl2sLv4m7sWjIoynVqdJyphN7LoMc4uGYc7l09rO4nD++sKNN4qBKAzx/fxNpZbU2KrvwVOqJw1R5qDB9YPRo3z22POM7FzQdpspWAfLxcPbkOZ3bNNtnOah2mIU3WksoDvmfZUOURFxOPeYqU6ZClQC3kLt0KO/8agAc3T5gsI2fxJgh99QL3bxxTwkpMhFy2IvVQrFZfdY9cPbEWB9aMNXl+gUpdUKjypwgNCcKuvwfj/vWjEccJg6rtJHVOOHYvG4IHN46b7a/48oxuIGTOlBEL/pilDun11SCcOnM2xnEzbuR3KF9GJ6rFZv0xB4uXLo/xPB5AAiTwYQloTrjJVFzZxt8pav8u/hp3Lu+PStDGRokXEVbGJl//Vf8vdrbO/TzKw17WrjTstVR5Ka6d2qCEnbHphZv8XUTjvlUjory46vVYgJQ+2ZWXafff30YpQ4SOCJ5XL55h2cQ6ZkeB1Ec8BKasdtfflciUF4kpcZerZAuUqKPzZJgToYblxkW4ifekUZ8Vivfh9ROVB9LYhLdwN8fT2rdAXIVbzUHtkSprWuUV2z51qbyLI5lMnxZvXR3hb8OxbvgfUQIL8tYqhcJNKyEk8AXWDPkVb15F9rqIeGs8rofyvO355R/4nbhksulf9vgULZs1Vl4T8Z5YaobCbdOfn+Lxbd3LO1W6fKjdTeeN+md684gPjPS5KqJy6wl4ev8S1v/aMdJlZGpUBImMnfW/dojiVZMPliZ9ViGZi7sSZVdPro9SzRqdfoZPpiLK6yuixpTZ2jkgPPytyala8aC3HLRVedKPbJiEi0dWmCxDRNib0Jg9yqZOFkErwvbViwAsm1g7yiEi1Ft9s00JveNbZyivZdTnQRsUq9kbzx5exbpZ7U3W0Ro8oxsHbilSYP3KJeqQUeMnYcv2mL3b3w0egBpVK0cUO/mnn7FqTdR+tHT88TgSIIH3Q0Bbws3GRr0sZNpEvmy3zvsi1pSqf/ITfLMUV56I9b+Y3jlAL6rkpbXix3oIefEs0nX0wk0e9st/rGvS21Cu6QjlDXjkdwabZ3ePUk/9NcRruHJygyjXiKlhqTMWRs3Oui/sXUsHqWlbYxMx1ezrdcoraElutrgIN/GoiGdFPCKrf2phkoVMSdfoOEP9tmRs5XgvTo+JTVyEW+oc6VG9f1tV9O5Zq3D75OWoPJ0c0eSHz2GfzBEXdxzDsaXbIx1T4bPGyFA0J+6euYqdM0yLjKr9WsE3dyZc3XcGh+ZvNNmUUcMGo3LF8vjv/AX06P11TM2N+N1QuC2fWCdiTMkayLqfzVNe24UjddOeYrJmq2q7ycoL+s+0ppGuU6vLb/DOUECtsdy/yrS3VrxQ4o165Hcam2d/FqWeeuHmf+8CNv7RNdaBEBKE0Grwdoi4k3Voli74txgYgPS5KqBy6x/UKcsn1VOeSkPzSJ0V9XvqxNrG37tEePwMj0mdsRBqdv5F/WnllMbK621s1uAZU7t2bFwNB3t7/PrnXCxcsiymw5ErR3aMGDII6dOlxakz/6kgmODgqB+7MRbEA0iABN4rAU0JNxFsTfrqFtsfWD1GTbHE1loM2KS8BPLlLF/QpsxQFMl068NbpyIdphduMoW04scGJsuQdWeyoFq8HuL9MDbDh72ssTm980/cOr/T4mg3WTBeoo7upb5kbFWzHge9UFVeuflfRosrLsJNpmplyvb6mc3Yt3KEyfIl+q7VN1vVb2tntlFrgBLS4iLc9N40qdffvadE8Zbp61utXyv45M6E+xduYseUpZGaUaFHY2QoklOJPhF/pqxq35bwzZMZt09dwe6fo3on5ZyJY75H6ZLFceLUGfTu/43FqGISbuLZWjSyXER5ei+QsXCT5Qitv/1XeboOrh1ndvszvcdOUl8sn1Q3Sj3zV+iEwlV1gu7etSM4u2cuHt48qTxsllq1DtORJmsJJTovHftHCTiZnrWWiUdQBKaYoTdSX74kpK7fUxelKR968sFnbCJwRZiJbfi1I/zvR/akWotnTG3evHo5XFycYxVZKms3U3unYgqRmODydxJIRAQ0JdxkrYuseREzNc0ZE1eJRpNpD7FjW37C+QOLTZ6SwjMDGn35t/pNvA3idTA0S4SbiCoRV+aEm5SXr1wHFK7WIyKQQBZ+37t2WAm42xd343WI+UXpEhkoUbGylmzJuKpmm16+6ffIXKCmmh6TF1N0Fhfh1rjPSrUDg0TnSTSvOZNgEhEC//7VX0XLJqTFRbgVbVEVuasXV0EDf/c2n8qhbNf6ar1b0ONnWDNE97LWW66qxdQ6thf+gVgz9NcoaUQktUijcT3g7J4cZ9fvx+k1e01iGNjvSzSoWxs3b/mhfdceFqOylnBzdfdFk7464SlrNCUIwZRJvxeu1lP9JGPQOABG1qFVajlOebX0JiLvzuV9uPnfDty/diTGFD6yblU8yyk800eUIcEBfhf2qClY/Zq3dmGMPQAAFepJREFUmCCJ50w+pNy9s6jIUilX6ieiSh/UZEq4yTrVFv03qo89ib41FaWt/4iSAKOlY6tE8Shbi2d0bUyWzBHb1un6bNK0GVi9zrQ3NyZO/J0ESCDxE9CUcJNFxiXrDVRUTT5kY+Ati6rrf66b9pDF+rJo35RJ1GrLQVvUTye2z8J/eyNv4GyZcPsKssYsOuEm5Uud8pZvj/Q5ysPROUVEdWRB97n9C3F2z3yTXriKLcaoIAiZovxnWjOzLS9eu59KVSLl/TWmUrSEYivc5KXXdtieCOFpyXA3tx7KknMtPSYuwq38Z42QsWguBD0OUOvTzJkIMxFoEliw5IsfIx2WPJUHan/7icrbdm7zIZxatRvhBkElBRuWR/56ZfHmdSg2jpprNvmufhujwMAg1G3aytJmq0hJiSoVMzVVaqnHzdALZenFZarVXOSzRKXmKtUSvpmLqmlPvUmgwPFtM3H99KZoLyPn5CjaENmK1Ienby5d5PL/TYTbkQ0/4vGdyClV9L9LZGv55iMjIkJlTakEZrwM8leiUdZoSgBGdM+U4rX6qgAIqa8szzAUsjILIFGvEuV65fga5aE0NmvzNAUrbRpfLJ2vC4IaOGQ4Dhx+F0BhaR/yOBIgAW0Q0JRwy5S3Kiq00IW8b/itM2TtTGxMwvdlzZeY5Lm6eNh0BJXhF7KpVAnWFG76+svXf+oMBZE+d0VkzlcdzilSqZ/MBTfop2LNLarWlyuermyF66n0DyunNIoWV2yFmxTWvP9Glb5EgkQMo+3MXUi8beY8OLHpy+iOjYtwK9muJrJXLIxXQS+x4uufzBZfumNdZC2bX0Wb/vONbo2hobn5eKJKnxZw9XLHs7uP8fjKbYSFhiFVtrQq8a6s85NoU1njZs7q1KyObwf0Uz9XrdsYoaGWJay1lnATr1SDz3Xe6IuHl1kUCXz56D8xBgjIWsu02Uojfe4KSkhJ4E1M96IxI7kv0ucsjwy5K+nSjNjYqI8SWdJgyvtWptEQSL5HiWoWUXX9zJZIgRAxTZWq69vYqOhYSXcj15KxLh5sEWuSdFc8+TKFumV2D5N57RKKpyGb/PnyYNbUSepPHbt/gWvXE3Y5grXuVZZDAiQQewKaEm4pfXKgXg+d90ui1GSqJLYma3fkhXFm9xyc+jfyVJe+LMMovK3zekVJEJoQws2wHZILToSZRNCKbZnbU60NMrR85dqjSPUv1NqfxaMrmp1ykshAWcsk50s50VlchJt+0XV06RRi20fxPT4uwk0fESo8xZNmbrcE2QNVyn942Q/bJv0VpaoyHVqhRxOkzZ8FL54FwdXTTfVR0JPn8L91H2fW7FX526KzAvny4uepE9UhPft8jbPnLPtAsZZwk6CA1kN2Kk+qqaUC8e0fOV9ET5W2k5DSN6cSQ0vHVzeZ+yy6a0lEtSydkCAcSeIr96qhiVBsNWibSuFyaufvJlOOWCTcAOWVk3tJ5Sd0dlfTq5KfUNbb3TizBRcOLzObxPh98GzWuAH6ftFDbZFWr1lrvHgRtyhba/QtyyABEkhYApoSbhKS32rwNvVCEW+ZeM1iaxIhJutd5KtZ0omYspzFm6JkvQHqJ/FSibfK0BJauMm1DL2Dx7ZMx/kDkUWCeCwqttTlnTIX7SYvrKZ9VyvvnblpHMN2xUW46T0a0aVCiG0fSULQJg3qwcXFBVu27cCVa9djVURchJtEg0pUqNjmcQvw5EbUhMc2tjZoPK4nnD2S4+re0zi0IOoUX9EWVZC7egmcWbcPZ9bug629rKOyQVio5duxyfGywbxMf61YvRZTZ+giFmMyawk3uU7jPivUjiDicTuycXJMl47T75nz11DJq8U2/NYJ/vcuxrocvedZUv+I+DM0Q1EmgTmmPMKWCDfJRyg8wiUCfGoTvHn9Qn38xbRrhGFdEprnL9N/RL48ubFz914MGxV1utYUWNkqq2TxYihSqIDanSO291msO4snkAAJWIWApoSbtLh0w2+RvUgD9ZW+ZkZLlXg3NiYL+mVhv0xZrZrW1GToft3uc1WCX1lE/e/i/lGKt4Zwkwe/pAIxt7+qLMZu9KUupN/UujDxysnLQATeleOrcXDt+Cj1lCmlym10nhtz4s7wJH0EnyTz3bN8mEVYPdPkRt1PZ6vpJDlHzo2v/T5zKnLnzKGKef36NZq2+SRWm6x7Z0uHGgPbqfMl39rz+5FTPJiqn+RYazTmM5U898qeU2o609jSFcyOSl/o0mZsGjsf/jfvRzmm4ZjukLVuR//aiks7TSeEtYRP+9Yt8FnXTiqTfeNWHRAWFvM+utYUbnnK6HKTScDM2p/bRrsFnLn2yE4B0QXYZC/aEKUb6HaIMLdGLqYy9Gl3ZLeIVdMiJytO6ZsD9T7TeejNBSMZfqTJNlWyXZWxye4kZZt8pxIRr5rSJMaAClM8rMHTHGfD9W1ffTMUR45ZNu6aNWqAvr3eBb90/qwXxZslNyePIYEPTEBzwk2iwSTiU6ZB5CG7d8V3eHLnXARG+T1f+fZK0JgSH4aCR9bEiNdNIt3ExJMni/klSkzMnNiJr3ATT5jsKZk8ZVq148Id2VrLYBG7LJgu1+x7lTFezFxuKFkwLQunRYQeWv+DEnB6k2llydEl3jZZVybRnDGZvKjlBSPrgf6Z3iJC1AoX4W0qobGUWaH5KMj+rbIV0eF1E3DTYApb2ir57HIUa6K2IJPF4dFZjuzZMHvW9EiH/DTrN/y98l3bYmqH7HTQYmofJSYv7zqBI4t1qUjEHF2S4fUL0xuM565WHEVbVlUJdo8s3qIEXATP9KlR+cvmytt25/RV7JppOk+bCEYRjhKA8OjybQTcexzRtbK9VeCDpyqViESvRmeeKT2wYvE82NvbY8wPk7Fpa+SccabOtaZwk+m9hr3+hquHr0osu2/V93h6/10qDFnXJR9BHj7ZdMl1jXb2kPuvdrc/8fzxDYjH2HhbLEmzUaXtjyono7mIZzU92XYyrpxcizM7/4yS61DWvIpwk+AFU1P10oYWgzar5Llyr0uuOcOtqGTtmwhHGaNi5hJ6SzoS+agRk/WZkh5Idl0Rk+2uAp/eVnsDm0oVou+n+PKMbqz0+fwzNG/SEHfv3Ufrjt0iBcREd96saZOQP2+eiEOWLl+FGb9G3TYspvuNv5MACbxfApoTboJH0gvIonv9foMylSkiTqZ29HsaiqdAEt8a51SS8+VBXL75aHW+ZFyXKZrQkGB4ps2tBJ8IoePbZkSZntR3TXyFm6QbkfU9ssWWmKRRePrwCl4EPIBTci+V6V6fokCmqWS6ypTJMWWbDIe8wMSEwbMHVxQDj9TZ1V6O8jKR7YAs8UzKFkKy44OINElt4H/3vEptIN7HhzdPmPQ+ynWFWYXmo5E6U2FVD4l0DXh0Xa0FkoXZ8pIXO7l9ltreK1rB4pkSKxfPg52dXcRhQ0eOxa49sUshUqJtDeSoVESVIYLJ/9YDpEidEim8PbBp3AKT3jLxupXpXA8Zi+XStePRMzy9/QiuningkT41ZP3a09sPsXvmSgT7m95/1jOjDyr3aq48d+ZMAiBOr96DyzFsWN+9yyfo0KYVJLq0Y/fP1Qbi0Zk1hZtcR8ahBAPJeJJ7IuDxdbVHp3xwyBiW8SfjZNu8XmpvVEOTHG9lGw9VG9mrPgh+qjanDw0JVBvFy5gSk4+BHYv6qUTVxib7+OYv30knrGSd4LO7ePrwqvrA8vDOosoRE1EoU6HGyXPlN8N8h7Jlld/FPWqq0zdrCXX/yTpZmQqVsSv5FGWbMLmOsemnZKPjL3sbH1w7waQXP748zV1X9hudPmmcmo4f+v0Y7NprYicZMycP+6Y/albT7b8qtuCvv/Hb7HnRjjH+SAIk8OEJaFK4CTZZ3Fyibn+VYkC/Obx6Ebx+Ab/zu3Byxy9R1qYZ4pYcVKUaDFaRnPoN2uXl9OzRNRzbPC3aCMn4Cjeph3gJxLuVpUBN9QIxTJMgL6l714+o3Q4syXkmno/cpVtHiFYpX6JN/S7sVNnmzW2ZZWr4iZejZN0BcPfO/O7n8HA8uHkc2+b3Nps8VV6uBSp0RrYiDSLVQ17s4hE9vfN3lYTVEuvZrTNaNGusssAfP3kaXw8ephZdx8ZEhMn2UzkrF4nwqCguQS9xZNEWtVm8OZN8brmqFdcFFvzf5DzZour43zuUNy06s3d0QJp8mZHcOyXk/8XsHO3hlckXXlnSqJ0XxA7O24hr+81Hl9ra2mL6pPEoVCAfDh05hv7f6rZ6M2fWFm5yHSlTchKmyV460sbs8sFz59J+FeBjLkrYyTUlClXprj6U5KPKMI2HjMlb5/5VibDFo2fOxHMsSXy90uVRAsvQZMN62Ubt3P7F5j25NjbIWawxClftGSndjkx7ynmydlSeBdU7zoRLilRq9wS9N824TrKFnexN6pzCWwklMRGxEiSh/wgTEbn5z0/Nrn+LD0/j+jg7O2PebzORxtcnVmsh9eWk8vLEqiULIoqNTSBMbO5FHksCJGBdApoVboYY5MErX98y5RIUcN/khuzmsEkaDvdUmXUh/fcvxUrkWKsrpA7y4Jf9UUOC/BEccN/syyPaF7eLhwq8kPU+prwGltZXPBp6pvISC352L1ZbcomnTabQZFr0+RO/WEcLSj093N3h5pYCt/xuW1ptk8c5OCeDm68nHJI5qhQekjjXXMSocQHJkjvDI603gv0DVH43a5gIykq9mqltrwIfPsXaYb9HW6x3Ki/M+WUGJGDjQ09lSZocWXspXreggHuxus9kulI+BuQ+exH4SI3RsDemp6zNClMZ395Z1FSgKiPgnsXbaOk3pZfkuwGPbqr1apHMxgYeqbKoD7e4mOweUk02m7exwd6Vw1WkaUwWH56Ojo4YN3IYShYrikuXr6BHn/4Wp43R1ytv7lz49Sdd4Mnlq9fQpUf0O6vE1B7+TgIk8H4IfBTC7f2g4lVIwDwBWVcnKUVkX3pJ+WGYeNf4rMyl8qJsl/pK+Cz9ckqMEacSLfjDmBGQjcSXLF+Jmb/qEq3SEp5AhtwVlZdN9kaOyWMswUQibCVhtyTuTihTou37YShZvKjaXaPfN0Px6JGRELXg4m1aNsPnn3ZRR46dOBkbt8S8jtKCYnkICZBAAhOgcEtgwCw+aRCQqeJWP/VT6T82jJqDZ7cfmW148dbVIXujPr/3BOtGWCbCsmTOiMnjx0Cmtyb/9DNWrVmfNMB+4FYWqNgFstZOtnPbtdT8vrGyzlP2UZZ1pXuWD1VbwCWUffN1H9SrXRPnL1zCgCHfxSri2rBOE0YNR9nSJeHv/xTN23VCaCyXIyRU+1guCZBA9AQo3DhCSMBKBKp91Ro+uTKqBLsSfPDoym28Cg5RnjVHFye4p/VC5lL5kL1CIXXFE8v/xfmtlq37k+N9fXzwRfcuGD95OoKDg61UaxYTHQHDPG+yHu/qyfVqKYMEFEmEunNyT/hmLYn85Tuo5RoyBbzht44qwjqhLGOG9OjSoS0mTPkJL1/GLdGu5HBbv3Ipkid3xZ/zFqqN6WkkQALaIEDhpo1+Yi01QMDVyw21Bn8CpxQu72obHq6mT/WL2eUHCYL5b8NBnF5repN5DTQ1SVVRdiiRnUoMTfpQn0ZE/3cVlbqwn1prm9gte9YsmPPrDJUnsVlbXb5AGgmQgDYIULhpo59YS40QkOCDLKXzIV3BbHByc4WzW3LAFggJCMbLgCA8unIH1w6cVSlKaNohINGtOYo3hnuqTHBy9UIyF3e8DnmuNp4PenYPN85sVZHgxvnsEmsLJWLZ0cEBb8PDlXijkQAJaIcAhZt2+oo1JQESIAESIAESSOIEKNyS+ABg80mABEiABEiABLRDgMJNO33FmpIACZAACZAACSRxAhRuSXwAsPkkQAIkQAIkQALaIUDhpp2+Yk1JgARIgARIgASSOAEKtyQ+ANh8EiABEiABEiAB7RCgcNNOX7GmJEACJEACJEACSZwAhVsSHwBsPgmQAAmQAAmQgHYIULhpp69YUxIgARIgARIggSROgMItiQ8ANp8ESIAESIAESEA7BCjctNNXrCkJkAAJkAAJkEASJ0DhlsQHAJtPAiRAAiRAAiSgHQIUbtrpK9aUBEiABEiABEggiROgcEviA4DNJwESIAESIAES0A4BCjft9BVrSgIkQAIkQAIkkMQJULgl8QHA5pMACZAACZAACWiHAIWbdvqKNSUBEiABEiABEkjiBCjckvgAYPNJgARIgARIgAS0Q4DCTTt9xZqSAAmQAAmQAAkkcQIUbkl8ALD5JEACJEACJEAC2iFA4aadvmJNSYAESIAESIAEkjgBCrckPgDYfBIgARIgARIgAe0QoHDTTl+xpiRAAiRAAiRAAkmcAIVbEh8AbD4JkAAJkAAJkIB2CFC4aaevWFMSIAESIAESIIEkToDCLYkPADafBEiABEiABEhAOwQo3LTTV6wpCZAACZAACZBAEidA4ZbEBwCbTwIkQAIkQAIkoB0CFG7a6SvWlARIgARIgARIIIkToHBL4gOAzScBEiABEiABEtAOAQo37fQVa0oCJEACJEACJJDECVC4JfEBwOaTAAmQAAmQAAlohwCFm3b6ijUlARIgARIgARJI4gQo3JL4AGDzSYAESIAESIAEtEOAwk07fcWakgAJkAAJkAAJJHECFG5JfACw+SRAAiRAAiRAAtohQOGmnb5iTUmABEiABEiABJI4AQq3JD4A2HwSIAESIAESIAHtEKBw005fsaYkQAIkQAIkQAJJnACFWxIfAGw+CZAACZAACZCAdghQuGmnr1hTEiABEiABEiCBJE6Awi2JDwA2nwRIgARIgARIQDsEKNy001esKQmQAAmQAAmQQBInQOGWxAcAm08CJEACJEACJKAdAmaFW9jb8HBbm3cNyV+6IkJDQ7XTMtaUBEiABEiABEiABD4iAg4ODjh7cHdEi8LeAvZ2NjZKrj18/ibcO4VdxI/N2nfG2fMXPqLmsykkQAIkQAIkQAIkoB0C+fPmxooFcyIq/DDwDXzcHHTCbe/lF+HlsjtH/Pjn/EX4YdoM7bSONSUBEiABEiABEiCBj4jAwD690PWTdhEt2nflJcrncNEJt8lbnoT3q+EZqbn0un1Evc+mkAAJkAAJkAAJaIZA/jy5sWLhO2+bTqv54+taXjrhVnfqrfC5XdLCcLr01u076PfNUE6ZaqabWVESIAESIAESIAGtExDRNnX8aGRIny6iKTJN2nn2PWzom/GdcKue1xXGXjc5Q6ZNN2zZhotXrjJgQeujgfUnARIgARIgARJIdAQkECFX9myoW7N6pOlRfUXF27b9fHBk4SY/9qicEg0KJU90DWKFSIAESIAESIAESCApElh7Kgi/7Hyqmh7J46aHQfGWFIcF20wCJEACJEACJJDYCBiKNrPCTX6QadP2pd0jrXlLbI1hfUiABEiABEiABEjgYyTwKDAMCw8GYNu54EjNE4/b/wDh+LtzuAGC2gAAAABJRU5ErkJggg==;" parent="1" vertex="1">
                    <mxGeometry x="760" y="420" width="222" height="79.23" as="geometry"/>
                </mxCell>
                <mxCell id="TDUVbUfego_RBetQVLJ8-5" value="message.js" style="text;html=1;strokeColor=none;fillColor=none;align=center;verticalAlign=middle;whiteSpace=wrap;rounded=0;fontSize=16;" parent="1" vertex="1">
                    <mxGeometry x="615" y="400" width="40" height="20" as="geometry"/>
                </mxCell>
                <mxCell id="TDUVbUfego_RBetQVLJ8-6" value="index.js" style="text;html=1;strokeColor=none;fillColor=none;align=center;verticalAlign=middle;whiteSpace=wrap;rounded=0;fontSize=16;" parent="1" vertex="1">
                    <mxGeometry x="851" y="400" width="40" height="20" as="geometry"/>
                </mxCell>
            </root>
        </mxGraphModel>
    </diagram>
    <diagram name="02 - systems" id="PKxFeMCMx3devdj5S5_p">
        <mxGraphModel dx="527" dy="325" grid="1" gridSize="10" guides="1" tooltips="1" connect="1" arrows="1" fold="1" page="1" pageScale="1" pageWidth="1920" pageHeight="1200" math="0" shadow="0">
            <root>
                <mxCell id="cXQr_KaoT09jKe3QflBE-0"/>
                <mxCell id="cXQr_KaoT09jKe3QflBE-1" parent="cXQr_KaoT09jKe3QflBE-0"/>
                <mxCell id="cXQr_KaoT09jKe3QflBE-2" value="Javascript Module Systems" style="rounded=0;whiteSpace=wrap;html=1;fillColor=#dae8fc;strokeColor=#6c8ebf;fontStyle=1;fontSize=19;" vertex="1" parent="cXQr_KaoT09jKe3QflBE-1">
                    <mxGeometry x="560" y="260" width="390" height="40" as="geometry"/>
                </mxCell>
                <mxCell id="cXQr_KaoT09jKe3QflBE-3" value="There are several different module systems" style="rounded=0;whiteSpace=wrap;html=1;fontSize=16;" vertex="1" parent="cXQr_KaoT09jKe3QflBE-1">
                    <mxGeometry x="560" y="310" width="390" height="50" as="geometry"/>
                </mxCell>
                <mxCell id="cXQr_KaoT09jKe3QflBE-8" value="common js" style="rounded=0;whiteSpace=wrap;html=1;fontSize=16;fontStyle=1;fillColor=#f5f5f5;strokeColor=#666666;fontColor=#333333;" vertex="1" parent="cXQr_KaoT09jKe3QflBE-1">
                    <mxGeometry x="680" y="380" width="150" height="30" as="geometry"/>
                </mxCell>
                <mxCell id="cXQr_KaoT09jKe3QflBE-9" value="AMD" style="rounded=0;whiteSpace=wrap;html=1;fontSize=16;fontStyle=1;fillColor=#f5f5f5;strokeColor=#666666;fontColor=#333333;" vertex="1" parent="cXQr_KaoT09jKe3QflBE-1">
                    <mxGeometry x="520" y="380" width="150" height="30" as="geometry"/>
                </mxCell>
                <mxCell id="cXQr_KaoT09jKe3QflBE-10" value="ES Modules" style="rounded=0;whiteSpace=wrap;html=1;fontSize=16;fontStyle=1;fillColor=#f5f5f5;strokeColor=#666666;fontColor=#333333;" vertex="1" parent="cXQr_KaoT09jKe3QflBE-1">
                    <mxGeometry x="840" y="380" width="150" height="30" as="geometry"/>
                </mxCell>
                <mxCell id="cXQr_KaoT09jKe3QflBE-11" value="define(['dep'], (dep) =&amp;gt; {});" style="rounded=0;whiteSpace=wrap;html=1;fontSize=12;fontStyle=2;" vertex="1" parent="cXQr_KaoT09jKe3QflBE-1">
                    <mxGeometry x="520" y="420" width="150" height="30" as="geometry"/>
                </mxCell>
                <mxCell id="cXQr_KaoT09jKe3QflBE-12" value="require()" style="rounded=0;whiteSpace=wrap;html=1;fontSize=12;fontStyle=2;" vertex="1" parent="cXQr_KaoT09jKe3QflBE-1">
                    <mxGeometry x="680" y="420" width="150" height="30" as="geometry"/>
                </mxCell>
                <mxCell id="cXQr_KaoT09jKe3QflBE-13" value="module.exports" style="rounded=0;whiteSpace=wrap;html=1;fontSize=12;fontStyle=2;" vertex="1" parent="cXQr_KaoT09jKe3QflBE-1">
                    <mxGeometry x="680" y="460" width="150" height="30" as="geometry"/>
                </mxCell>
                <mxCell id="cXQr_KaoT09jKe3QflBE-14" value="import a from 'a';" style="rounded=0;whiteSpace=wrap;html=1;fontSize=12;fontStyle=2;" vertex="1" parent="cXQr_KaoT09jKe3QflBE-1">
                    <mxGeometry x="840" y="420" width="150" height="30" as="geometry"/>
                </mxCell>
                <mxCell id="cXQr_KaoT09jKe3QflBE-15" value="export default 123;" style="rounded=0;whiteSpace=wrap;html=1;fontSize=12;fontStyle=2;" vertex="1" parent="cXQr_KaoT09jKe3QflBE-1">
                    <mxGeometry x="840" y="460" width="150" height="30" as="geometry"/>
                </mxCell>
            </root>
        </mxGraphModel>
    </diagram>
    <diagram id="m5FreP-KnGYpWnso48t7" name="03 - transpiler">
        <mxGraphModel dx="429" dy="265" grid="1" gridSize="10" guides="1" tooltips="1" connect="1" arrows="1" fold="1" page="1" pageScale="1" pageWidth="1920" pageHeight="1200" math="0" shadow="0">
            <root>
                <mxCell id="VzmPmPzARorLEq3jdRYD-0"/>
                <mxCell id="VzmPmPzARorLEq3jdRYD-1" parent="VzmPmPzARorLEq3jdRYD-0"/>
                <mxCell id="15YQ2KVUdCuQtWf-Lb-M-0" style="edgeStyle=orthogonalEdgeStyle;rounded=0;orthogonalLoop=1;jettySize=auto;html=1;exitX=0.5;exitY=1;exitDx=0;exitDy=0;entryX=0.5;entryY=0;entryDx=0;entryDy=0;fontSize=12;" edge="1" parent="VzmPmPzARorLEq3jdRYD-1" source="15YQ2KVUdCuQtWf-Lb-M-1" target="15YQ2KVUdCuQtWf-Lb-M-3">
                    <mxGeometry relative="1" as="geometry"/>
                </mxCell>
                <mxCell id="15YQ2KVUdCuQtWf-Lb-M-1" value="import React from 'react';&lt;br&gt;&lt;br&gt;export default App;" style="rounded=0;whiteSpace=wrap;html=1;strokeWidth=1;spacingLeft=5;align=left;" vertex="1" parent="VzmPmPzARorLEq3jdRYD-1">
                    <mxGeometry x="730" y="250" width="230" height="60" as="geometry"/>
                </mxCell>
                <mxCell id="15YQ2KVUdCuQtWf-Lb-M-2" style="edgeStyle=orthogonalEdgeStyle;rounded=0;orthogonalLoop=1;jettySize=auto;html=1;exitX=0.5;exitY=1;exitDx=0;exitDy=0;fontSize=19;" edge="1" parent="VzmPmPzARorLEq3jdRYD-1" source="15YQ2KVUdCuQtWf-Lb-M-3" target="15YQ2KVUdCuQtWf-Lb-M-4">
                    <mxGeometry relative="1" as="geometry"/>
                </mxCell>
                <mxCell id="15YQ2KVUdCuQtWf-Lb-M-3" value="Transpiler&lt;br style=&quot;font-size: 15px&quot;&gt;&lt;font size=&quot;1&quot;&gt;&lt;span style=&quot;font-weight: normal&quot;&gt;Babel!&lt;/span&gt;&lt;/font&gt;" style="rounded=0;whiteSpace=wrap;html=1;strokeWidth=1;spacingLeft=5;align=center;fillColor=#dae8fc;strokeColor=#6c8ebf;fontSize=19;fontStyle=1" vertex="1" parent="VzmPmPzARorLEq3jdRYD-1">
                    <mxGeometry x="730" y="330" width="230" height="60" as="geometry"/>
                </mxCell>
                <mxCell id="15YQ2KVUdCuQtWf-Lb-M-4" value="&lt;div style=&quot;font-size: 12px;&quot;&gt;const React = require('react');&lt;/div&gt;&lt;div style=&quot;font-size: 12px;&quot;&gt;&lt;br style=&quot;font-size: 12px;&quot;&gt;&lt;/div&gt;&lt;div style=&quot;font-size: 12px;&quot;&gt;module.exports = App;&lt;/div&gt;" style="rounded=0;whiteSpace=wrap;html=1;strokeWidth=1;spacingLeft=5;align=left;fontSize=12;" vertex="1" parent="VzmPmPzARorLEq3jdRYD-1">
                    <mxGeometry x="730" y="410" width="230" height="60" as="geometry"/>
                </mxCell>
                <mxCell id="15YQ2KVUdCuQtWf-Lb-M-5" value="ES Module Syntax" style="text;html=1;strokeColor=none;fillColor=none;align=left;verticalAlign=middle;whiteSpace=wrap;rounded=0;fontSize=8;fontStyle=2" vertex="1" parent="VzmPmPzARorLEq3jdRYD-1">
                    <mxGeometry x="960" y="255" width="90" height="50" as="geometry"/>
                </mxCell>
                <mxCell id="15YQ2KVUdCuQtWf-Lb-M-6" value="Common JS" style="text;html=1;strokeColor=none;fillColor=none;align=left;verticalAlign=middle;whiteSpace=wrap;rounded=0;fontSize=8;fontStyle=2" vertex="1" parent="VzmPmPzARorLEq3jdRYD-1">
                    <mxGeometry x="960" y="400" width="90" height="50" as="geometry"/>
                </mxCell>
            </root>
        </mxGraphModel>
    </diagram>
    <diagram id="l_LGy8pUn7SoSQruLH9J" name="04 - bundler">
        <mxGraphModel dx="601" dy="370" grid="1" gridSize="10" guides="1" tooltips="1" connect="1" arrows="1" fold="1" page="1" pageScale="1" pageWidth="1920" pageHeight="1200" math="0" shadow="0">
            <root>
                <mxCell id="JKHl1Gpe-J6DN88gJ6Rg-0"/>
                <mxCell id="JKHl1Gpe-J6DN88gJ6Rg-1" parent="JKHl1Gpe-J6DN88gJ6Rg-0"/>
                <mxCell id="JKHl1Gpe-J6DN88gJ6Rg-7" style="edgeStyle=orthogonalEdgeStyle;rounded=0;orthogonalLoop=1;jettySize=auto;html=1;exitX=0.5;exitY=1;exitDx=0;exitDy=0;fontSize=20;" edge="1" parent="JKHl1Gpe-J6DN88gJ6Rg-1" source="JKHl1Gpe-J6DN88gJ6Rg-2" target="JKHl1Gpe-J6DN88gJ6Rg-6">
                    <mxGeometry relative="1" as="geometry"/>
                </mxCell>
                <mxCell id="JKHl1Gpe-J6DN88gJ6Rg-2" value="" style="shape=image;verticalLabelPosition=bottom;labelBackgroundColor=#ffffff;verticalAlign=top;aspect=fixed;imageAspect=0;image=data:image/png,iVBORw0KGgoAAAANSUhEUgAAAkwAAACKCAYAAABYShVDAAAgAElEQVR4Xu2dB3hURReGTxISSiChhBo6gdC7dBCp0qUqVXoRpFepAgoihiJSRIrSUaSjICJFQIpIL4ZeJdRAQkkI+Z9v8t9lk2zLFkJ2v/M//6Nm5869551J7rdnzpxxExoJkAAJkAAJkAAJkIBJAm71p1+NNtSiVmFvKZcnpRTI7CUZvD3E3Z0kSYAESIAESIAESMC5CES9FLkXHiXBtyPk4KWnsv10uEEH4wkmCKV2FXwlYxoP5yJCb0iABEiABEiABEjADIGQx1GydH+o/H4mtnCKJZh6Vk8njUqkJkwSIAESIAESIAEScGkCG46GybxdD3QMdIKJYsml5wWdJwESIAESIAESiENAXzQpwYRluAG108cDteCHZbLlt+1yLviCREZGEiQJkAAJkAAJkAAJOBUBT09PCcwfIPXr1JQu7dvG8y1o2321PKcE06LO2SSTXs7Stes3pP+IUXLy9FmngkJnSIAESIAESIAESMAYgWKFC8m0yRMlh382XZOQRy+k06Jb4ha07V503OhS83ad5OQZiiVOKRIgARIgARIgAdciANH005KFsZxGlMntz+An0ZUDUuo+wDLclBmzXIsOvSUBEiABEiABEiCB/xMY2v9j6dK+jY7H3vNPxC3k0Yto/RICjC5xvpAACZAACZAACbgygbhRJizLuUVFRUfrF6UsWqEaE7xdeZbQdxIgARIgARJwcQJeXp5yYv9uHYWol9HiFh0dHavSd2CZii6Oie6TAAmQAAmQAAm4MgE3Nzc5e3ifDgGEEgWTK88I+k4CJEACJEACJBCPAAUTJwUJkAAJkAAJkAAJmCFAwcQpQgIkQAIkQAIkQAIUTJwDJEACJEACJEACJGAbAUaYbOPHq0mABEiABEiABFyAAAWTCwwyXSQBEiABEiABErCNAAWTbfx4NQmQAAmQAAmQgAsQoGBygUGmiyRAAiRAAiRAArYRoGCyjR+vJgESIAESIAEScAECFEwuMMh0kQRIgARIgARIwDYCFEy28ePVJEACJEACJEACLkCAgskFBpkukgAJkAAJkAAJ2EaAgsk2fryaBEiABEiABEjABQhQMLnAINNFEiABEiABEiAB2whQMNnGj1eTAAmQAAmQAAm4AAEKJhcYZLpIAiRAAiRAAiRgGwEKJtv48WoSIAESIAESIAEXIEDB5AKDTBdJgARIgARIgARsI0DBZBs/Xk0CJEACJEACJOACBCiYXGCQ6SIJkAAJkAAJkIBtBCiYbOPHq0mABEiABEiABFyAAAWTCwwyXSQBEiABEiABErCNAAWTbfx4NQmQAAmQAAmQgAsQoGBygUGmiyRAAiRAAiRAArYRoGCyjR+vJgESIAESIAEScAECFEwuMMh0kQRIgARIgARIwDYCFEy28ePVJEACJEACJEACLkCAgskFBpkukgAJkAAJkAAJ2EaAgsk2fryaBEiABEiABEjABQhQMLnAINNFEiABEiABEiAB2whQMNnGj1eTAAmQAAmQAAm4AAEKJhcYZLpIAiRAAiRAAiRgGwEKJtv48WoSIAESIAESIAEXIEDB5AKDTBdJgARIgARIgARsI0DBZBs/Xk0CJEACJEACJOACBCiYXGCQ6SIJkAAJkAAJkIBtBCiYbOPHq0mABEiABEiABFyAAAWTCwwyXSQBEiABEiABErCNAAWTbfx4NQmQAAmQAAmQgAsQoGBygUGmiyRAAiRAAiRAArYRoGCyjR+vJgESIAESIAEScAECFEwuMMh0kQRIgARIgARIwDYCFEy28ePVJEACJEACJEACLkCAgskFBpkukgAJkAAJkAAJ2EaAgsk2fryaBEiABEiABEjABQhQMLnAINNFEiABEiABEiAB2whQMNnGj1e/JgJjG06VZO7J5JdT62TfhZ2v6a4iefzyy7tFmkj2tLkkg7efhEeEy/3wu3L61jH58/wOuRN2+7U9iyU3ale+m/ilzmyw6dzdU+VZ5DNLunkj2+QNTC8N3i+knu3UP7dlx8bzb+Rz6j9U8pTJpPuQ8gaf8+7tcFkx76hZH/IWzCANWhU02O7YgZuye+sls304W4OPRlaSzNlSy69rzsn+HVeczb1E96d1j5Lil9lbPcei6Ycl7NHzRH+mN+EBKJjehFHgM5glMKXZXMnsk03WHV0ha4+uMNveHg1alu4gDYu30HUVLdHiJm66/x6/ebBcuPOvPW5ltz4mNpkpOdLlNtjfR8vbSHhEmN3u9bo7KlQikwye9La67W/rgmXlt6bFRoqUyaRA0Yyq/cVz9yTsUYTBR86YxVuy5vCR6OhoOXH4P7u6lSq1l3y9uonBPq9fCpWxvbeZvV/pSv7Se1Qlg+22rw+2SHSZvUkSazB7TVOBGP3h679l1y8Xk9jTO/ZxM2VNLVmyp1E3OXfijjx/9iLBNxw25R0pUNRPXden5Tp5Gh6Z4D6c8QIKJmccVSt8SpPCVzKnySpubiLBIWet6MGxl7xuwVQ2V0X5+J0Ryqnfz26Rg5f/lPN3zkn6VBkkV4Z84uedUUW73jTL4uMvXsm8dI+VP1Mh6VChp/pvawSTu5u7ZPH1lwzeGeXi3WAJf/440VzOFZBOxsyspe6/ftkp2bDstMlnyZ7bVz6dXUe1mTpil5w5FmKw/bvNA6Vll+Ly4sVL6dF4jV39c3d3E//cvrH6rNUkv1SpnVssFUwpvT113/a1jroOLifwL6kLJkQx8P+H95/Kf9ctn1sUTManad3mgdKqS3HVYETXXyTkZsK/JPUdV0VKlMuqvkR0a/iTREfb9dciyXZGwZRkh86+D96r2mCpkLeaHL12SKb9PsG+nduht9ctmHq9PVgq5Kkmd8NCZMia7vIy+qUdvHj9XRTzLy2Da4+zWjBBgH3RbI66fuzGgXL5XuItg+Gb86QF9dSzILqEKJMpexMEk6Hna9GpmNRrWdBiwWSoj5HTagqWKJO6YApa2kh806eQ1d8dk60/Wx6tpWAyPvNrNc4vrXuWVA2Gdtws90KeJPgPDwR5xRq5VGQJESZaDAEKJs4ERYCCKfZEmNx0jmT19ZdfTq6VlYcXJdlZ4kyCKbWPl8xYGbO8tTDokOzdfpmCKYkvyVEw2f9PyzsN8km73qVVx4Pab5KH954m+CZtepWSmo0ClNiC6KI5kWDycPeQqJdRiT6mWL5ACBP/s8Yc4QcSpV+8NL+G/aYJprgsrIkw2cJzaov5kjF1ZtlwbJWs+WeZNcOprvHy8JKIKMO5M1Z3moALnUkwuXu4yfyNMTllsybsk3/230hUwYTneRmV8N/1Ny3CZK0fCZiGRps6QjDZ4o9HMneJemHfaHIyT3d5EZmwPm3xoWrdPNKxX1nFvH/rDfI4NOEJ203bF5WGrQvJtYsPZVyf3+wx1E7RR5KNMJXIXlYq53tH8mUMVPkVtx5dl0t3z8v6Y6vk9qObRgfnwwq9xD9dTnkW+VS+2TlFnr+Iv2uoQbHmgv4joyIFO4seP3sUq7+WZToIckPWH1spp24ek2r5awtyXgIzF5Goly9UIvBfl3bL3gt/mJ0kudLnlVqFGkpev/ySLW0OefQsVC7fPS9Hrx+SP879avT65MlSyKDaY2N9Pm37BHka+USQj9SoeEv1TOm9/eR55HM5ceNvmbXzC137ZB6eMrTOeN1/Z/PNrq5Djsr1h1dj9Xvt/mVZcmCeWV9sbVA4a3F5J/BdKZC5iKROnkauP7gsR68fVqJl0nvfWJT0ndIrlTQq1lKNT26/AHkRFSmX712QI1cPyPYzmywWs9YIJoijkjnKCURKgcyFJF2qDIJxwpjcfnRL5UFtO71RIk0IKG1unb55TNYdW2kQaY9qA9Wc3xO8Xfac/90kdmsEU43Aemp5VhN82CkIu3L/ovq90bflB79TfF+Xzf65qSRPkUymDN8p547fea2CCX8s8a27aNkskqdAekFSOV4owafvyvqlp+TZU/NfTPDAiS2Y8DKu814BKVQyk+TOn15SpEomNy6HyuXgB7Llx7Ny979whw0nlhGRL6YZdgAmS+Yud/4Llwd3Yy8d7fv9iuwxsgMw7pIclo/KVPaXgMJ+gkT7O7fC5I/NF+T3DefVl1hTli2nj9R+L7/kDcwg2XL5SOj9Z3L5/APZufmCnPzb+CaA/EX8pNmHRXVdwwdEPmFYDm7ctogEFvOT1D7J1S6zLavPGl12tNfcwr0r1cwlXQaVU8/xcct18sSKhG0tDwpJ41OGWbcr2dPTU/LmziXnghNvGd/eEznJCSY8cPNS7dTuJexYQjQn7NljSZPCR7HBH/T5f86Qw1f2GWSVO0M+GdPgS/HAFnUDyy050+eRcQ2DBNGJVYcXy5aTP8frZ0DN0VIyx1uy/NACyZQmi9Qq2EC9mMMiwiRtynS69j8dWSIbj/9odMwg+DpW6q2iEDCIlVReqdU6KezQ5b3y3d4ZBreCQxjMbRP7hTp6Q38Je/5IRtabLH6pM8W677nbp+TzX2KSmGG45/z2P1k0n3YHb5cFe2da1NbaRlXz15JOFXsr7rDHz0IllZe3GqfgkDOKs2/KdCZ3yfmnzSn9anyihBUMQgURNs//8z12/bDM2x1kcKdYQMaCUi1/TEIxrHyeqpLCM6VcvX9RCXF9O3h5r5y8+U88VyGOvv7gByWSYJgTEOTeyWN2rMAg5sduGihPIwznFWhz66+Lu2XO7qkGcSYk2maNYGpVtqM0KNrMoqEc8GNnVWbhdRnERopUnurlc/+O6dwMe+YwpfL2lG5Dy0vxt7LGjO2LlxL5PEqQkK3G9cZj+WbifrlxJdQsisQUTGl8k0vPERWkYPGYvw+IpkTo+REeFiHzpxyw+25BDUqxslmk//iqZhmhwXdTDxotGaAJpuVz/5HsedJKtbp5lB/hjyMknV9KXf8blp9WYtaYlamcXboMfEvtuINB2Hin8VJ/g6Gztqw+I2t/OGkw6blUhWzSZ0xlXddavk/hUpml37gqgsiSvhl7FnvOLdyv3Ns5pMewCurWHzVfK88tFPL6zwoxWL56TjWf/9iU8C9EJYsXk4ljPhFfXx+5dv2GfNR/iDwMNf+7YdHESMRGSU4wvVeytTQt2VotM63++3vZ9e9WJSh8U6aVVmU6SpWAGuqzYT/3VAm7hqxJifelWam2ahlv7MYBcu1BTC4EYIyuP0VFrSAwJv36icFvJ9pL7WlEuHglS66E085zW9V9IVQ+fme45M4QoPqcsHmonL8Tf9dZ0WylZEidT1WbA5f2qDwZvHjwkq6Ut7q0K99diYe9F3bIt3umx3MDYhGiCdavxkgpmKWofP3HZGlUvIW6N/qE0Mntl0+wPR4Rlhk7PovVD5hp9mHFXlImZ0U5efOofLsnKFY7vPQdWb+nQObCSuTBwH3+numqvlEKzxRSzL+MdK7UR4knmLGyAt5eqeXLFt8K/nnhzjlZuG+W3HhwVdzd3aVI1pLSrWp/8UnhKzv/3SqL9n0Tj2flfDWke9X+Fv0qztn1pfx1aY/BtojOPI18Kmf+Oy4Pn9xXbSCgquavKW3e6qrG1JQAfRMEE7hrog9CdVT9KcqPL7eNlWsPYtf8CX360CJmidHInoJp6OTqElg8o4o+LJ55WE4dua3EBiISXQaWk9z508mta49lTK+t8vKl6YhGYgqmT76qIfkKZVBRhwVfHVR+vIiMUtvQOw94SxDxwfOP7P6rVburzI0zokmIAGn26eza4pM2hdrxiIiQvj0Ji1DC1JBpggliAM8L4fTXH1fVvyNihByewGIZlYjq98F69c+4hvHEuML2/nZZ1iw+IaEPninxBAHWsksJ8fBwk2+nHJADO2NH3XENlu+SJ4/5gjdjVRPBjsjRvbbKqKCaSiz98tM5OXHolrzbIlBKVfQ3ulHBnnMLzwIR+NHIiuq5ejRZk+DlQHNjaMnnk8aPkSoVX9Ufm/PdIlm+yrIv6Jb0n1htkpRgwpLR1ObfKlHx/V9zZMfZX+Jxw44gfKtGUcH5f8YXGmqiu3vIqPpfSF6/AurlOmHLUCWMEClqX6GHikyMWt/XqODSXmrYOYVlvbjRLDzn9JYLBcteu/7dpl7ecQ1RLgiz07eOy5Sto+MtFdUu1FCJJtxj+NpeaknHmA2rO0EKZy2hlkywxAcBt/XUetW8eoG60qlSb7V0892fM4z2kZg5TANrjVFLoCGP/5NP1vWJt2SVM31eJajwIjcmmFqV+VCwlAqRPHztR/H6QARpdIMpSiSPWNc73rItIoNYqtWsR9WBKqK17+JO+TPOstfluxesqmf0QdlOUq9oUwl7/lh6r2hrcCzeBMGk/2Bv0i65hP6R1BdMiFZcOHvPYBfV3s0r9VoEGi0rULRMFhkwoap6GY/r/Vu8KBJesFMWNRAkpVuSjJ5YgknzAxCwzILlFn3zSu4hn8+vpyI0SKjXlpcSyj0h7W3NYUJU56tRu+XSuZgvJ5rpR1nG9NpmMPI3MqiGEoiH9lyTuZP+ivfY9VsVlOYdi0nIrTAlIE3lq83f1EIJpqsXHirB9sWwnXLx//Ot+9DyKlqzIOiQ7IuzUcHecwtOlCifTfqOjYl8dW2AkgAJz7NLyBgaajtmxBCpXSNGjMKCvp4tazck/eTxJCWYWpRur3JzEH0YuqaHwa3ehbIUk+HvfqY+67a0pVoWMWTYATW+8Qy1NAXxhQjM5KazJaVnKhXRQWTHmGkvNSyZ6ecF6bdH1Kd0zvJKfPVc9kGsrpDr9Em9SepnM3Z8Lkeuxv9lhSic0ep7JRJ+O7NRlh6Yb/R5NMGEBv9cOyjTf5+oa6sJpl9PrZMVhxYa7SOxBFNmn6zyRbO5anl15aGFRmsbmVqGQqRtZqvvVbQPS4eI4BgyMAf7DcdXy5ojS03+TbAmh8ncH5lSOcpJ/5qjVLO+qzqIoegMBZM5ipZ/ri+YLLnKWB2mEV/VkIBCGdTyEISXIWvSrog0blNYzp++K5MGm85dTCzBhKKfKP5pKpG3Sdsi0rhtYSUOB7bdaFXCsCWsdS9SG8sKrJh7VLZviF9eAlGracsbqdt8NXK3nP4ndkV+LJsN+iwmT2945y0qhyquQQhPX95YICQN9aHfXhNM+Nmq+cdk29pXJRI0wTTz072Cyuz6Zu+5hb41EQahBMGUGBaYP0DGjRwm2f2zybETp2TY6E8lPNxxuXGvy8ckJZiwhIWlLHzrRy6KIdPP7RmxtrfcDL1mlKUWxcHS2oW7wVI0W0mVN2RMBGkdWfJSq1+0mbxftqO6pNfy1vIk4tVkqVWogbQv30N91n1pK4OJ5/hsWN2JgkRoHMPxxdbRRv3QF0xjNvRXkSbN0qZKL1l9/FXkxdQxHoklmPQLRCK6dCNOwrnmhynBpEWP0Hbozz2MRuPalOsqdQs3VsnXiAyaMkcIJiybjnj3c3XbwWu6y53H8RNKLZlbjs5h0ufiLBEm5DsZWpaBr8hZQW6PIcGEP5Bz1jYVTy8P+X7GYaPHkGj5LI8ePpcBbTaYnFuJJZhQkgFRsK1rzsnqBccNPiOqO6PKM2zykD8k+JRj89NsjTAZq/SNMZ25KqYExbTRe+Ilb2vRowf3nsrg9puMjtfYWbUlZ960svSbI/GWDPUv0gQTdqShP/2lREScIOCuXnwoWGbUzBFzC31rFfGxMw9Lcoll8C9TRj+5HWJ6c0ZiPZ81901SgumrFt+pHCG88P6+st+ov12r9FOJvijAiEKMxgxRjaF1x6vlLBhyTj5Z/7HZasaWvNSQxNy1cl/VL5bUboW+2gLd5q0uUrdIE5UX1GNZK6PP17PaIKmY9231YsUL1phpgglFBVFc0BpLLMFUr8h78sFbndUjm6pEbUokIG+tW5X+Kqo4D/lXRkLQJbK/JZXyVVfFF81xskUwZU+XSy2FIgkdO+XSpkonHm4egrITWKaFUTBZM0sTdo09cpgyZEolUxY3UDdGdXFj1ahRrRrLN2oem0m0TQzBlDKVp8z66T31fKaKROJ8ts+/iykOairpOmEjYbx1Ygkm5GtVrp1bLdVtWnnG6AOiCjwqzKOoJrgZM00wmWunf70j5hb610Qv8rswF2n2I5BkBBMedFGHdbodZJYgQM6OuW3XjYu3kual26nusCNq3KZBZms6WSKYSuesoHZswSZuGaZ2emnWp/oweSt3ZRXxGfxTN6Ou4CDV2oUaqWXFLkuaG22nCSZbdrMllmBqW66r1CncWJVj6PyD8Z1ZpgSTthHAkjmBNoi2Dfqpq8nm1ggm5MZ99PYQKZsr5twvlKMIeXxLHj59oOaUTwofKZgl5qVKwWTpaFnfzh6CCYnDQ794lYthydMM67RFcLCuMUsMwYTk9Alz6qpHQrI3tuwbMv2z75AEjd2IjrTEEkxaorWlvpnL6dIEU0JEpiPmFvxB6QZUgseOx76tYnJZafYhkGQEE9yd9cESVSsI28ORLG3Ojl0/FCuyE7c9IgGfNgwSNzd3lSSMvCHUcfrZTKFCSwSTFvXAPeNGmDpW/EjVGzKV/IvrECmrGlBT7Z7D9m1jlpQFE3Y8QvAof5e0MFqjyJRgqlmwvjovDRGm1YcXmy0bigNoUcPIlFkjmLpW6StVA2qp3ZIL986Svy7tiiW+uSRn7jfWvp/bQzBhOWXC3BihgZo+poSQ9vQ4DNbUgaeJIZh806WQoGUxOT3L5vwjOzYaro2jH/VYPOOw0TpI9hqpxBJMvUZUlLJVs6tyEDu3mD+89/rl0Hh5UPoMrBFMjphbeCa/LN6CwpNPn0SqpUSa/QgkKcGEnW0oSGhLJEVDh/o84xoFqZPdN59Yo6I9EDJ46aIUwMW7xs81skQw6ecwxc1T0j5DDakuPzQzGtEaVHucFPcvrbba69dQijv8SVkwVS9QRzpV6qNcGvhjF7kXbni925RgQu7ZkP8X4bRXXaCECiYk589ps1Itu639Z7nBopMUTPb7w2VJT/YQTNgePnddMxXZTkj0wNTzJYZgwvPMWdtMJTBvWnFG1i45afARtegEPvxy+C45e9xwaRZL+FvSJrEEEwpONni/kEr2RtK3rWaNYHLE3LLVD15vmkCSEkzaN/jrD67IyPUf2zS2SMiGcMF2/VHrP1ZVvUfU+1ztokK+0ZgN/YweaWGJYMLSDIofogBjn5XtYz0rlmxQqwmGJcBLd+Pv8sCLd1rLhYKkbWOlCbRO7SmYEL0L2v6qArhNkC24WL+wIupEYbeiITMlmFD1OqjlAnXZ139MksMm8tsseCTVJKGCSV8MIUEfifpxLSGCyVRiemIlfY/bNDBeEU9LeSZGO3sIJjz3Fwvrq2/tiDCh3o+tlliCafycOuKfy1eOH7olM8b+adAN/XPIBnfYJA/uJvwcsoTw0QmmBcdVMrqlZu7wXXNJ31o1bKQ79m+9XsIe2XZ8kTWCyRFzy1J+jm7n7uYm5cqWkVIlislvO3bK+Yux67c5+v6O6j9JCSYUZBzX6Cu1BX32ri9VcUZrDC+u4XU/U98aJ/86Us78d0J1gx1BE5vMUAnj289sNnociCaYkJeE4pZxz7FDZeeZrRarBN+tpzcIjo/QN5QywAsZdX6MFVLU34Ju7kVlD8GkVXeGwOu3uqPZPC5ruBu6RiXnt1yoKrX/fXW/zNwRU25B35CUj2NgEBU0VocJ2/XBDGJ6zMb+Nj9/QgUTakVNaBxT98tYeYQaBesJjuaBDVnTXdWdimvaMqyxPKvi/mWkX82RJlno94mILCKzMNSnuhV6PUFDhwKW89quUr8rKG2BEhdJxewlmOo0LSDvdyshERFRMrrnVpuPDmn4QSFp2qGoOhR1cIfNVtXJwZZ4bI0/uPuazJscvyyJoTHS/EDJAORZGaqUPmZmLZXkfPzgLZkxzrCosuf4j5pWU/IEppcj+27INxMNn85g6H62CiYcrzNpQT3BUuXOLRdkySzblq6sFUz2nltghd/VIqUzy6MHz9TOvMSw5k0aSf8+PXW37tSjj1OIpiQlmEBfi9zgGJHF+2cLjqnQDFGZinmryzuBdVVV67hnwKEdyg5MbDxT7bbbFfybLNz7daz5hDpPqPeE5bIvt41RZ8XFNU0w4eeoe/Ttnmm6sgGo4zSg1mgVqUIdDGxzN/RixPZ2bHPHEuD3+2fLzn+36W6D41kG1RqrokvY5YfdfqbMHoJJf3s/juTA0RyawScIGkN+2OOXEZXIcdQNmC/eBxZbdd2CIwpbIr8MZkwwYUfaxCYz1ZIYIkyYGxB/muEgXeRK4czBTcfN1yZJqGCCOJ7depmqkI2IIRL99Q89xq5JVCzH88EQxUM0L641LNZCcJ4cbPzmIaqwqmaIWHavOkCJJVMs9PvE2M1pu0J9yUChV9Qc0wzV0/XLXRgby8+afC3I90O5CvgV8eLVYZ4Qitgs8SaavQQTlk5Q0BH5PchlWTD1YKwXEXag1W6aX50fNufz/cY2aeoQ6RcWhNiB6NGNibenRWd/QcDhZYvt6yO6/KITP/iDjjPukL8S17y8PGTyovpKJODcuBlj9wjKIMBwXeueJdVZebAJ/barNo62Nj1LSc3GAaoaNYpD6ueIgTfO58NxJ3HNVsGE/qrXzyft+5RWf6dxbMnmVWdjHbyL3WbvtSsq65aekn9Pmt4ab61gsvfcgl+d+peVKnXyKGT2WkZO6DyYM2OqFC1cSHfZqp/Wyqx5sQMHCe3zTWif5AQTojK9qw9VggSG3KObD6+pw1pxeC1eELAfj/xg8MWIFw7OcAt9+kB94477wsBOp08bTVO5TUi2xtJf3DaaYMILOXVyH/Wiv3Lvgjx/8Vzy+AWolyZ+tvLQIkHBSEOGyAqepVzumIqsECM4dgLLS7g3zlC7ev+SKkJpKK8HOTPakRUZU2dRBS6RzKyd64WyC2uPrrB4jsWUWEDF8JiDMfHSv//knvimSCsQcHfCQmT0hr42R24MPRDGDjW2tONk8ALGyxl+ISVrnrYAAAp7SURBVBr499W/1Bl9qIxuTDChXxyCjErtiODhpY4jb5BYn9U3u0AwYbLjcGOIWGNnuWnPl1DBhOv062uhtteRawdU6Ygi2Uqo6CVqfPmkTKvmLs6Uw1EjcWtj4fiWKc3nqXmMORR8+4yqJYZaUxAtONAZx7/gLENTLPQ5I6qF6BYMxTJRVgHPk8kni3yqloRNH46JnX3D352oRBfm/CUcthsdLVl8/dUZf3EFtsWTzsEN7SWY8JjI7en1SUVJnzGVKup48+ojFWnCUl0W/zTqKIyoqGiZOmKn/HvSdO0iHA8yanpNyZE35mgilCqAUMiZL614eLirgpHGjgTRkGXKmlrGzaqtjvHAfa8E35fIyJcqOvTviTtGo0OISvUcXkHVnkJi+pXzD5W4wtEuEFLw7ccFx2MVXnTkMKH+1fg5dcUnbXKJjIiSi2fvy5MnkUqc5sjjK7t/vSSotRTX7CGYcAhxmx6l5J2G+VT3OEcOlbrd3N1UtW7wgOH4mKBRr75Aas+C8/ha9yip/jN7Hl/1T0TtnoTFiNWfvz8hxw4aP6FB68eecwt9asuc+Hcc6YKjXV63jR4+WOrUjKnnBVuyYrV8u/D71/0Ydr9fkhNMIIBv6Y1LvK8OS4XA0AxLY0jWXnt0ucHIEMRJ7+rDVHOcu2bsgF6czo6jS3CffRd2xtT20TP9HCZEQ7CMon/YLV6Ca44sk/0XzZ/yjHpMiDbp+4GXPJ5t2cHvYn2b138GQ4fv6n9uKHpmbvagz+al2kqNwPq6Q3BxDQ40xlEz2D0IUeYIg+DrXOljJQS0c8xwX/iBJS7kr+G8N3MiAaICO+YwhtqhxnheRBt3B/+mEvwt8cEawQRBgd2PLcq0V6JGM5QVwEHPEM+YJyheiehh35UdDD4LRGKXyn2VGNEMghrH3Ww/u1m0UgzmWGjXgkOrsh/GG1fMM0TiIOTMGRLrcVQPxKe+4fdtw7HVKtL6ppk9BRN8g8ho26uUqqSMf9cMwgN5QWt/OKV2XVliqNuE885wGK2+3b4RpsSOJf3gLLT2vUtL1hwxB4/DkJNz7kSITB2x2+hSH+79Yd8yElDETxB1gikReOWRrJx/VM4cdWyid1w+mf3TSJueJRVXfbt354ns2HBefjWQ22QPwaTdC2evvde+iDpPD8eb6H7nboape+/ZdsngsShxD9+N61dCojv2nFtaQjtEN5Y5sbz6us0vQ3pZu3KJ7ra9+g2Sk6cdW6LidfiYJAWTPhhEJ7Knyy1hzx/Jf6E3Yi2DOAqgoaRvraL2zdDrKnqVUMOSl3/aXHLPTEXuhPZrTXtEv7L4ZBOflL5yL+yu3A27/Vq44lkhUjGeSBpEhA1LltYY+sHLHWUoboVeM3gMiTX9WnINopQQOyhaiegnBJO+QVghGmqsqrnGIWOazEpIo509DrmFIM7mm12SJ0spD57cVVHNuPl35vzT5nlE1HMJeXw71rKnuWud6XNEQDJlS612Wd27HW52Gc6Y777pU6gXNc4pQ3TiXsiTBGHCH/CMWbxVpAvnqiFShWrTlhgiLNly+EiKVJ5y9cIDo5XQLenLHm1SeXtKlhw+4unprrgi4fx1noOGHYTZ86RVqhMRRCwHJobZY25hTmEp09K5YG8/CxcMlHlfxwQagi9clM49bdukZe/ns7a/JC+YrHXcluss2SVnS/+8lgRIgARIgASSKoHWrZrLR91iagd+/mWQ/LLt96TqSuwvu25ucvbwq80JONbYLTqOrA8sU9EpnLWXExRM9iLJfkiABEiABJyNwBcTxkqlCuXk/v0H0qJtR4l8kTjROntzZYTJCqIUTFZA4yUkQAIkQAJOTwDpFJt/XiWpU3vLgu+XyuKllm8+etPhUDBZMUIUTFZA4yUkQAIkQAJOTyAgbx5ZNG+WRERESPM2HeVh6KvyLkndeQomK0awW5X+6iT6A5f3qN1PNBIgARIgARIgARF3d3fx8vSUl9HRSjQ5k1EwOdNo0hcSIAESIAESIAGHEKBgcghWdkoCJEACJEACJOBMBCiYnGk06QsJkAAJkAAJkIBDCFAwOQQrOyUBEiABEiABEnAmAhRMzjSa9IUESIAESIAESMAhBCiYHIKVnZIACZAACZAACTgTAQomZxpN+kICJEACJEACJOAQAhRMDsHKTkmABEiABEiABJyJAAWTM40mfSEBEiABEiABEnAIAQomh2BlpyRAAiRAAiRAAs5EgILJmUaTvpAACZAACZAACTiEAAWTQ7CyUxIgARIgARIgAWciQMHkTKNJX0iABEiABEiABBxCgILJIVjZKQmQAAmQAAmQgDMRoGByptGkLyRAAiRAAiRAAg4hQMHkEKzslARIgARIgARIwJkIUDA502jSFxIgARIgARIgAYcQoGByCFZ2SgIkQAIkQAIk4EwEKJicaTTpCwmQAAmQAAmQgEMIUDA5BCs7JQESIAESIAEScCYCFEzONJr0hQRIgARIgARIwCEEKJgcgpWdkgAJkAAJkAAJOBMBCiZnGk36QgIkQAIkQAIk4BACFEwOwcpOSYAESIAESIAEnIkABZMzjSZ9IQESIAESIAEScAgBCiaHYGWnJEACJEACJEACzkSAgsmZRpO+kAAJkAAJkAAJOIQABZNDsLJTEiABEiABEiABZyJAweRMo0lfSIAESIAESIAEHEKAgskhWNkpCZAACZAACZCAMxGgYHKm0aQvJEACJEACJEACDiFAweQQrOyUBEiABEiABEjAmQhQMDnTaNIXEiABEiABEiABhxCgYHIIVnZKAiRAAiRAAiTgTAQomJxpNOkLCZAACZAACZCAQwhQMDkEKzslARIgARIgARJwJgIUTM40mvSFBEiABEiABEjAIQQomByClZ2SAAmQAAmQAAk4EwEKJmcaTfpCAiRAAiRAAiTgEAIUTA7Byk5JgARIgARIgASciQAFkzONJn0hARIgARIgARJwCAEKJodgZackQAIkQAIkQALORICCyZlGk76QAAmQAAmQAAk4hAAFk0OwslMSIAESIAESIAFnImBQMEW9jI52d3vlZtEK1SQyMtKZ/KYvJEACJEACJEACJGAxAS9PTznx125d+6iXIm4hj15EZ0zjofth83ad5OSZsxZ3yoYkQAIkQAIkQAIk4EwEihYuJGuWLNS5FPL4hbj9GfwkunJASt0PF/ywTKbMmOVMftMXEiABEiABEiABErCYwND+faRL+7a69nvPPxG3oG33ogfUTh+rE0aZLGbKhiRAAiRAAiRAAk5EIG50Ca4FbbsvbvWnX41e3Dmb6C/LXb1+QwYMH8WlOSeaAHSFBEiABEiABEjANIGihQvK9MkTJYe/v64hluM6LbwVI5hqFfaWuFEmtMTy3JZt2+Xc+QtMBOcsIwESIAESIAEScDoCnp6eEhiQT+rXqSVdOrxahtMcRXTp9zPhMYIJP+xZPZ00KpHa6UDQIRIgARIgARIgARKwhsDGY2Eyd+cDdalOMFE0WYOS15AACZAACZAACTgjAX2xFE8w4QdYnmtXwTdWTpMzgqBPJEACJEACJEACJBCXQMjjKFm2P1S2nwmP9dH/AMLyyLCLcQWBAAAAAElFTkSuQmCC;" vertex="1" parent="JKHl1Gpe-J6DN88gJ6Rg-1">
                    <mxGeometry x="540" y="420" width="190" height="44.59" as="geometry"/>
                </mxCell>
                <mxCell id="JKHl1Gpe-J6DN88gJ6Rg-8" style="edgeStyle=orthogonalEdgeStyle;rounded=0;orthogonalLoop=1;jettySize=auto;html=1;exitX=0.5;exitY=1;exitDx=0;exitDy=0;fontSize=20;" edge="1" parent="JKHl1Gpe-J6DN88gJ6Rg-1" source="JKHl1Gpe-J6DN88gJ6Rg-3" target="JKHl1Gpe-J6DN88gJ6Rg-6">
                    <mxGeometry relative="1" as="geometry"/>
                </mxCell>
                <mxCell id="JKHl1Gpe-J6DN88gJ6Rg-3" value="" style="shape=image;verticalLabelPosition=bottom;labelBackgroundColor=#ffffff;verticalAlign=top;aspect=fixed;imageAspect=0;image=data:image/png,iVBORw0KGgoAAAANSUhEUgAAAm4AAADeCAYAAACE/YxPAAAgAElEQVR4Xu2dd1xURxeGX6oUBQQR7L333nvvvWusMZoYS2KJUaOxG40tGlPtGo0t9m7svWvsHXtBEVAUke93Zr/FZdmFBRblynv+SWTvnTvzzNx733tmzhkb0EiABEiABEiABEiABDRBwEZqWXfqrXBTta2e1xUlszgjp48jvFztYGuriTaxkiRAAiRAAiRAAiSgGQJv3wJPgsNw6cFrHL7+EtvOBZus+4a+GW1MCjcRbO1Lu8M7hZ1mGs2KkgAJkAAJkAAJkMDHQOBhYBgWHQyIIuBMCrcelVOiQaHkH0O72QYSIAESIAESIAES0CyBtaeC8MvOpxH1jyLcKNo027esOAmQAAmQAAmQwEdIYM3JIPy6SyfeIgk3mR7tV8MzSpP/nL8IG7Zuw8XLVxEaGvoRImGTSIAESIAESIAESODDEXBwcECuHNlQt0Z1dP2kXZSKTN7ij+3ngyMLtzld0iK1wZo2v9t30HfwUJw9d+HDtYRXJgESIAESIAESIIEkRCB/3tyYOn40MqRLF9Hqh4Fv0Hn2vXfCbfKWJ+HG3rZm7Tvj7HmKtiQ0VthUEiABEiABEiCBREAgf948WLFgdqSaiNft61peuqjSvZdfhJfL7hxxgEyP/jBtRiKoOqtAAiRAAiRAAiRAAkmPwMC+vdC1w7tp031XXqB8DledcHv4/E24YeoPetuS3gBhi0mABEiABEiABBIPAWOv28Pnb+Dj7qATbmFh4eGGyXXzl67IQITE03esCQmQAAmQAAmQQBIjIAELZw/ujmh12FvA3s5GJ9zCw8Mj7ZyQq1iZJIaHzSUBEiABEiABEiCBxEXg4rEDERUSoWZrQ+GWuHqItSEBEiABEiABEiCB/xOgcONQIAESIAESIAESIAGNEKBw00hHsZokQAIkQAIkQAIkQOHGMUACJEACJEACJEACGiFA4aaRjmI1SYAESIAESIAESIDCjWOABEiABEiABEiABDRCgMJNIx3FapIACZAACZAACZAAhRvHAAmQAAmQAAmQAAlohACFm0Y6itUkARIgARIgARIgAQo3jgESIAESIAESIAES0AgBCjeNdBSrSQIkQAIkQAIkQAIUbhwDJEACJEACJEACJKARAhRuGukoVpMESIAESIAESIAEKNw4BkiABEiABEiABEhAIwQo3DTSUawmCZAACZAACZAACVC4cQyQAAmQAAmQAAmQgEYIULhppKNYTRIgARIgARIgARKgcOMYIAESIAESIAESIAGNEKBw00hHsZokQAIkQAIkQAIkQOHGMUACJEACJEACJEACGiFA4aaRjmI1SYAESIAESIAESIDCjWOABEiABEiABEiABDRCgMJNIx3FapIACZAACZAACZAAhRvHAAmQAAmQAAmQAAlohACFm0Y6itUkARIgARIgARIgAQo3jgESIAESIAESIAES0AgBCjeNdBSrSQIkQAIkQAIkQAIUbhwDJEACJEACJEACJKARAhRuGukoVpMESIAESIAESIAEKNw4BkiABEiABEiABEhAIwQo3DTSUawmCZAACZAACZAACVC4cQyQAAmQAAmQAAmQgEYIULhppKNYTRIgARIgARIgARKgcOMYIAESIAESIAESIAGNEKBw00hHsZokQAIkQAIkQAIkQOHGMUACJEACJEACJEACGiFA4aaRjmI1SYAESIAESIAESIDCjWOABEiABEiABEiABDRCgMJNIx3FapIACZAACZAACZAAhRvHAAmQAAmQAAmQAAlohACFm0Y6itUkARIgARIgARIgAQo3jgESIAESIAESIAES0AgBCjeNdBSrSQIkQAIkQAIkQAIUbhwDJEACJEACJEACJKARAhRuGukoVpMESIAEkhKB1GmTI2d+bxzYcRNhb94mpaazrSQQLQHNC7cC6YoiX5pCOHh9D248ucLuJgESIAES+AgIdO5XAuVrZMbeLdcxZ+rRj6BFbAIJWIeApoWbh3NKTG4xG3a2dgh4+Qz9lnVG2Nsw65BhKSRAAomSQJZUOVA7XyOk98gEL9dUCH4dDP/gxzh37xT2XtmBR0EPEmW9E1ulkjnZo/vAUqpaAf4hmD/jWKKpoldqF4z7ow7s7G0xqs823Lj8NNHUjRV5PwQS8/h8PwTMX0Xbws3FE1NazIatjS2ehwSg39+d8ebtmw/NlNcnARJIIAItin6C+gWbR5QejnDYwCbi3yPX98fVR5cS6OofV7G2tjb4fZ2O5a1rz/B9r62JpoHtvyiKKvWy4eyx+5gybE+iqRcr8v4IJObx+f4omL6SpoWbNKlQ+uLIl7YwDl7bjWuP+cCO64BKZu8EX7e08HDxxKnbnJaIK0eel3AEimcqgy+rDFYX2H5hAw7f2Isrjy7C08ULmbyyIZWrNzb+90/CVeAjLPnnFU2QzNkeF08/wg/f7EwULXT3dMIPc+rB3sEW4wf8i8v/PU4U9WIl3j+BxDg+3z+FqFfUvHBLDBA/hjpUzlkLnct+gZDQEHy2qOXH0CS24SMj0LNSf5TOUhGPgx5iwIrueBvOBevx7eJJ8+sjZSpnnDh4FzNG7otvcVY5v9WnhVCzSU5cOvsIEwYmDjFplYaxkFgTSIzjM9aNSIATKNwSAKoWi6Rw02Kvxb/OLi7OSOaYDE+fPYt/YQlcwvgms5DGPR02nl2FJUfnJPDVkkbxI2fVRLpM7ti37QZmTz7ywRud3C0ZJs6rB8dkdvhxyG6cO8H1ih+8U4wqIEI/6PlrhL5O+PXkiW18Jpa+SPLCTdbHmfpyl4CHuAQ6xPU8GRBSl/BwWbUTbrXxIWWKxeSdSEzCzdbWFm/fRvWm2Nvb482b2K1htLOzQ1hY3B8wDg4OCA0NjVd/xLeMZMkc8erV63jVwSlZMri6usLJKRk8U6ZEpozpUaZUCZQuURyr12/E9J9/s6j8+PK06CJmDprU/Hd4J/fBmlNLseLEovgUFeVcezsHvAmzvJ/je6+aeu7IWj0bG5sY71VrNvybiVWQI18qbFt9GX/9etKaRceprKYd86Neqzy4dtEfY/ptt6gMWQv19m3UZ6atnQ3ehsXuWRqXc4wrKVO8b0Lj7g22sQHs7GzxJo4pUOR8ewe7eAsrF1cHSICAo5M9JFgkfWZ3FCuXDtnypMLM0ftx4sCdGPsnvjwT2/iMscHv6QDNCbcyWSujSq5aJvH8dWQ2rj++bBZdt/J9kDqFL37YPAxlslVGtVx1kMEzC649uoRZuyfhafATNCrcWk3HyHqviw/+wy+7f8TTF08ilVkqSwVUy10XJ/wOq6//3L4FUClnDeT1LQjXZMlx48lV/Hf3JNac/jtG8ZfCyQ0NCrRAVu+cap1O2Ns3uPnkGi4/PK/Of/3mldn2dCn3paqn3laeWIQL98/C3tYeVXLVQdXcteGTIo36+WHgA4xY109NheqtU5nPkdYjg/qnROj6uKVVwvHSw3ORrhke/hY/bPkuxrbEZcx+O6Af0vr6ot+gIahRrQoaN6iL7Nmy4vyFixgx9gc8fvwEndq3QfUqlZA+XTqcPnsWI8dNxKPHkftEf21bGxs0bdwApYoXQ57cOeHi7IwrV6/j9Nn/MHvBIrx48TLaaoporFKxvKpHpowZkNLDA8EvXsDv9h3cvOWHDZu34vjJ09GW4erigob166BG1cpIm8YX8m//p8/g53cbV65dx/JVa3D77l2TZYhIK1e6FEoWL4qC+fPBO5UXnJycVB3u3LmLHbv2YNmqNXj9OmYhJ6KsRbNGyJIpkyrHnN25ew+tO3Yz+XN8ecZlTJg7Jy7CLadPXjQv2iGiyEeBD/D73qnq3+lTZkKTwm2Ryycf5D4MDHmO9WeWm10nF5d71dnBBf2qD8OdZ7ew8NBvaFqkHeT5kSKZG477HcLve6ZCjmlTsisKpiumnh/7rv6LeQd+TpD7zZhtnxHlUbBkGqxZdA6rF/1nze6KdVkiFH6YVw/OLg6Y/v0+nDoU9R6RvG5NPsmHgztv4dShe2jWqQAKlUqD0Fdh2PrPZWxacREZs3mgcYf8yFMotcr/tmLuGfy7/qrZ+ji7OqBey9zInjcVMuVIqUTXzStPcfLAXWxfexnhMWg/qW+lOllRqkpGePu6qvo/fxaC+7cD4XctANvWXMbDu0HR8kjl64qajXMifzEfeHq7qPV9Tx68wP07gbh87jF2rLmCF8GmPyzcUzqhSJl0yFfUB5lzpIRbSifY29v+vw5B2L7mMo7uvR1jf4jIkoCQkpUyIk2GFHBN7mj2nD2br2PuNNNroePL0/Ci1hif7u5ucEuRQj3DPxbTnHCrX6A5WhT7xCT/iVuG4+zdE2b7Zkyjn9TDWr7YGxZqpVKIJE+WHHa29iqVwIPn91AlV208e+EPd+eU6ut3/9Wd+HXP5Ehl1snXGK1LdMGxWwdx9OZ+dCvXG7Y2dnj20h8ezp7qPDERdjN3/oDQMNMv2cxe2dG76mB4uXqr40VU2dnawsFOd8PcfnoT0/8dhwfPTb/kRzWcioyeWSPqtvjwH2rRdp9qQ1EwXdFIdRYvXud5jZUw09vw+pOQNVXOGMfyo8D76L+ie4zHxeWAeb/NRNYsmTFv0RJ0bNdaCRy3FMkh3rVjJ07i9p17aFS/Dh4/8VeeIvm63rLtX4yaMCnK5ZInd8V3gwegTMkS6rfQN2/w+tUr5WkSkxt36PdjcO3GTZNVlWtOGDVciSYxEUdP/J/Cw90Nzs7OEeccPnYcA74dbtIrKAJp1rQf4ZNa16ciuJ4/D1TCScoXE2+itHf2/KheIxFpa5ctUmJNtSE0FC9DQtSDR2+379xFty/6Ijg42GQ7RGyNHDYYlSqUU7/f8ruNu/fuw8vLE9myZFFl/vLnHNy+fRePnzxRglRYGVt8ecZlPBiek907NyrmqB7xJxE8Tg7OuOV/DdcfR87ZePjGPpP3ftGMpdCn6pCIMl6+DkaPxW2QP21h9Ks2DOJpM7R/Ti3BqhOLo1Q9rveqa7IU+LnNIrUu79KDcyibrbJKXeLpmkpdY8PZlcjjWwCS4sTw73/u+wm7Lyd8lGf5mlnUy/74/jsffFqyQZu8aNwhH/yuPcMIMxGuRculwxdDyipvjyToTZPBDYHPXkECGuTZtmjWCTRunx/OLvYIDnoNNw8n5Y0b1mOzElLGljaTG3oNLQefdMnVTy9fhCrR4+Bop/59+vA9/D7pMF4EmX6Gp/RyxuDJVeHl7RJxfnDga8jfJZWJ7n4Px7q/zpsVxnkKp0bfkRXUdeXxHPT8lfKWpUzlgv+/SvAyOBS/TzyEU4fvRWlDrgLeGDihcsTfQ17q7mUnZ93zRuzIHj/8Mu6g2VtSxN+A8ZUUT/H03bkRgMCAV4px6jTJ8eThCyyffVoxfXQ/GI/uBUd6l+gLji9P4wrGd3y2at4En3XpCJn12LPvAL4dMTq+j6VEcb7mhJt8nbo46l7EYvKFOqrhNPX/lgo3mTYUMXbo2h5kTpUdI+r/qM4XgTV9xzicvnMMRTKURN9qQ6F/0Bv2ll64hYS+RDIHJ+y8uBnLjy9A0KtAVbfWxTujUs6a6pRlx+dj3enlUTo7ebIU+LH5H+pFJALt1z1T4Pf0upouFQ9Aj4r94e7sARFNg1b1NPn1LefK8XXyN0HDgi2x9fxaJQpq5WuEm/7XsPb0Mrx8/QIDan5vsh3yUrG31T2gymarour96k2IWvhtaG/ehiH4VdSHnjVGsF64Sb1HjZ+E7Tt3I3fOHPhtxhRVvIinISPG4OCRo8oTNX7Ud0qw1G4cNYBi+qTxKFKoAJ74+2PC5Ok4cuyEmlrNkjkjvh3wlSr3pt9tfNKtp0nR1aFNK3Tv8okSNmN+mIx/d++NOC61tzdKFCuixKV43eYu/Mtk8yePH62Ou3f/AYaPHo/zF3WRzjLFmC5tGuWFa9G0Eb4ZNhInT58xWUbj+nXx4uVLHD95SglWMRFy9WrVwJc9P1Vlrd+0BeN/1I17YxMPZdeO7RWnId+PVQJYb3ly5cTEsd9DZuOHjRqLE6dM10GOjy/P+I6PctmqonuFvhYVM2vXRJWE29hk6YJETIvNbLNI3S/f/tML39WbBAc7e6w/uxKnbx9FnfxNUSxjacjHz+ZzayIVE597VS/cpED5UJy0dThu+V9H3fxN0ap4J3Uduccnbh2uPhzlg1CeL8dvHcK0HWMsavvHcJBEtk6cWw+uKRwxa9wBHN1j2kOkF27SZok2nTFqP14Ev8bnQ8qiSGnd7IN46kRshYW+xVdjKqqp4CW/nVQeOUNzSe6I8bPrKM+STM3Om3YUd24GwMbWBvmK+KDLVyXh5pEMuzddw7zppnPcSfly7OP7wfhl/EFcv6S7X8V7JYKnVOWMqNE4B376fh8unnkUpatEIE5Z3EB56U4fuYcFM47D/9ELdZys85P1h9UaZkfeIj74rucWJeqMTcSdeBivnn+ivHMi8sQ8vJzRsE1eVKqr+7j/Y9JhtQtF1PNt8PWYihABKaL55zEH8PDeOw+hJEGWZMjihRTe+voZl2MNntYcyw729li5ZD483N0jiu3+ZT+cv6D97BOaE27GHSsPVXkgi1kq3JYdm491Z96JqT86LFderj/2Tceey9tUWc6OLvil7RL1/z0Wt1YCSG964Sb/loe8POwNTTxuw+v9iCypsitv2cCVPaKMR/Eaivcw+HUQ+i//FC9eR/aeZEiZGaMbTdfdcHunYc8V8+s9xHvYrEg7JQBl8bZ4+n7eNVGJPV+3dJjQdJb64v96uenpMLnGh1rjphduv/45FwuXLIvgtH39Kjg6OmLcpKlKKImJ52zTP3+r/xfhZuhxKlWiGCaNHamEVufPekXxqonHbNnC2XB3c8PYiVOwcYuunw3tpx/Ho3DBAti5ey+GjRpn8hkiD4O34eEm181JfaV+8nU35adZWLlmnckyRISFhLybso7Nw+rz7l3RpkVTBDx/jvrN2kQ5VaZ6N69epoTez7/9ib+WrYxyjHyF9vqsG65dv4GO3b8weXlr8IxNu0wdK9P36VJmjPjpswpfKU/4/ms7sdfofrjx+Kq6l6KzOR3/UcJNPmrSuWfA2E3f4uqji+qUnhX7o3TWimoaVZL4Glp87lVD4TZy/YCI62XzzqnEo5h4s0W8iek9hOJVHLbGMtEaX86J4fzazXKhRdeCuOcXqLxjhjMDhvXTCzeZivz2000RIqVOi9xo3rkAHtwJxPAvtkas72rdvbASTiLaRLwZmhwv54k3aUj3TVHWhGXL44Vvf6yKsLBwDPtsEx4YTXeK6JqxrLGa1lz08wnsWGd65x5ZJ/YqxPTa3FwFvTFwvM5bNqznZty9+dxkd0RXRnT9J6JuyORqyJLLE8f23VaizNiy5vLEkCnV1J/NJTvuPbwcCpVKi+1rrmDxL6ZnteLL09rjUGYeli2aA/no1luHbj1x4+Yta1/qvZeXJIXbzJ0TIFMrevul3RK1zmTsxsFqXZuYo50jfu+gE3cieET46E0v3AJDAtBrybv1M4a9VytvQ7QtqRNK363pq14WepOyf2q9EE4OTthybg0WGQk//XGDa49Fbt/88Ht6A0NX9zY7OPTCTQ6Q6ZYhq7+MEIJ64Sbr7oav7We2jA8t3L4bNU55uPS2afUytTas11eDcOrMWfVnWf+1bd0q9f8t2nfG/Qfv+mTW1EnIny8PNm/bgdETdB5UYxMvlHijzvx3Dp/3HRDld71wu3j5Crr36mfSKxfdHSqCbfOa5RBxt2zVaosX/Mfmri9fphTGjfxOndKoZTs1tWxoWTNnwrzff1Z/+vSLvrhwKeqaT1k7N3PKD+qYZm074eGjqJ4Aa/CMTbssOTYua9wMy9ULN/mbrIfdZJDzTS/cpm4frT589Bbfe9VQuMmzQp4ZYpk8s2Jkw6kqEKnT3EYR15N1bl/XGB7jh5YlvLRyjKOjHSbMraumNc15hfRt0Qu3u7eeK4GnN0kfImlELpx+iInf7Ir4e/MuBVGneS7s23oDs6e8i5qVdViTFzZQXi3ZTku21TJlg36orPZLXbfkPFbN1z2H9CaCbeaKJmqKM67BHYbCTbxZliz4j22/6tOriCge+tmmKKdXbZAd7XoWwauXb/B5M93z1djqt8mDJh3yq2nSb7psiPK7NXjGtl2WHF+nZjX06vGpWuu8btMW/DhtpiWnJfpjKNwAmBJuygMXg3B79vIp+iztaLKTZc2Kfgp22o6xOH7r3foCWWcn6+3EJm8baTbhbaNCrdRiZtkNotuCZma/Qg2F2+Ijf2Lzf6sj6iQvnmzeuZSQMxSPxpVOvMJtIE6d+b+YdnSEeOLEDIWbfFltXbdSeehkinTdxncPdMN2li9bGuO+H6ZSXzRs0S5Kv33SthU+7axbP3n0+EnMX7wEp06fVR42S23KhDEoXrSw6iuJ1ly+crWanrWWiUdQBKZYq0+6qrVrhqbWC/6meziJ51GCIYxNBK4IM7EuPXvj8pXIC7etxdNabdaXYy3hJuKpr9EuKxKk4+7koaYxDT138b1XYxRu4eHoNO+dcJO9l/vXGJGkhJtMBbbtUUSJgm8/3RhtJGhMwu38qYeYNNhAuP3fq2Ys3PTeNBlbg7ttNBs8oPfYmVsjJlOMMo0pj4hdG68qAScCyVITT9qPC+pDhI+sr9vw9wXIwn9ZX2Yta9guLxq1y6emOAd0XB+lWD1/CX74soXpBNYS6SsRvzIN28vEMdbiaa02G5YjH/wuzi6aSHlkafsp3BJIuEnaAnnRiM098DP+vfjuS0e/fk5+G772K9x4YtrFXjlnTXQu20uV0W9ZF+VNM2V64SbpDPr83UmttYutaVm4+fqkxrKFurxesuBfFuObsjRpfNVCVbGaDZvj5cvIEaaydmz08CEQr5beROQdOHQE/+7ai6MnTsaYjsTL0xMzpkxA+rTvon2lPnv3H1QeRVMeMFN1Fc9Zw3p1kDlzRnh7eanAAqmfCl5x0C2oNyXcZJp+7fLFakp40rQZWL1uY5TimzVqgL69eqjp3hoNmkVJd2ItnrEdgzEdby3hJrsrLDkyO6bLqd/je69SuEWPWbxV42fXVUmA5/90DLs2vpuZMHWmtYRb2eqZ0fWrEipw4I+Jh82mYCpYIg3KVM2EG1eeYlTvqMsrJCjimx+qqEX8epMgCElofHSPn0V7rOYumBoyFSnr/MTko+/qBX8VMHJs7208fmA6CMmQj0yJ5ivqi9L/j2yV9W0p3JOpQDk7OxsVKGFOuKXP4o7vZ+rWZMuUsakgjs+HlEGxculx6exjTBj4b5SusRZPi25KHgQKtwQSbhKkMKutbgH7iuMLVWoPvVXPXQ8dSn+m/vnVsq54Ehx1qkp+k8XSvat+q44zXB9jPG71wi0+0Z9aFm6GXihL7+kW7bvg/gPTyT3LlCyO5k0aoUjhgmraU28SKDDr99nYsj3qg8vwunJOg7q1Ubd2DeTMni0iyliOkWCFqTN+wbkLurVVxiaRpyO+HRgRERoQ8FylDvH3f4o3YWFqoa0EYIiZEm7ydwlgaNm0sQps6N3/m0hh8BLtKlGvEuW6duNm/DBZt47S0KzN09I+iek4awm33/ZMUSk3LLH43qsUbtFTrlg7Kzr2Loanj1+qKbiYcpdZS7jpvVCWjAE5RtbBDewU1Vslv4n4lHaUq5kZmbJJNoJ3pUqwwuJZJ1TwQ3QmIqtW05woUTEDUvm8C76Tcw7v8sPff5zC0yemUxmJ6P1qdEWkzeimLiF1ffIwWHntZHMR+btEe5oTblLfYdOqI1P2lDh/8iFmjtkfsXZQyhOP4lejK6jnmES2Hvw36hoxa/K0tE+S8nEUbgkk3FIlT62iRsWMPW6ls1RAz0q6NVayHk2CCkxZ+exV8Wl53QJlifR8+P8FzMbHJnXhljlTRiz4Y5bCsuKftbhnRpAZchNPVEwBAhLQIKlBKpQtrYSUJLEVE+G1YvVai54bqbw8Ua5MKVQoW0aVJQ8/iVqVNXamvG+D+/dF3Vo1VHoOEVVbd+yMFAgR01SpVEquIVO+Hdq0VFG5Bw4fxd2795AqlRfKli6p1g5KbrsvvhpgMq9dQvG0CFg0B30I4Rbfe5XCzXyHSuTl2N/rqNxnf/1yUuU7i8msJdyq1M+G9p8XVR43SXMR02oISQeyd+uNmKqnIjklr1xRlVfNV4k4yQs3rv8Oi7xvcgGJJC1SJi2Kl0+PDFk91DUlylM8fsa53GSqdciUquociWz9c/IRtVWYocU0VSrHSuoQicyVXHAB/iE4d/KB+m+ajG4oWELaYaPWAcp6QFOWUDxjBJ5ED6BwSyDhJvnRJE+amPE6NsPfJmwepnLImbJ6BZqhZbGOKpO6rHEzt5NDUhduMnUoQQuS400CEyRAwdomHqoJo0cgR7asSnjVatjcZO6z6K6bL09uSLoQ2WZKkvj2GaDbMF1vIhQlKlUiQ/+ct9BkyhFLhJuUJ165H8eNwrOA5yoPnTCS5MM3/fyw7d9dSuCa21HiffCMS/98COEW33uVws18T8sUZLf+JVWi2EGdNuC1BVsoWUu4iRdJ1qeJybovcyku4jJO9edkze2lriGiyDhowtJyJSFu+y90eSUlQbIkSja0/MV80W9UBfUn2dfVWLTJ3y0RbnJc3Za5VUJjEYBePq5KdErfSCDI5pWXVE47c/Y+eFrKLCkcR+GWQMKtaq466FimpxpDg//5Anef+UWMJ8nAPqP1QvXvpUfnqiScpuyLygNRMnN5ld9p4Erd1Kops6Zwkzxu3Re+v03m9elAzEeVxhycIEz+XjAbaXx9lCCZOvOXBLl3q1WuiBFDBqmyu37eG5cum8/Gbq4C/fv0UgmFJTFv7UYtIh1mKMr6DhwSKf+a/kBLhJtnSg8sXTAbYW/eoFm7znj54gWcnJ1i3DXCsDLvg2dsO+lDCLf43qsfu3CTvUWr1s+mxMmBf2+pPGCWmMcLIA4AACAASURBVHhwRv1SS2XoF4/XxuWmlw4Yl2Ut4Sa7E8ieqGIyNXh8X8Jk1f+kVzGVR00CD3o1N73wPyZeY36rDd/0KVR+OtlRwtD0okzWxX3WaKXaKcLYLBFukupD1tlJrrkfBu1UeegcHOzMpjExvsb74hkTK+PfZZaketXK8PJMqXJf6vNixracxHY8hVs8hJsk4BVBJYk1jU0iSiWy1Fw+JknuKwuf7z+/g0ErdQLP0OSFMbXlXLV9lWyoLVtrmTNrCDd9GgK5hqQekRQk78OsJdz0uclkT88O3XqoBLixNdkpICjI/ELg+nVqYdBXurQs5tbIxVTGsG/6o2a1KiqViUTGGpp482b/oos2nvnrn1iyPKqgb9ygHr7u/bk6Rrapku2qjK1W9aoYOuhrlYi4ebvOMQZUmOJkDZ6x5R/T8R9CuEmd4nOvfuzCTdZGyc4LYpLtv/8n69QG5DFZ8Qrp0XNwGcguAwM6rVepKCwxawk3uZY+N5kk3ZWdGmK7r6mUIdt0mduKSn7/dEApFTAQ3Ro5FVFqZjsrKWPSgvpqJ4Z9225g9uR3KU3kN8lRJ5GvYiN7b1NJco3ts29Ko2TFDGodofSPKevctzhklwLZGmvW2Ki53izpG2vwtOQ6sTlm9HffRqwXlkCzZm06xnqmJDbXe1/HUrjFQ7hJJ4k3bMr2kbgXoPtik42i25ToonYvEDOXPFefx0mO2X15G+YemBkxFerqmFy9LGSfxechASqPXHR7llpDuMkuDVNazIFkmt9xcSPmH/glItJK/pbGPb3ZtXjxGazWEm4yvbd4zm+QiEhJLCtTppevvotQk3VdLZs1RrYsmVVyXeMEn56eKfHbT1PUVOLMX/6IksBX0mxMHDNCJXOUFBwSGGBsMj05ccxI9WU3Z8FiPAvQ5ezSm+yBOmzwABXwYGrnA2nDhpVLVPJcCWL4ou+ASA8ZWfsmwlGmUsUGDh2hIl6NTdKRSFoSMdnmS9KpBAXrktPKNO+du/dx8dJlk6lC9GXFl2d8xoS5cz+UcIvPvfoxCzfZE3T4TzUidZepHQpM9eeIGTXU+q3VC//DmsWRp/+iGzvWFG6yYF+iKWWJxbF9d7BgxrFIaThk/9CGbfOqKEtJ02FskoNNtqqStV8yhWmcwkPEqQg3CV4wtz5M0mzUbp5Lcdi54WqkzeklT1zj9vlUkmD1LjGx84HsCiEbsYsZ55ITr+YnvYuhYq0s6nd55n3ZYrXy/hlbk0/yo37rPOqY6xf9cf3y04i6hLwIxYM7Qbj03yMl/sxZfHla+5khz9GNq5ZGbDUo5cuONfsOHrL2pd57eZoTbi2Ld0KpzOUjQEkmdP2+fyJyDAXOyhOLse/qu/VO+r1KLUnAa0keN9kiS1JwODu6qh0SHgTeR2avbHBz0m2xceTGPrV5vbm1abLtjWRllzZIbqlrjy8jmX0yyL6Isp2VpPWQup67Z3pT8y8qD1I7Jbg5eajtsSTf270AXSoMSR0ia+tiY40LtUaTIm3VKSJI7wb4qXqk98ioEhR/s+pzPAqKvScrujpYS7jJNfLmzoVR3w1W4kp2UJAM2XfvP0BaXx9kSJ9OrfOSdV2ytkyfG05fN8nxNmTAVxCPmZh8nV29dgNBQUFqo/icObKrv8sUZ/9vv8PZ/85HaZYk+JVccCKs5AEoXj8RkfIAzZI5kypH7PqNm+g78NsoyXPlN32qDnWt4GDs2X8QL1+GqNxw0gbZ1UE2vi9UMD9kz9Kvvhlq0rs4oO+XaFivdrTdf/DwUUycOsNkAt748ozNuLP02LgIN9kHtF2pT9UlZDcS/b2hz9UmW9Wd9Isqfo3rFNd79WMWbrK/5cT59VW6Cb1JZn7J0B+d6aflREAM7LTB7D6gpsqwpnCT8ivUyoK2PYtAkgC/fhWG29efKY+hb4YUKmhC7t3nz16p/HLGXjHZV1WElwg/CW6QtB23bwTA1gZIm8ldnS8muyFMHLxLrRczNBFmX35XDrJOTUymOe/dDsR9v0CV102iPJO76fatPrzbT0V0mvIK6lN1yHHi2ZMkvhKlmqewD1K4O2L90guoXDcrZFr7v+MPMPW7PSoow9Bky62vx1ZElpyeZrtOIn5l+6+lv50yG/0bH56WPgdic9yKxfOQ2lu3L7DY198Mg+w1rXXTnHDrUu5LVMoR+SvPXCcsOPgrtl14F8JtbeEmCXhHrR+A7hX6Ke+YeNvEAkOeqy15lh6bazZprr7OedMUQruS3SAJQEXAib0Oe602pJ6zf0akHRuM22m8ybzh7xKBarznaEyDVa4va/OaFm0H8frpTYIjTvgdgghhcxGwMZVt7ndrCje5hmzGLjnKZMsmw43ZJYJ0/6Ej+GPugkjpMQzrJYKoW6cOSiTJejl5aOst5NUrJZpkCykRY+Yse9YsKqIzd66ckLVmhiYpPTZu3Y6/lq2ApPkwZXLNRvXqoHuXjkiR4l0fyLSnXHvp8lXw9fHB9EnjVJRooxbtEBhkequnbFmzIE+uHEjl5RXRljS+vsifN7cSgWLXbtxEzz5fm13/Fh+ecR0T5s6Li3Az3mTeuGzZs3j/1Z0WVTUu9+rHLNwEmuxMINN14lWSBfiTh+4xuc7KELBsryTbLIkXa8Vc83vlmuoUaws3uYZEZLb/oggy5/RUAk5vsi+oJMPdsOyiWXEpXkPxVmXJmVLt/GBoAU9DsH/bDWxaccnkHqP6Y6VNtZvmQrrM7pE2hpffZRp398brajstY7GlP1/yv8muBpJIV0SkmAhJ8RTK9lTnTjxQ+7h2/bok7t8JxOi+prdPlMdd7kKp1UbzesEo5aXP7A4JtBChLmZqytaw3fHhadGNGIuDZG/o7wbrMjjIh3DDlu1VpL3WTXPCLTEA1295ZbhzguxtmjFlFjwPeRYxbRqbujraJ1Pnvw57hTvPbpn10sWmzLgeKwLOO4UPJImweDFFBMp6Pq2ZTJumS5sWd+/dU2vKzO1/aKpd4mbPkikjXFxc8PjxY9x/+BCyfi425u7uhiyZMiE8/C0ePX6i6iCeQEtMvym9iK6bt/zUejVDE4GXOVMGXL8Rt333ShYriknjRipBN3LcRJV2JCaLD8+YytbS74npXk0M3MS7I5vDm0rcalw/ffSheLckL5o1dwiILwsRKeJpk/bcuxUYxUMWU/ni0UqXyU09Z2RKUbxf5sSWqbJEOMkif590KdR0ppTxzEzuNlPny/ZdIrqSOdnB71pAlClR2VtVcr49NNpzNaZ26X/XT6fKv7/usC7GusWXp6X1iu64dq2ao0c33VrihNqG0Br1jG0ZFG6xJQbAlHCLQzE8hQSsTqBCuTLInTMHTpw6rbbtis7+mve72uFh4ZJl+PXPuVavCwskAWMCAydURq4C3iY3fSetD0NA9nkV4S3bgkm+OHMmARISKCE2ZdgenD0Webu9D1P76K/6w5gRKFNSt0NGm07domwRmBjrbEmdKNwsoWR0DIVbHKDxlPdCoFP7NpC1drv37ceQEboABVMmwRgrFs1VC3eHjx6PHbv2vJf68SJJm4B43Ko3zI75M47H6LFJ2qTeX+v7j6uEPIVSx5gEWba8kvV0Yv3arlFr/xKzyZ7LG1Ythaura4zPw8TcDlN1o3CLQ49RuMUBGk95LwQM87zJmrgNm7fiwcNHal9W2Ww5pUdKlChWBO1bt1DBEjJ927VnbzwPjP3+tu+lQbwICZBAghKQyNlG7fMh5OUbLJ9zGqcO3VPTxLLjgwQteKV2QeHSaVUghkzHnjp8D9NH7E3QOlmj8BzZs2H2LN2Wfr2+epcP1Bplf+gyKNzi0AMUbnGAxlPeG4Ge3Tqjbavmka4na+v0aUT0P0hU6teDh3000wfvDTAvRAIfEQHZgH7AuEqQ1CKGJtOL+mAH/d9l9wTJ82bJLhcfGlGLJo3Q+/PuuHj5Crp93udDV8eq16dwiwNOibyslrsubvlfh0Sl0UggsRGQ6FbZoSFjhgwqa7ibWwoEBgapzOH3HzxQ217JGrjYBGwktjayPiRAAtYhIIERBYqngWxD5untDLeUTirC9fnTV3jm/1Jte7V3yw0V5aoVk2Ug9nZ2eBMWFqck5Im5nRRuibl3WDcSIAESIAESIAESMCBA4cbhQAIkQAIkQAIkQAIaIUDhppGOYjVJgARIgARIgARIgMKNY4AESIAESIAESIAENEKAwk0jHcVqkgAJkAAJkAAJkACFG8cACZAACZAACZAACWiEAIWbRjqK1SQBEiABEiABEiABCjeOARIgARIgARIgARLQCAEKN410FKtJAiRAAiRAAiRAAhRuHAMkQAIkQAIkQAIkoBECFG4a6ShWkwRIgARIgARIgAQo3DgGSIAESIAESIAESEAjBCjcNNJRrCYJkAAJkAAJkAAJULhxDJAACZAACZAACZCARghQuGmko1hNEiABEiABEiABEqBw4xggARIgARIgARIgAY0QoHDTSEexmiRAAiRAAiRAAiRA4cYxQAIkQAIkQAIkQAIaIUDhppGOYjVJgARIgARIgARIgMKNY4AESIAESIAESIAENEKAwk0jHcVqkgAJkAAJkAAJkACFG8cACZAACZAACZAACWiEAIWbRjqK1SQBEiABEiABEiABCjeOARIgARIgARIgARLQCAEKN410FKtJAiRAAiRAAiRAAhRuHAMkQAIkQAIkQAIkoBECFG4a6ShWkwRIgARIgARIgAQo3DgGSIAESIAESIAESEAjBCjcNNJRrCYJkAAJkAAJkAAJULhxDJAACZAACZAACZCARghQuGmko1hNEiABEiABEiABEqBw4xggARIgARIgARIgAY0QoHDTSEexmiRAAiRAAiRAAiRA4cYxQAIkQAIkQAIkQAIaIUDhppGOYjVJgARIgARIgARIgMKNY4AESIAESIAESIAENEKAwk0jHcVqkgAJkAAJkAAJkACFG8cACZAACZAACZAACWiEAIWbRjqK1SQBEiABEiABEiABCjeOARIgARIgARIgARLQCAEKN410FKtJAiRAAiRAAiRAAhRuHAMkQAIkQAIkQAIkoBECFG4a6ShWkwRIgARIgARIgAQo3DgGSIAESIAESIAESEAjBCjcNNJRrCYJkAAJkAAJkAAJULhxDJAACZAACZAACZCARghQuGmko1hNEiABEiABEiABEqBw4xggARIgARIgARIgAY0QoHDTSEexmiRAAiRAAiRAAiRA4cYxQAIkQAIkQAIkQAIaIUDhppGOYjVJgARIgARIgARIgMKNY4AESIAESIAESIAENEKAwk0jHcVqkgAJkAAJkAAJkACFG8cACZAACZAACZAACWiEAIWbRjqK1SQBGxsbFCtSCEePnySMJEzA1tYWhQsWwPGTp5IwBTadBJIuAQq3pNv3bLmGCMjLetBXvVG3Vg2MnTgFG7ds01DtWVVrEujbqweaNqyPn2b9jmWrVluzaJZFAiSgAQIUbhroJFYxaRNwcHDA90MGoUK5Mrjldxu9+w/GE3//pA0lCbc+T66cmDx+NJInd8W8RUvwx9wFSZgGm04CSY8AhVvS63PV4lTp8yN/+U9Mtv72pb24cnyNZsgUa1UNrl7uJuu7/891ePPqtWbaYlxRmR6dMHo4ypQsQdGm2V60fsUNxdv8xUvx+5z51r8ISyQBEkiUBCjcEmW3JHylMuSuhEqtxpu80IVDf+PopikJXwkrXaHusM7wSO9tsrTl/abj9YsQK13p/RfToU0rdO/yifKwde3Zh562998FifaK+fLkxozJE2BnZ4cBQ4bj0JFjibaurBgJkID1CFC4WY+lpkpySJYcyT3SRKpzuabD4ZE6G7Qm3FL4eMLewT6iLamyp0OJNjXUv7Us3Armz4effhwPWd82cOgIHDh0RFNjjJVNeAKd2rdB147t8SwgAJ0/64XHTziFnvDUeQUS+LAEKNw+LP9EdfXaXf9AqvT5NCfcjCGmyZcFVXq30LRwEy/Kknl/wNcnNdZt3IIJk6clqrHCyiQOAjJOZk2bBJk63XvgEAZ/NzJxVIy1IAESSDACFG4JhlZ7BVO4vd8+S5E6JQIfPjV50fJlS2Pc98Pw5s0bNG7VHgHPA99v5Xi1OBFwcHSBnUMyhASb7tc4FRrDSUULF8S0iePw9m04WnbojAcPHyXEZVgmCZBAIiHw0Qg3W1t7vH37Js5YbWztEP42LM7n60+MTz2kDkA4wt++jXM94nN9awq3+NQjzo3//4nW9LjZ2tnibVjc+0OCCxxdnWDv6AB7J0ek8PaAV+Y0yFgsF5J7p8TK/jPwKvhllCb/MGaECkjYf/AwBg37Pl5IbGxto44pGxtI3WI71uJ7n9jZOSAsLDRe7YlvGXb2yRD25lW86mDv4ARZbmDvkAxOyb3gnioT0uUsh7TZy+DysVU4ummqReXHl6dcxNbGBssXz4N3Ki/MXfgX/py30KJr8yASIAFtEtC0cMtWuD7S5igDrzS5kNwjLV4GP0HAoxvwu7ALl46uilaIyQMzT+nW8M1aAl5pcsMhmQuePbyGJ3fP47+9CxD07K7ZHs2UrzpylWgGib48t3+RunbuUi2ROlMhePjkQOirYDy+fUY9vAP9b0c7MrwzFESeMq3hlTYvXFJ4Izw8TJ0T8Pgm7lzah2unN8YoKD19cyJXyebwSpcX7qmyIOSFP/zvXlT1u3zsH4tHZnyFW7ocZZG1UB14pcsHV3cfPH98C0/unceZXXMQ6O9ncT3ie2B8hVvKDD7IWaUovDL7wj1NKoQEBsP/5gPcOXMVV3bHnPxWhFr+umXgkysT3Hw9YWew/s64bftnr8eNQ/9F+rNPam/8vWAObG1tMHLcRGzdsdMiJA7JXFGlzSQ8e3QdRzb+iMJVuiNT/upI5uKB2xf3YP8/I+Hg6IpitfogXY4ycHRKgWunN+HQuglmx5iNja0aW2mzl1Zj1N7RGU8fXMGjW6dweucfCH39Itq6iWjMlLcachRvAvdUmeHkmlLdH8+f3ELA4xu4emI9HtyIflG9tCtHscbIUqAmkqdMB/l3SLC/Gl9PH1xWU/vm7jMRaelzlUfabKXgnbEQXNy8Ye/grOog59z8bzsuHFqKsDcxRx6LKMtTuhXcU2dV96o5C3x6B6unNzf5c3x5mrtmr8+6oVXzJnj0+Amat+uEtxZ+/EmqmayZM+Hi5SsWjTEeRAIk8OEJaFK4yQunTKOhyJC7YgRBefDa2TtG/FsE3M4lA00KBicXD1RoMRo+mYup49+GvUFYaAgcnJKrf79+GYi9K4fj7pUDJnsoT5m2KFbzS/hd2I1LR1eifLORSObshuCAB5AXhZOrR0Q5q39qjlcvn5ssp0DFLihU5VNdHd6GqZeRra1DxPnyd3m5bF/QG0HP7pksI2vBOihVf5CanhGTazk6JYe8IMRunduB/atH483rqF4d4wLjKtzkWoWqdNelF7GxAcLD8eplgBIMYvJyP/DPaNw6/+97GfHxEW5ZSudDyfa1IsTW6+AQOLgkU94pxfP4RRycu9FsihGfnBlRoWdjOLo4IfTlKzy78whhb8KQMp03kqVwwYMLN3Fh+zF1fsC9Jwh5HhyFSZWK5TFy2GD197pNWiEwKMgibjIGWwzcjOBn9/Hw1klkKVgbL54/hItbanW+fGT4ZC4Kr7R5Iv394JqxuHJibZRryDgq1/R7iCDX3SehCAt9FXGfiPja/fdg9cFjysTrWrntJCWaxOQefRn0BHL/iQDU272rh7Bj8VcmvX8ikGp1/V19CKix9CpYjXH5u62dLiBFvIZn9sxRQtLYRKQ1H7BeiTV9Hd6Ehqj7VW/yUbHhty4IfWWas4xveV5kzFNFnfL8yU0EPb0L5+Re8PDJjrdvQnFi+894/sQPLwMfK0EqrIwtvjyjGwTFixbGlAlj1CEtO3TBvfsPYhwzsvvC6O++hbu7G/xu38HnfQeoIAcaCZBA4iagOeEmD9E6n86GZ5pcSnCd+vdX3Di7VYkm5+SpkDpjQeSv2Alhoa+xZU4Pk9Ontbr+Bu/0BfA6JBD7/xkFeXHI9I2bV0aUbTRU5TiTl8Gama1MfsnrhZu8ROQFJJ6tY5unI+jpHdXbGfNWRcXmo5WIkZfJ6V1/RhkF4mmr1eVX9feze+fjvz3zIrwX8lIR71mBip3Vy27bgt5KDBlbmmylUK29bkrm5n/bcGzLDLx4/gCyziZLwVooXudr2Nra4dqpjcrbEpPFVbgVrNQVBSt3Uy+rE9t+xuXjq5VQdHL1RNEaXyBrobrqtzUzWpkVoDHVLTa/x1W4pcmbGVX6tNTxPHoBJ5b/ixdPA+Hg5IjMJfOieJvqEA/S9YNncWDOhihVcnJzRd2hneDk7oqbR87j8MLNCA3ReXLE6yb55rJXKKQ8bAfnb8LbN6an5sVzIh6UV69eo3r9JhY3XS/c5AT5CNi+oK/ySOUt2w5Fa/RS5cgY3b6wrxrXRWt+ibxl2sLv4m7sWjIoynVqdJyphN7LoMc4uGYc7l09rO4nD++sKNN4qBKAzx/fxNpZbU2KrvwVOqJw1R5qDB9YPRo3z22POM7FzQdpspWAfLxcPbkOZ3bNNtnOah2mIU3WksoDvmfZUOURFxOPeYqU6ZClQC3kLt0KO/8agAc3T5gsI2fxJgh99QL3bxxTwkpMhFy2IvVQrFZfdY9cPbEWB9aMNXl+gUpdUKjypwgNCcKuvwfj/vWjEccJg6rtJHVOOHYvG4IHN46b7a/48oxuIGTOlBEL/pilDun11SCcOnM2xnEzbuR3KF9GJ6rFZv0xB4uXLo/xPB5AAiTwYQloTrjJVFzZxt8pav8u/hp3Lu+PStDGRokXEVbGJl//Vf8vdrbO/TzKw17WrjTstVR5Ka6d2qCEnbHphZv8XUTjvlUjory46vVYgJQ+2ZWXafff30YpQ4SOCJ5XL55h2cQ6ZkeB1Ec8BKasdtfflciUF4kpcZerZAuUqKPzZJgToYblxkW4ifekUZ8Vivfh9ROVB9LYhLdwN8fT2rdAXIVbzUHtkSprWuUV2z51qbyLI5lMnxZvXR3hb8OxbvgfUQIL8tYqhcJNKyEk8AXWDPkVb15F9rqIeGs8rofyvO355R/4nbhksulf9vgULZs1Vl4T8Z5YaobCbdOfn+Lxbd3LO1W6fKjdTeeN+md684gPjPS5KqJy6wl4ev8S1v/aMdJlZGpUBImMnfW/dojiVZMPliZ9ViGZi7sSZVdPro9SzRqdfoZPpiLK6yuixpTZ2jkgPPytyala8aC3HLRVedKPbJiEi0dWmCxDRNib0Jg9yqZOFkErwvbViwAsm1g7yiEi1Ft9s00JveNbZyivZdTnQRsUq9kbzx5exbpZ7U3W0Ro8oxsHbilSYP3KJeqQUeMnYcv2mL3b3w0egBpVK0cUO/mnn7FqTdR+tHT88TgSIIH3Q0Bbws3GRr0sZNpEvmy3zvsi1pSqf/ITfLMUV56I9b+Y3jlAL6rkpbXix3oIefEs0nX0wk0e9st/rGvS21Cu6QjlDXjkdwabZ3ePUk/9NcRruHJygyjXiKlhqTMWRs3Oui/sXUsHqWlbYxMx1ezrdcoraElutrgIN/GoiGdFPCKrf2phkoVMSdfoOEP9tmRs5XgvTo+JTVyEW+oc6VG9f1tV9O5Zq3D75OWoPJ0c0eSHz2GfzBEXdxzDsaXbIx1T4bPGyFA0J+6euYqdM0yLjKr9WsE3dyZc3XcGh+ZvNNmUUcMGo3LF8vjv/AX06P11TM2N+N1QuC2fWCdiTMkayLqfzVNe24UjddOeYrJmq2q7ycoL+s+0ppGuU6vLb/DOUECtsdy/yrS3VrxQ4o165Hcam2d/FqWeeuHmf+8CNv7RNdaBEBKE0Grwdoi4k3Voli74txgYgPS5KqBy6x/UKcsn1VOeSkPzSJ0V9XvqxNrG37tEePwMj0mdsRBqdv5F/WnllMbK621s1uAZU7t2bFwNB3t7/PrnXCxcsiymw5ErR3aMGDII6dOlxakz/6kgmODgqB+7MRbEA0iABN4rAU0JNxFsTfrqFtsfWD1GTbHE1loM2KS8BPLlLF/QpsxQFMl068NbpyIdphduMoW04scGJsuQdWeyoFq8HuL9MDbDh72ssTm980/cOr/T4mg3WTBeoo7upb5kbFWzHge9UFVeuflfRosrLsJNpmplyvb6mc3Yt3KEyfIl+q7VN1vVb2tntlFrgBLS4iLc9N40qdffvadE8Zbp61utXyv45M6E+xduYseUpZGaUaFHY2QoklOJPhF/pqxq35bwzZMZt09dwe6fo3on5ZyJY75H6ZLFceLUGfTu/43FqGISbuLZWjSyXER5ei+QsXCT5Qitv/1XeboOrh1ndvszvcdOUl8sn1Q3Sj3zV+iEwlV1gu7etSM4u2cuHt48qTxsllq1DtORJmsJJTovHftHCTiZnrWWiUdQBKaYoTdSX74kpK7fUxelKR968sFnbCJwRZiJbfi1I/zvR/akWotnTG3evHo5XFycYxVZKms3U3unYgqRmODydxJIRAQ0JdxkrYuseREzNc0ZE1eJRpNpD7FjW37C+QOLTZ6SwjMDGn35t/pNvA3idTA0S4SbiCoRV+aEm5SXr1wHFK7WIyKQQBZ+37t2WAm42xd343WI+UXpEhkoUbGylmzJuKpmm16+6ffIXKCmmh6TF1N0Fhfh1rjPSrUDg0TnSTSvOZNgEhEC//7VX0XLJqTFRbgVbVEVuasXV0EDf/c2n8qhbNf6ar1b0ONnWDNE97LWW66qxdQ6thf+gVgz9NcoaUQktUijcT3g7J4cZ9fvx+k1e01iGNjvSzSoWxs3b/mhfdceFqOylnBzdfdFk7464SlrNCUIwZRJvxeu1lP9JGPQOABG1qFVajlOebX0JiLvzuV9uPnfDty/diTGFD6yblU8yyk800eUIcEBfhf2qClY/Zq3dmGMPQAAFepJREFUmCCJ50w+pNy9s6jIUilX6ieiSh/UZEq4yTrVFv03qo89ib41FaWt/4iSAKOlY6tE8Shbi2d0bUyWzBHb1un6bNK0GVi9zrQ3NyZO/J0ESCDxE9CUcJNFxiXrDVRUTT5kY+Ati6rrf66b9pDF+rJo35RJ1GrLQVvUTye2z8J/eyNv4GyZcPsKssYsOuEm5Uud8pZvj/Q5ysPROUVEdWRB97n9C3F2z3yTXriKLcaoIAiZovxnWjOzLS9eu59KVSLl/TWmUrSEYivc5KXXdtieCOFpyXA3tx7KknMtPSYuwq38Z42QsWguBD0OUOvTzJkIMxFoEliw5IsfIx2WPJUHan/7icrbdm7zIZxatRvhBkElBRuWR/56ZfHmdSg2jpprNvmufhujwMAg1G3aytJmq0hJiSoVMzVVaqnHzdALZenFZarVXOSzRKXmKtUSvpmLqmlPvUmgwPFtM3H99KZoLyPn5CjaENmK1Ienby5d5PL/TYTbkQ0/4vGdyClV9L9LZGv55iMjIkJlTakEZrwM8leiUdZoSgBGdM+U4rX6qgAIqa8szzAUsjILIFGvEuV65fga5aE0NmvzNAUrbRpfLJ2vC4IaOGQ4Dhx+F0BhaR/yOBIgAW0Q0JRwy5S3Kiq00IW8b/itM2TtTGxMwvdlzZeY5Lm6eNh0BJXhF7KpVAnWFG76+svXf+oMBZE+d0VkzlcdzilSqZ/MBTfop2LNLarWlyuermyF66n0DyunNIoWV2yFmxTWvP9Glb5EgkQMo+3MXUi8beY8OLHpy+iOjYtwK9muJrJXLIxXQS+x4uufzBZfumNdZC2bX0Wb/vONbo2hobn5eKJKnxZw9XLHs7uP8fjKbYSFhiFVtrQq8a6s85NoU1njZs7q1KyObwf0Uz9XrdsYoaGWJay1lnATr1SDz3Xe6IuHl1kUCXz56D8xBgjIWsu02Uojfe4KSkhJ4E1M96IxI7kv0ucsjwy5K+nSjNjYqI8SWdJgyvtWptEQSL5HiWoWUXX9zJZIgRAxTZWq69vYqOhYSXcj15KxLh5sEWuSdFc8+TKFumV2D5N57RKKpyGb/PnyYNbUSepPHbt/gWvXE3Y5grXuVZZDAiQQewKaEm4pfXKgXg+d90ui1GSqJLYma3fkhXFm9xyc+jfyVJe+LMMovK3zekVJEJoQws2wHZILToSZRNCKbZnbU60NMrR85dqjSPUv1NqfxaMrmp1ykshAWcsk50s50VlchJt+0XV06RRi20fxPT4uwk0fESo8xZNmbrcE2QNVyn942Q/bJv0VpaoyHVqhRxOkzZ8FL54FwdXTTfVR0JPn8L91H2fW7FX526KzAvny4uepE9UhPft8jbPnLPtAsZZwk6CA1kN2Kk+qqaUC8e0fOV9ET5W2k5DSN6cSQ0vHVzeZ+yy6a0lEtSydkCAcSeIr96qhiVBsNWibSuFyaufvJlOOWCTcAOWVk3tJ5Sd0dlfTq5KfUNbb3TizBRcOLzObxPh98GzWuAH6ftFDbZFWr1lrvHgRtyhba/QtyyABEkhYApoSbhKS32rwNvVCEW+ZeM1iaxIhJutd5KtZ0omYspzFm6JkvQHqJ/FSibfK0BJauMm1DL2Dx7ZMx/kDkUWCeCwqttTlnTIX7SYvrKZ9VyvvnblpHMN2xUW46T0a0aVCiG0fSULQJg3qwcXFBVu27cCVa9djVURchJtEg0pUqNjmcQvw5EbUhMc2tjZoPK4nnD2S4+re0zi0IOoUX9EWVZC7egmcWbcPZ9bug629rKOyQVio5duxyfGywbxMf61YvRZTZ+giFmMyawk3uU7jPivUjiDicTuycXJMl47T75nz11DJq8U2/NYJ/vcuxrocvedZUv+I+DM0Q1EmgTmmPMKWCDfJRyg8wiUCfGoTvHn9Qn38xbRrhGFdEprnL9N/RL48ubFz914MGxV1utYUWNkqq2TxYihSqIDanSO291msO4snkAAJWIWApoSbtLh0w2+RvUgD9ZW+ZkZLlXg3NiYL+mVhv0xZrZrW1GToft3uc1WCX1lE/e/i/lGKt4Zwkwe/pAIxt7+qLMZu9KUupN/UujDxysnLQATeleOrcXDt+Cj1lCmlym10nhtz4s7wJH0EnyTz3bN8mEVYPdPkRt1PZ6vpJDlHzo2v/T5zKnLnzKGKef36NZq2+SRWm6x7Z0uHGgPbqfMl39rz+5FTPJiqn+RYazTmM5U898qeU2o609jSFcyOSl/o0mZsGjsf/jfvRzmm4ZjukLVuR//aiks7TSeEtYRP+9Yt8FnXTiqTfeNWHRAWFvM+utYUbnnK6HKTScDM2p/bRrsFnLn2yE4B0QXYZC/aEKUb6HaIMLdGLqYy9Gl3ZLeIVdMiJytO6ZsD9T7TeejNBSMZfqTJNlWyXZWxye4kZZt8pxIRr5rSJMaAClM8rMHTHGfD9W1ffTMUR45ZNu6aNWqAvr3eBb90/qwXxZslNyePIYEPTEBzwk2iwSTiU6ZB5CG7d8V3eHLnXARG+T1f+fZK0JgSH4aCR9bEiNdNIt3ExJMni/klSkzMnNiJr3ATT5jsKZk8ZVq148Id2VrLYBG7LJgu1+x7lTFezFxuKFkwLQunRYQeWv+DEnB6k2llydEl3jZZVybRnDGZvKjlBSPrgf6Z3iJC1AoX4W0qobGUWaH5KMj+rbIV0eF1E3DTYApb2ir57HIUa6K2IJPF4dFZjuzZMHvW9EiH/DTrN/y98l3bYmqH7HTQYmofJSYv7zqBI4t1qUjEHF2S4fUL0xuM565WHEVbVlUJdo8s3qIEXATP9KlR+cvmytt25/RV7JppOk+bCEYRjhKA8OjybQTcexzRtbK9VeCDpyqViESvRmeeKT2wYvE82NvbY8wPk7Fpa+SccabOtaZwk+m9hr3+hquHr0osu2/V93h6/10qDFnXJR9BHj7ZdMl1jXb2kPuvdrc/8fzxDYjH2HhbLEmzUaXtjyono7mIZzU92XYyrpxcizM7/4yS61DWvIpwk+AFU1P10oYWgzar5Llyr0uuOcOtqGTtmwhHGaNi5hJ6SzoS+agRk/WZkh5Idl0Rk+2uAp/eVnsDm0oVou+n+PKMbqz0+fwzNG/SEHfv3Ufrjt0iBcREd96saZOQP2+eiEOWLl+FGb9G3TYspvuNv5MACbxfApoTboJH0gvIonv9foMylSkiTqZ29HsaiqdAEt8a51SS8+VBXL75aHW+ZFyXKZrQkGB4ps2tBJ8IoePbZkSZntR3TXyFm6QbkfU9ssWWmKRRePrwCl4EPIBTci+V6V6fokCmqWS6ypTJMWWbDIe8wMSEwbMHVxQDj9TZ1V6O8jKR7YAs8UzKFkKy44OINElt4H/3vEptIN7HhzdPmPQ+ynWFWYXmo5E6U2FVD4l0DXh0Xa0FkoXZ8pIXO7l9ltreK1rB4pkSKxfPg52dXcRhQ0eOxa49sUshUqJtDeSoVESVIYLJ/9YDpEidEim8PbBp3AKT3jLxupXpXA8Zi+XStePRMzy9/QiuningkT41ZP3a09sPsXvmSgT7m95/1jOjDyr3aq48d+ZMAiBOr96DyzFsWN+9yyfo0KYVJLq0Y/fP1Qbi0Zk1hZtcR8ahBAPJeJJ7IuDxdbVHp3xwyBiW8SfjZNu8XmpvVEOTHG9lGw9VG9mrPgh+qjanDw0JVBvFy5gSk4+BHYv6qUTVxib7+OYv30knrGSd4LO7ePrwqvrA8vDOosoRE1EoU6HGyXPlN8N8h7Jlld/FPWqq0zdrCXX/yTpZmQqVsSv5FGWbMLmOsemnZKPjL3sbH1w7waQXP748zV1X9hudPmmcmo4f+v0Y7NprYicZMycP+6Y/albT7b8qtuCvv/Hb7HnRjjH+SAIk8OEJaFK4CTZZ3Fyibn+VYkC/Obx6Ebx+Ab/zu3Byxy9R1qYZ4pYcVKUaDFaRnPoN2uXl9OzRNRzbPC3aCMn4Cjeph3gJxLuVpUBN9QIxTJMgL6l714+o3Q4syXkmno/cpVtHiFYpX6JN/S7sVNnmzW2ZZWr4iZejZN0BcPfO/O7n8HA8uHkc2+b3Nps8VV6uBSp0RrYiDSLVQ17s4hE9vfN3lYTVEuvZrTNaNGusssAfP3kaXw8ephZdx8ZEhMn2UzkrF4nwqCguQS9xZNEWtVm8OZN8brmqFdcFFvzf5DzZour43zuUNy06s3d0QJp8mZHcOyXk/8XsHO3hlckXXlnSqJ0XxA7O24hr+81Hl9ra2mL6pPEoVCAfDh05hv7f6rZ6M2fWFm5yHSlTchKmyV460sbs8sFz59J+FeBjLkrYyTUlClXprj6U5KPKMI2HjMlb5/5VibDFo2fOxHMsSXy90uVRAsvQZMN62Ubt3P7F5j25NjbIWawxClftGSndjkx7ynmydlSeBdU7zoRLilRq9wS9N824TrKFnexN6pzCWwklMRGxEiSh/wgTEbn5z0/Nrn+LD0/j+jg7O2PebzORxtcnVmsh9eWk8vLEqiULIoqNTSBMbO5FHksCJGBdApoVboYY5MErX98y5RIUcN/khuzmsEkaDvdUmXUh/fcvxUrkWKsrpA7y4Jf9UUOC/BEccN/syyPaF7eLhwq8kPU+prwGltZXPBp6pvISC352L1ZbcomnTabQZFr0+RO/WEcLSj093N3h5pYCt/xuW1ptk8c5OCeDm68nHJI5qhQekjjXXMSocQHJkjvDI603gv0DVH43a5gIykq9mqltrwIfPsXaYb9HW6x3Ki/M+WUGJGDjQ09lSZocWXspXreggHuxus9kulI+BuQ+exH4SI3RsDemp6zNClMZ395Z1FSgKiPgnsXbaOk3pZfkuwGPbqr1apHMxgYeqbKoD7e4mOweUk02m7exwd6Vw1WkaUwWH56Ojo4YN3IYShYrikuXr6BHn/4Wp43R1ytv7lz49Sdd4Mnlq9fQpUf0O6vE1B7+TgIk8H4IfBTC7f2g4lVIwDwBWVcnKUVkX3pJ+WGYeNf4rMyl8qJsl/pK+Cz9ckqMEacSLfjDmBGQjcSXLF+Jmb/qEq3SEp5AhtwVlZdN9kaOyWMswUQibCVhtyTuTihTou37YShZvKjaXaPfN0Px6JGRELXg4m1aNsPnn3ZRR46dOBkbt8S8jtKCYnkICZBAAhOgcEtgwCw+aRCQqeJWP/VT6T82jJqDZ7cfmW148dbVIXujPr/3BOtGWCbCsmTOiMnjx0Cmtyb/9DNWrVmfNMB+4FYWqNgFstZOtnPbtdT8vrGyzlP2UZZ1pXuWD1VbwCWUffN1H9SrXRPnL1zCgCHfxSri2rBOE0YNR9nSJeHv/xTN23VCaCyXIyRU+1guCZBA9AQo3DhCSMBKBKp91Ro+uTKqBLsSfPDoym28Cg5RnjVHFye4p/VC5lL5kL1CIXXFE8v/xfmtlq37k+N9fXzwRfcuGD95OoKDg61UaxYTHQHDPG+yHu/qyfVqKYMEFEmEunNyT/hmLYn85Tuo5RoyBbzht44qwjqhLGOG9OjSoS0mTPkJL1/GLdGu5HBbv3Ipkid3xZ/zFqqN6WkkQALaIEDhpo1+Yi01QMDVyw21Bn8CpxQu72obHq6mT/WL2eUHCYL5b8NBnF5repN5DTQ1SVVRdiiRnUoMTfpQn0ZE/3cVlbqwn1prm9gte9YsmPPrDJUnsVlbXb5AGgmQgDYIULhpo59YS40QkOCDLKXzIV3BbHByc4WzW3LAFggJCMbLgCA8unIH1w6cVSlKaNohINGtOYo3hnuqTHBy9UIyF3e8DnmuNp4PenYPN85sVZHgxvnsEmsLJWLZ0cEBb8PDlXijkQAJaIcAhZt2+oo1JQESIAESIAESSOIEKNyS+ABg80mABEiABEiABLRDgMJNO33FmpIACZAACZAACSRxAhRuSXwAsPkkQAIkQAIkQALaIUDhpp2+Yk1JgARIgARIgASSOAEKtyQ+ANh8EiABEiABEiAB7RCgcNNOX7GmJEACJEACJEACSZwAhVsSHwBsPgmQAAmQAAmQgHYIULhpp69YUxIgARIgARIggSROgMItiQ8ANp8ESIAESIAESEA7BCjctNNXrCkJkAAJkAAJkEASJ0DhlsQHAJtPAiRAAiRAAiSgHQIUbtrpK9aUBEiABEiABEggiROgcEviA4DNJwESIAESIAES0A4BCjft9BVrSgIkQAIkQAIkkMQJULgl8QHA5pMACZAACZAACWiHAIWbdvqKNSUBEiABEiABEkjiBCjckvgAYPNJgARIgARIgAS0Q4DCTTt9xZqSAAmQAAmQAAkkcQIUbkl8ALD5JEACJEACJEAC2iFA4aadvmJNSYAESIAESIAEkjgBCrckPgDYfBIgARIgARIgAe0QoHDTTl+xpiRAAiRAAiRAAkmcAIVbEh8AbD4JkAAJkAAJkIB2CFC4aaevWFMSIAESIAESIIEkToDCLYkPADafBEiABEiABEhAOwQo3LTTV6wpCZAACZAACZBAEidA4ZbEBwCbTwIkQAIkQAIkoB0CFG7a6SvWlARIgARIgARIIIkToHBL4gOAzScBEiABEiABEtAOAQo37fQVa0oCJEACJEACJJDECVC4JfEBwOaTAAmQAAmQAAlohwCFm3b6ijUlARIgARIgARJI4gQo3JL4AGDzSYAESIAESIAEtEOAwk07fcWakgAJkAAJkAAJJHECFG5JfACw+SRAAiRAAiRAAtohQOGmnb5iTUmABEiABEiABJI4AQq3JD4A2HwSIAESIAESIAHtEKBw005fsaYkQAIkQAIkQAJJnACFWxIfAGw+CZAACZAACZCAdghQuGmnr1hTEiABEiABEiCBJE6Awi2JDwA2nwRIgARIgARIQDsEKNy001esKQmQAAmQAAmQQBInQOGWxAcAm08CJEACJEACJKAdAmaFW9jb8HBbm3cNyV+6IkJDQ7XTMtaUBEiABEiABEiABD4iAg4ODjh7cHdEi8LeAvZ2NjZKrj18/ibcO4VdxI/N2nfG2fMXPqLmsykkQAIkQAIkQAIkoB0C+fPmxooFcyIq/DDwDXzcHHTCbe/lF+HlsjtH/Pjn/EX4YdoM7bSONSUBEiABEiABEiCBj4jAwD690PWTdhEt2nflJcrncNEJt8lbnoT3q+EZqbn0un1Evc+mkAAJkAAJkAAJaIZA/jy5sWLhO2+bTqv54+taXjrhVnfqrfC5XdLCcLr01u076PfNUE6ZaqabWVESIAESIAESIAGtExDRNnX8aGRIny6iKTJN2nn2PWzom/GdcKue1xXGXjc5Q6ZNN2zZhotXrjJgQeujgfUnARIgARIgARJIdAQkECFX9myoW7N6pOlRfUXF27b9fHBk4SY/9qicEg0KJU90DWKFSIAESIAESIAESCApElh7Kgi/7Hyqmh7J46aHQfGWFIcF20wCJEACJEACJJDYCBiKNrPCTX6QadP2pd0jrXlLbI1hfUiABEiABEiABEjgYyTwKDAMCw8GYNu54EjNE4/b/wDh+LtzuAGC2gAAAABJRU5ErkJggg==;" vertex="1" parent="JKHl1Gpe-J6DN88gJ6Rg-1">
                    <mxGeometry x="760" y="385.36" width="222" height="79.23" as="geometry"/>
                </mxCell>
                <mxCell id="JKHl1Gpe-J6DN88gJ6Rg-4" value="message.js" style="text;html=1;strokeColor=none;fillColor=none;align=center;verticalAlign=middle;whiteSpace=wrap;rounded=0;fontSize=16;" vertex="1" parent="JKHl1Gpe-J6DN88gJ6Rg-1">
                    <mxGeometry x="615" y="400" width="40" height="20" as="geometry"/>
                </mxCell>
                <mxCell id="JKHl1Gpe-J6DN88gJ6Rg-5" value="index.js" style="text;html=1;strokeColor=none;fillColor=none;align=center;verticalAlign=middle;whiteSpace=wrap;rounded=0;fontSize=16;" vertex="1" parent="JKHl1Gpe-J6DN88gJ6Rg-1">
                    <mxGeometry x="851" y="365.36" width="40" height="20" as="geometry"/>
                </mxCell>
                <mxCell id="JKHl1Gpe-J6DN88gJ6Rg-9" style="edgeStyle=orthogonalEdgeStyle;rounded=0;orthogonalLoop=1;jettySize=auto;html=1;exitX=0.5;exitY=1;exitDx=0;exitDy=0;fontSize=20;" edge="1" parent="JKHl1Gpe-J6DN88gJ6Rg-1" source="JKHl1Gpe-J6DN88gJ6Rg-6">
                    <mxGeometry relative="1" as="geometry">
                        <mxPoint x="765" y="590" as="targetPoint"/>
                    </mxGeometry>
                </mxCell>
                <mxCell id="JKHl1Gpe-J6DN88gJ6Rg-6" value="Bundler&lt;br&gt;&lt;span style=&quot;font-weight: normal&quot;&gt;&lt;font style=&quot;font-size: 11px&quot;&gt;Webpack!&lt;/font&gt;&lt;/span&gt;" style="rounded=0;whiteSpace=wrap;html=1;fontSize=20;fillColor=#dae8fc;strokeColor=#6c8ebf;fontStyle=1" vertex="1" parent="JKHl1Gpe-J6DN88gJ6Rg-1">
                    <mxGeometry x="655" y="510" width="220" height="50" as="geometry"/>
                </mxCell>
                <mxCell id="JKHl1Gpe-J6DN88gJ6Rg-10" value="Single file containing both modules &lt;i style=&quot;font-size: 13px;&quot;&gt;linked&lt;/i&gt;&amp;nbsp;together in some way" style="shape=document;whiteSpace=wrap;html=1;boundedLbl=1;fontSize=13;" vertex="1" parent="JKHl1Gpe-J6DN88gJ6Rg-1">
                    <mxGeometry x="658.75" y="590" width="212.5" height="80" as="geometry"/>
                </mxCell>
            </root>
        </mxGraphModel>
    </diagram>
    <diagram id="h1K__4lK5aDzQw53GS7v" name="05 - wp">
        <mxGraphModel dx="501" dy="309" grid="1" gridSize="10" guides="1" tooltips="1" connect="1" arrows="1" fold="1" page="1" pageScale="1" pageWidth="1920" pageHeight="1200" math="0" shadow="0">
            <root>
                <mxCell id="e5FvRFt6XmZF_O1ZNjcg-0"/>
                <mxCell id="e5FvRFt6XmZF_O1ZNjcg-1" parent="e5FvRFt6XmZF_O1ZNjcg-0"/>
                <mxCell id="kCn3BouwB9Naw6TQjZXc-0" value="Bundler" style="rounded=0;whiteSpace=wrap;html=1;fontSize=20;fillColor=#dae8fc;strokeColor=#6c8ebf;fontStyle=1" vertex="1" parent="e5FvRFt6XmZF_O1ZNjcg-1">
                    <mxGeometry x="460" y="320" width="470" height="40" as="geometry"/>
                </mxCell>
                <mxCell id="Nztbgd3eN70T2ez1kzAl-0" value="Read the contents of the &lt;i style=&quot;font-size: 15px;&quot;&gt;entry file &lt;/i&gt;(index.js)" style="rounded=0;whiteSpace=wrap;html=1;fontSize=15;fontStyle=0" vertex="1" parent="e5FvRFt6XmZF_O1ZNjcg-1">
                    <mxGeometry x="460" y="370" width="470" height="40" as="geometry"/>
                </mxCell>
                <mxCell id="Nztbgd3eN70T2ez1kzAl-1" value="&lt;b&gt;Automatically&lt;/b&gt;&amp;nbsp;found all the different require/import/export statements" style="rounded=0;whiteSpace=wrap;html=1;fontSize=15;fontStyle=0" vertex="1" parent="e5FvRFt6XmZF_O1ZNjcg-1">
                    <mxGeometry x="460" y="420" width="470" height="40" as="geometry"/>
                </mxCell>
                <mxCell id="Nztbgd3eN70T2ez1kzAl-2" value="&lt;b&gt;Automatically&lt;/b&gt;&amp;nbsp;found all the modules on our hard drives" style="rounded=0;whiteSpace=wrap;html=1;fontSize=15;fontStyle=0" vertex="1" parent="e5FvRFt6XmZF_O1ZNjcg-1">
                    <mxGeometry x="460" y="470" width="470" height="40" as="geometry"/>
                </mxCell>
                <mxCell id="Nztbgd3eN70T2ez1kzAl-3" value="Linked these files together into a single output file with all values being correctly communicated around" style="rounded=0;whiteSpace=wrap;html=1;fontSize=15;fontStyle=0" vertex="1" parent="e5FvRFt6XmZF_O1ZNjcg-1">
                    <mxGeometry x="460" y="520" width="470" height="40" as="geometry"/>
                </mxCell>
            </root>
        </mxGraphModel>
    </diagram>
    <diagram name="06 - steps" id="lVkhoDstm08XktWcX-s9">
        <mxGraphModel dx="865" dy="680" grid="1" gridSize="10" guides="1" tooltips="1" connect="1" arrows="1" fold="1" page="1" pageScale="1" pageWidth="1920" pageHeight="1200" math="0" shadow="0">
            <root>
                <mxCell id="8nU4ip-90cSZzKVzZcpW-0"/>
                <mxCell id="8nU4ip-90cSZzKVzZcpW-1" parent="8nU4ip-90cSZzKVzZcpW-0"/>
                <mxCell id="8nU4ip-90cSZzKVzZcpW-2" value="Bundler" style="rounded=0;whiteSpace=wrap;html=1;fontSize=20;fillColor=#dae8fc;strokeColor=#6c8ebf;fontStyle=1" parent="8nU4ip-90cSZzKVzZcpW-1" vertex="1">
                    <mxGeometry x="460" y="320" width="300" height="60" as="geometry"/>
                </mxCell>
                <mxCell id="8nU4ip-90cSZzKVzZcpW-3" value="Read the contents of the &lt;i style=&quot;font-size: 15px;&quot;&gt;entry file &lt;/i&gt;(index.js)" style="rounded=0;whiteSpace=wrap;html=1;fontSize=15;fontStyle=0" parent="8nU4ip-90cSZzKVzZcpW-1" vertex="1">
                    <mxGeometry x="460" y="390" width="300" height="60" as="geometry"/>
                </mxCell>
                <mxCell id="8nU4ip-90cSZzKVzZcpW-4" value="&lt;b&gt;Automatically&lt;/b&gt;&amp;nbsp;found all the different require/import/export statements" style="rounded=0;whiteSpace=wrap;html=1;fontSize=15;fontStyle=0" parent="8nU4ip-90cSZzKVzZcpW-1" vertex="1">
                    <mxGeometry x="460" y="460" width="300" height="60" as="geometry"/>
                </mxCell>
                <mxCell id="8nU4ip-90cSZzKVzZcpW-5" value="&lt;b&gt;Automatically&lt;/b&gt;&amp;nbsp;found all the modules on our hard drives" style="rounded=0;whiteSpace=wrap;html=1;fontSize=15;fontStyle=0" parent="8nU4ip-90cSZzKVzZcpW-1" vertex="1">
                    <mxGeometry x="460" y="530" width="300" height="60" as="geometry"/>
                </mxCell>
                <mxCell id="8nU4ip-90cSZzKVzZcpW-6" value="Linked these files together into a single output file with all values being correctly communicated around" style="rounded=0;whiteSpace=wrap;html=1;fontSize=15;fontStyle=0" parent="8nU4ip-90cSZzKVzZcpW-1" vertex="1">
                    <mxGeometry x="460" y="600" width="300" height="60" as="geometry"/>
                </mxCell>
                <mxCell id="8nU4ip-90cSZzKVzZcpW-9" value="We want a bundler that works &lt;i&gt;slightly&lt;/i&gt;&amp;nbsp;differently" style="rounded=0;whiteSpace=wrap;html=1;fontSize=20;fillColor=#dae8fc;strokeColor=#6c8ebf;fontStyle=1" parent="8nU4ip-90cSZzKVzZcpW-1" vertex="1">
                    <mxGeometry x="790" y="320" width="300" height="60" as="geometry"/>
                </mxCell>
                <mxCell id="8nU4ip-90cSZzKVzZcpW-10" style="edgeStyle=orthogonalEdgeStyle;rounded=0;orthogonalLoop=1;jettySize=auto;html=1;exitX=1;exitY=0.5;exitDx=0;exitDy=0;fontSize=15;" parent="8nU4ip-90cSZzKVzZcpW-1" target="8nU4ip-90cSZzKVzZcpW-11" edge="1">
                    <mxGeometry relative="1" as="geometry">
                        <mxPoint x="760" y="560" as="sourcePoint"/>
                    </mxGeometry>
                </mxCell>
                <mxCell id="8nU4ip-90cSZzKVzZcpW-11" value="&lt;b&gt;Automatically&lt;/b&gt;&amp;nbsp;find all the modules the user has imported &lt;b&gt;from NPM&lt;/b&gt;" style="rounded=0;whiteSpace=wrap;html=1;fontSize=15;fontStyle=0;fillColor=#d5e8d4;strokeColor=#82b366;" parent="8nU4ip-90cSZzKVzZcpW-1" vertex="1">
                    <mxGeometry x="790" y="530" width="300" height="60" as="geometry"/>
                </mxCell>
            </root>
        </mxGraphModel>
    </diagram>
    <diagram id="yX0zGBVbK9Ecw0y0wBET" name="07 - opt">
        <mxGraphModel dx="865" dy="680" grid="1" gridSize="10" guides="1" tooltips="1" connect="1" arrows="1" fold="1" page="1" pageScale="1" pageWidth="1920" pageHeight="1200" math="0" shadow="0">
            <root>
                <mxCell id="0W-BpirHHLgMMJPeoWUf-0"/>
                <mxCell id="0W-BpirHHLgMMJPeoWUf-1" parent="0W-BpirHHLgMMJPeoWUf-0"/>
                <mxCell id="0W-BpirHHLgMMJPeoWUf-2" value="Bundling Option #1" style="rounded=0;whiteSpace=wrap;html=1;fontSize=15;align=center;fontStyle=3;fillColor=#f8cecc;strokeColor=#b85450;" parent="0W-BpirHHLgMMJPeoWUf-1" vertex="1">
                    <mxGeometry x="440" y="240" width="110" height="40" as="geometry"/>
                </mxCell>
                <mxCell id="0W-BpirHHLgMMJPeoWUf-3" style="edgeStyle=orthogonalEdgeStyle;rounded=0;orthogonalLoop=1;jettySize=auto;html=1;exitX=1;exitY=0.25;exitDx=0;exitDy=0;entryX=0;entryY=0.25;entryDx=0;entryDy=0;fontSize=15;" parent="0W-BpirHHLgMMJPeoWUf-1" edge="1">
                    <mxGeometry relative="1" as="geometry">
                        <mxPoint x="490" y="340" as="sourcePoint"/>
                        <mxPoint x="610" y="340" as="targetPoint"/>
                    </mxGeometry>
                </mxCell>
                <mxCell id="0W-BpirHHLgMMJPeoWUf-4" value="React App" style="rounded=0;whiteSpace=wrap;html=1;fontSize=15;align=center;fillColor=#dae8fc;strokeColor=#6c8ebf;" parent="0W-BpirHHLgMMJPeoWUf-1" vertex="1">
                    <mxGeometry x="440" y="290" width="60" height="180" as="geometry"/>
                </mxCell>
                <mxCell id="0W-BpirHHLgMMJPeoWUf-6" value="" style="rounded=0;whiteSpace=wrap;html=1;fontSize=15;align=center;fillColor=#dae8fc;strokeColor=#6c8ebf;" parent="0W-BpirHHLgMMJPeoWUf-1" vertex="1">
                    <mxGeometry x="610" y="290" width="100" height="180" as="geometry"/>
                </mxCell>
                <mxCell id="0W-BpirHHLgMMJPeoWUf-7" value="Code" style="rounded=0;whiteSpace=wrap;html=1;fontSize=8;align=center;fillColor=#f5f5f5;strokeColor=#666666;fontColor=#333333;fontStyle=2" parent="0W-BpirHHLgMMJPeoWUf-1" vertex="1">
                    <mxGeometry x="530" y="320" width="60" height="20" as="geometry"/>
                </mxCell>
                <mxCell id="0W-BpirHHLgMMJPeoWUf-10" value="Backend API Server" style="rounded=0;whiteSpace=wrap;html=1;fontSize=12;align=center;fillColor=#dae8fc;strokeColor=#6c8ebf;" parent="0W-BpirHHLgMMJPeoWUf-1" vertex="1">
                    <mxGeometry x="610" y="290" width="100" height="30" as="geometry"/>
                </mxCell>
                <mxCell id="0W-BpirHHLgMMJPeoWUf-15" style="edgeStyle=orthogonalEdgeStyle;rounded=0;orthogonalLoop=1;jettySize=auto;html=1;exitX=0.5;exitY=1;exitDx=0;exitDy=0;entryX=0.5;entryY=0;entryDx=0;entryDy=0;fontSize=12;startSize=6;endSize=3;" parent="0W-BpirHHLgMMJPeoWUf-1" source="0W-BpirHHLgMMJPeoWUf-11" target="0W-BpirHHLgMMJPeoWUf-12" edge="1">
                    <mxGeometry relative="1" as="geometry"/>
                </mxCell>
                <mxCell id="0W-BpirHHLgMMJPeoWUf-11" value="Webpack Runs" style="rounded=0;whiteSpace=wrap;html=1;fontSize=8;align=center;fillColor=#e1d5e7;strokeColor=#9673a6;fontStyle=0" parent="0W-BpirHHLgMMJPeoWUf-1" vertex="1">
                    <mxGeometry x="620" y="330" width="80" height="20" as="geometry"/>
                </mxCell>
                <mxCell id="0W-BpirHHLgMMJPeoWUf-16" style="edgeStyle=orthogonalEdgeStyle;rounded=0;orthogonalLoop=1;jettySize=auto;html=1;exitX=0.5;exitY=1;exitDx=0;exitDy=0;entryX=0.5;entryY=0;entryDx=0;entryDy=0;fontSize=12;startSize=6;endSize=3;" parent="0W-BpirHHLgMMJPeoWUf-1" source="0W-BpirHHLgMMJPeoWUf-12" target="0W-BpirHHLgMMJPeoWUf-13" edge="1">
                    <mxGeometry relative="1" as="geometry"/>
                </mxCell>
                <mxCell id="0W-BpirHHLgMMJPeoWUf-12" value="Webpack finds missing module" style="rounded=0;whiteSpace=wrap;html=1;fontSize=8;align=center;fillColor=#e1d5e7;strokeColor=#9673a6;fontStyle=0" parent="0W-BpirHHLgMMJPeoWUf-1" vertex="1">
                    <mxGeometry x="620" y="367" width="80" height="20" as="geometry"/>
                </mxCell>
                <mxCell id="0W-BpirHHLgMMJPeoWUf-17" style="edgeStyle=orthogonalEdgeStyle;rounded=0;orthogonalLoop=1;jettySize=auto;html=1;exitX=0.5;exitY=1;exitDx=0;exitDy=0;entryX=0.5;entryY=0;entryDx=0;entryDy=0;fontSize=12;startSize=6;endSize=3;" parent="0W-BpirHHLgMMJPeoWUf-1" source="0W-BpirHHLgMMJPeoWUf-13" target="0W-BpirHHLgMMJPeoWUf-14" edge="1">
                    <mxGeometry relative="1" as="geometry"/>
                </mxCell>
                <mxCell id="0W-BpirHHLgMMJPeoWUf-19" style="edgeStyle=orthogonalEdgeStyle;rounded=0;orthogonalLoop=1;jettySize=auto;html=1;exitX=1;exitY=0.5;exitDx=0;exitDy=0;startSize=6;fontSize=12;" parent="0W-BpirHHLgMMJPeoWUf-1" source="0W-BpirHHLgMMJPeoWUf-13" target="0W-BpirHHLgMMJPeoWUf-18" edge="1">
                    <mxGeometry relative="1" as="geometry"/>
                </mxCell>
                <mxCell id="0W-BpirHHLgMMJPeoWUf-13" value="npm install plugin gets module" style="rounded=0;whiteSpace=wrap;html=1;fontSize=8;align=center;fillColor=#e1d5e7;strokeColor=#9673a6;fontStyle=0" parent="0W-BpirHHLgMMJPeoWUf-1" vertex="1">
                    <mxGeometry x="620" y="403" width="80" height="20" as="geometry"/>
                </mxCell>
                <mxCell id="0W-BpirHHLgMMJPeoWUf-14" value="Bundle complete!" style="rounded=0;whiteSpace=wrap;html=1;fontSize=8;align=center;fillColor=#e1d5e7;strokeColor=#9673a6;fontStyle=0" parent="0W-BpirHHLgMMJPeoWUf-1" vertex="1">
                    <mxGeometry x="620" y="440" width="80" height="20" as="geometry"/>
                </mxCell>
                <mxCell id="0W-BpirHHLgMMJPeoWUf-5" style="edgeStyle=orthogonalEdgeStyle;rounded=0;orthogonalLoop=1;jettySize=auto;html=1;exitX=0;exitY=0.75;exitDx=0;exitDy=0;entryX=1;entryY=0.75;entryDx=0;entryDy=0;fontSize=8;" parent="0W-BpirHHLgMMJPeoWUf-1" edge="1">
                    <mxGeometry relative="1" as="geometry">
                        <mxPoint x="620" y="450" as="sourcePoint"/>
                        <mxPoint x="500" y="450" as="targetPoint"/>
                    </mxGeometry>
                </mxCell>
                <mxCell id="0W-BpirHHLgMMJPeoWUf-8" value="Bundled Code" style="rounded=0;whiteSpace=wrap;html=1;fontSize=8;align=center;fillColor=#f5f5f5;strokeColor=#666666;fontColor=#333333;fontStyle=2" parent="0W-BpirHHLgMMJPeoWUf-1" vertex="1">
                    <mxGeometry x="530" y="450" width="60" height="20" as="geometry"/>
                </mxCell>
                <mxCell id="0W-BpirHHLgMMJPeoWUf-18" value="NPM Registry" style="rounded=0;whiteSpace=wrap;html=1;fontSize=12;align=center;fillColor=#d5e8d4;strokeColor=#82b366;fontStyle=1" parent="0W-BpirHHLgMMJPeoWUf-1" vertex="1">
                    <mxGeometry x="730" y="398" width="100" height="30" as="geometry"/>
                </mxCell>
            </root>
        </mxGraphModel>
    </diagram>
    <diagram name="08 - two" id="k0OMdXwNzyEU4tevNwtu">
        <mxGraphModel dx="865" dy="680" grid="1" gridSize="10" guides="1" tooltips="1" connect="1" arrows="1" fold="1" page="1" pageScale="1" pageWidth="1920" pageHeight="1200" math="0" shadow="0">
            <root>
                <mxCell id="7zHEsBJdhcesd-w-Vo9E-0"/>
                <mxCell id="7zHEsBJdhcesd-w-Vo9E-1" parent="7zHEsBJdhcesd-w-Vo9E-0"/>
                <mxCell id="7zHEsBJdhcesd-w-Vo9E-2" value="Bundling Option #2" style="rounded=0;whiteSpace=wrap;html=1;fontSize=15;align=center;fontStyle=3;fillColor=#f8cecc;strokeColor=#b85450;" parent="7zHEsBJdhcesd-w-Vo9E-1" vertex="1">
                    <mxGeometry x="440" y="240" width="110" height="40" as="geometry"/>
                </mxCell>
                <mxCell id="7zHEsBJdhcesd-w-Vo9E-3" style="edgeStyle=orthogonalEdgeStyle;rounded=0;orthogonalLoop=1;jettySize=auto;html=1;exitX=1;exitY=0.25;exitDx=0;exitDy=0;entryX=0;entryY=0.25;entryDx=0;entryDy=0;fontSize=15;" parent="7zHEsBJdhcesd-w-Vo9E-1" edge="1">
                    <mxGeometry relative="1" as="geometry">
                        <mxPoint x="490" y="340" as="sourcePoint"/>
                        <mxPoint x="610" y="340" as="targetPoint"/>
                    </mxGeometry>
                </mxCell>
                <mxCell id="7zHEsBJdhcesd-w-Vo9E-4" value="React App" style="rounded=0;whiteSpace=wrap;html=1;fontSize=15;align=center;fillColor=#dae8fc;strokeColor=#6c8ebf;" parent="7zHEsBJdhcesd-w-Vo9E-1" vertex="1">
                    <mxGeometry x="440" y="290" width="60" height="180" as="geometry"/>
                </mxCell>
                <mxCell id="7zHEsBJdhcesd-w-Vo9E-5" value="" style="rounded=0;whiteSpace=wrap;html=1;fontSize=15;align=center;fillColor=#dae8fc;strokeColor=#6c8ebf;" parent="7zHEsBJdhcesd-w-Vo9E-1" vertex="1">
                    <mxGeometry x="610" y="290" width="100" height="180" as="geometry"/>
                </mxCell>
                <mxCell id="7zHEsBJdhcesd-w-Vo9E-6" value="Code" style="rounded=0;whiteSpace=wrap;html=1;fontSize=8;align=center;fillColor=#f5f5f5;strokeColor=#666666;fontColor=#333333;fontStyle=2" parent="7zHEsBJdhcesd-w-Vo9E-1" vertex="1">
                    <mxGeometry x="530" y="320" width="60" height="20" as="geometry"/>
                </mxCell>
                <mxCell id="7zHEsBJdhcesd-w-Vo9E-7" value="Backend API Server" style="rounded=0;whiteSpace=wrap;html=1;fontSize=12;align=center;fillColor=#dae8fc;strokeColor=#6c8ebf;" parent="7zHEsBJdhcesd-w-Vo9E-1" vertex="1">
                    <mxGeometry x="610" y="290" width="100" height="30" as="geometry"/>
                </mxCell>
                <mxCell id="7zHEsBJdhcesd-w-Vo9E-8" style="edgeStyle=orthogonalEdgeStyle;rounded=0;orthogonalLoop=1;jettySize=auto;html=1;exitX=0.5;exitY=1;exitDx=0;exitDy=0;entryX=0.5;entryY=0;entryDx=0;entryDy=0;fontSize=12;startSize=6;endSize=2;" parent="7zHEsBJdhcesd-w-Vo9E-1" source="7zHEsBJdhcesd-w-Vo9E-9" target="7zHEsBJdhcesd-w-Vo9E-11" edge="1">
                    <mxGeometry relative="1" as="geometry"/>
                </mxCell>
                <mxCell id="7zHEsBJdhcesd-w-Vo9E-9" value="Webpack Runs" style="rounded=0;whiteSpace=wrap;html=1;fontSize=8;align=center;fillColor=#e1d5e7;strokeColor=#9673a6;fontStyle=0" parent="7zHEsBJdhcesd-w-Vo9E-1" vertex="1">
                    <mxGeometry x="620" y="330" width="80" height="20" as="geometry"/>
                </mxCell>
                <mxCell id="7zHEsBJdhcesd-w-Vo9E-10" style="edgeStyle=orthogonalEdgeStyle;rounded=0;orthogonalLoop=1;jettySize=auto;html=1;exitX=0.5;exitY=1;exitDx=0;exitDy=0;entryX=0.5;entryY=0;entryDx=0;entryDy=0;fontSize=12;startSize=6;endSize=2;" parent="7zHEsBJdhcesd-w-Vo9E-1" source="7zHEsBJdhcesd-w-Vo9E-11" target="7zHEsBJdhcesd-w-Vo9E-14" edge="1">
                    <mxGeometry relative="1" as="geometry"/>
                </mxCell>
                <mxCell id="7zHEsBJdhcesd-w-Vo9E-11" value="Webpack finds an import statement" style="rounded=0;whiteSpace=wrap;html=1;fontSize=8;align=center;fillColor=#e1d5e7;strokeColor=#9673a6;fontStyle=0" parent="7zHEsBJdhcesd-w-Vo9E-1" vertex="1">
                    <mxGeometry x="620" y="363" width="80" height="20" as="geometry"/>
                </mxCell>
                <mxCell id="7zHEsBJdhcesd-w-Vo9E-12" style="edgeStyle=orthogonalEdgeStyle;rounded=0;orthogonalLoop=1;jettySize=auto;html=1;exitX=0.5;exitY=1;exitDx=0;exitDy=0;entryX=0.5;entryY=0;entryDx=0;entryDy=0;fontSize=12;startSize=6;endSize=2;" parent="7zHEsBJdhcesd-w-Vo9E-1" source="7zHEsBJdhcesd-w-Vo9E-14" target="7zHEsBJdhcesd-w-Vo9E-15" edge="1">
                    <mxGeometry relative="1" as="geometry"/>
                </mxCell>
                <mxCell id="7zHEsBJdhcesd-w-Vo9E-14" value="We write plugin to fetch &lt;i&gt;individual file from npm&lt;/i&gt;" style="rounded=0;whiteSpace=wrap;html=1;fontSize=8;align=center;fillColor=#e1d5e7;strokeColor=#9673a6;fontStyle=0" parent="7zHEsBJdhcesd-w-Vo9E-1" vertex="1">
                    <mxGeometry x="620" y="398" width="80" height="32" as="geometry"/>
                </mxCell>
                <mxCell id="7zHEsBJdhcesd-w-Vo9E-15" value="Bundle complete!" style="rounded=0;whiteSpace=wrap;html=1;fontSize=8;align=center;fillColor=#e1d5e7;strokeColor=#9673a6;fontStyle=0" parent="7zHEsBJdhcesd-w-Vo9E-1" vertex="1">
                    <mxGeometry x="620" y="440" width="80" height="20" as="geometry"/>
                </mxCell>
                <mxCell id="7zHEsBJdhcesd-w-Vo9E-16" style="edgeStyle=orthogonalEdgeStyle;rounded=0;orthogonalLoop=1;jettySize=auto;html=1;exitX=0;exitY=0.75;exitDx=0;exitDy=0;entryX=1;entryY=0.75;entryDx=0;entryDy=0;fontSize=8;" parent="7zHEsBJdhcesd-w-Vo9E-1" edge="1">
                    <mxGeometry relative="1" as="geometry">
                        <mxPoint x="620" y="450" as="sourcePoint"/>
                        <mxPoint x="500" y="450" as="targetPoint"/>
                    </mxGeometry>
                </mxCell>
                <mxCell id="7zHEsBJdhcesd-w-Vo9E-17" value="Bundled Code" style="rounded=0;whiteSpace=wrap;html=1;fontSize=8;align=center;fillColor=#f5f5f5;strokeColor=#666666;fontColor=#333333;fontStyle=2" parent="7zHEsBJdhcesd-w-Vo9E-1" vertex="1">
                    <mxGeometry x="530" y="450" width="60" height="20" as="geometry"/>
                </mxCell>
                <mxCell id="7zHEsBJdhcesd-w-Vo9E-18" value="NPM Registry" style="rounded=0;whiteSpace=wrap;html=1;fontSize=12;align=center;fillColor=#d5e8d4;strokeColor=#82b366;fontStyle=1" parent="7zHEsBJdhcesd-w-Vo9E-1" vertex="1">
                    <mxGeometry x="750" y="330" width="110" height="30" as="geometry"/>
                </mxCell>
                <mxCell id="LT9doE0fJDnGtMg5PvWF-0" value="" style="rounded=0;whiteSpace=wrap;html=1;fontSize=12;align=center;fillColor=#d5e8d4;strokeColor=#82b366;fontStyle=1" parent="7zHEsBJdhcesd-w-Vo9E-1" vertex="1">
                    <mxGeometry x="750" y="360" width="110" height="110" as="geometry"/>
                </mxCell>
                <mxCell id="LT9doE0fJDnGtMg5PvWF-1" value="React" style="rounded=0;whiteSpace=wrap;html=1;fontSize=12;" parent="7zHEsBJdhcesd-w-Vo9E-1" vertex="1">
                    <mxGeometry x="760" y="370" width="90" height="20" as="geometry"/>
                </mxCell>
                <mxCell id="LT9doE0fJDnGtMg5PvWF-2" value="" style="rounded=0;whiteSpace=wrap;html=1;fontSize=12;" parent="7zHEsBJdhcesd-w-Vo9E-1" vertex="1">
                    <mxGeometry x="760" y="390" width="90" height="70" as="geometry"/>
                </mxCell>
                <mxCell id="LT9doE0fJDnGtMg5PvWF-3" value="index.js" style="rounded=0;whiteSpace=wrap;html=1;fontSize=8;fillColor=#dae8fc;strokeColor=#6c8ebf;" parent="7zHEsBJdhcesd-w-Vo9E-1" vertex="1">
                    <mxGeometry x="780" y="398" width="50" height="20" as="geometry"/>
                </mxCell>
                <mxCell id="LT9doE0fJDnGtMg5PvWF-5" value="renderer.js" style="rounded=0;whiteSpace=wrap;html=1;fontSize=8;fillColor=#dae8fc;strokeColor=#6c8ebf;" parent="7zHEsBJdhcesd-w-Vo9E-1" vertex="1">
                    <mxGeometry x="780" y="430" width="50" height="20" as="geometry"/>
                </mxCell>
                <mxCell id="LT9doE0fJDnGtMg5PvWF-6" style="edgeStyle=orthogonalEdgeStyle;rounded=0;orthogonalLoop=1;jettySize=auto;html=1;exitX=1;exitY=0.5;exitDx=0;exitDy=0;startSize=6;endSize=3;fontSize=8;" parent="7zHEsBJdhcesd-w-Vo9E-1" source="7zHEsBJdhcesd-w-Vo9E-14" target="LT9doE0fJDnGtMg5PvWF-3" edge="1">
                    <mxGeometry relative="1" as="geometry"/>
                </mxCell>
            </root>
        </mxGraphModel>
    </diagram>
    <diagram name="09 - three" id="JxkiKtdI0ypo7Q0FkQco">
        <mxGraphModel dx="423" dy="261" grid="1" gridSize="10" guides="1" tooltips="1" connect="1" arrows="1" fold="1" page="1" pageScale="1" pageWidth="1920" pageHeight="1200" math="0" shadow="0">
            <root>
                <mxCell id="Gv4dUgs55nJd4c6tBSAB-0"/>
                <mxCell id="Gv4dUgs55nJd4c6tBSAB-1" parent="Gv4dUgs55nJd4c6tBSAB-0"/>
                <mxCell id="Gv4dUgs55nJd4c6tBSAB-4" value="React App" style="rounded=0;whiteSpace=wrap;html=1;fontSize=13;align=center;fillColor=#dae8fc;strokeColor=#6c8ebf;" vertex="1" parent="Gv4dUgs55nJd4c6tBSAB-1">
                    <mxGeometry x="440" y="290" width="190" height="20" as="geometry"/>
                </mxCell>
                <mxCell id="Gv4dUgs55nJd4c6tBSAB-24" value="" style="rounded=0;whiteSpace=wrap;html=1;fontSize=15;align=center;fillColor=#dae8fc;strokeColor=#6c8ebf;" vertex="1" parent="Gv4dUgs55nJd4c6tBSAB-1">
                    <mxGeometry x="440" y="310" width="190" height="140" as="geometry"/>
                </mxCell>
                <mxCell id="Gv4dUgs55nJd4c6tBSAB-2" value="Bundling Option #3" style="rounded=0;whiteSpace=wrap;html=1;fontSize=15;align=center;fontStyle=3;fillColor=#f8cecc;strokeColor=#b85450;" vertex="1" parent="Gv4dUgs55nJd4c6tBSAB-1">
                    <mxGeometry x="440" y="240" width="110" height="40" as="geometry"/>
                </mxCell>
                <mxCell id="Gv4dUgs55nJd4c6tBSAB-25" style="edgeStyle=orthogonalEdgeStyle;rounded=0;orthogonalLoop=1;jettySize=auto;html=1;exitX=1;exitY=0.5;exitDx=0;exitDy=0;startSize=6;endSize=3;fontSize=8;" edge="1" parent="Gv4dUgs55nJd4c6tBSAB-1" source="Gv4dUgs55nJd4c6tBSAB-6" target="Gv4dUgs55nJd4c6tBSAB-9">
                    <mxGeometry relative="1" as="geometry"/>
                </mxCell>
                <mxCell id="Gv4dUgs55nJd4c6tBSAB-6" value="Code" style="rounded=0;whiteSpace=wrap;html=1;fontSize=8;align=center;fillColor=#f5f5f5;strokeColor=#666666;fontColor=#333333;fontStyle=2" vertex="1" parent="Gv4dUgs55nJd4c6tBSAB-1">
                    <mxGeometry x="450" y="315" width="60" height="20" as="geometry"/>
                </mxCell>
                <mxCell id="Gv4dUgs55nJd4c6tBSAB-8" style="edgeStyle=orthogonalEdgeStyle;rounded=0;orthogonalLoop=1;jettySize=auto;html=1;exitX=0.5;exitY=1;exitDx=0;exitDy=0;entryX=0.5;entryY=0;entryDx=0;entryDy=0;fontSize=12;startSize=6;endSize=2;" edge="1" parent="Gv4dUgs55nJd4c6tBSAB-1" source="Gv4dUgs55nJd4c6tBSAB-9" target="Gv4dUgs55nJd4c6tBSAB-11">
                    <mxGeometry relative="1" as="geometry"/>
                </mxCell>
                <mxCell id="Gv4dUgs55nJd4c6tBSAB-9" value="Webpack Runs" style="rounded=0;whiteSpace=wrap;html=1;fontSize=8;align=center;fillColor=#e1d5e7;strokeColor=#9673a6;fontStyle=0" vertex="1" parent="Gv4dUgs55nJd4c6tBSAB-1">
                    <mxGeometry x="540" y="315" width="80" height="20" as="geometry"/>
                </mxCell>
                <mxCell id="Gv4dUgs55nJd4c6tBSAB-10" style="edgeStyle=orthogonalEdgeStyle;rounded=0;orthogonalLoop=1;jettySize=auto;html=1;exitX=0.5;exitY=1;exitDx=0;exitDy=0;entryX=0.5;entryY=0;entryDx=0;entryDy=0;fontSize=12;startSize=6;endSize=2;" edge="1" parent="Gv4dUgs55nJd4c6tBSAB-1" source="Gv4dUgs55nJd4c6tBSAB-11" target="Gv4dUgs55nJd4c6tBSAB-13">
                    <mxGeometry relative="1" as="geometry"/>
                </mxCell>
                <mxCell id="Gv4dUgs55nJd4c6tBSAB-11" value="Webpack finds an import statement" style="rounded=0;whiteSpace=wrap;html=1;fontSize=8;align=center;fillColor=#e1d5e7;strokeColor=#9673a6;fontStyle=0" vertex="1" parent="Gv4dUgs55nJd4c6tBSAB-1">
                    <mxGeometry x="540" y="348" width="80" height="20" as="geometry"/>
                </mxCell>
                <mxCell id="Gv4dUgs55nJd4c6tBSAB-12" style="edgeStyle=orthogonalEdgeStyle;rounded=0;orthogonalLoop=1;jettySize=auto;html=1;exitX=0.5;exitY=1;exitDx=0;exitDy=0;entryX=0.5;entryY=0;entryDx=0;entryDy=0;fontSize=12;startSize=6;endSize=2;" edge="1" parent="Gv4dUgs55nJd4c6tBSAB-1" source="Gv4dUgs55nJd4c6tBSAB-13" target="Gv4dUgs55nJd4c6tBSAB-14">
                    <mxGeometry relative="1" as="geometry"/>
                </mxCell>
                <mxCell id="Gv4dUgs55nJd4c6tBSAB-13" value="We write plugin to fetch &lt;i&gt;individual file from npm&lt;/i&gt;" style="rounded=0;whiteSpace=wrap;html=1;fontSize=8;align=center;fillColor=#e1d5e7;strokeColor=#9673a6;fontStyle=0" vertex="1" parent="Gv4dUgs55nJd4c6tBSAB-1">
                    <mxGeometry x="540" y="383" width="80" height="32" as="geometry"/>
                </mxCell>
                <mxCell id="Gv4dUgs55nJd4c6tBSAB-26" style="edgeStyle=orthogonalEdgeStyle;rounded=0;orthogonalLoop=1;jettySize=auto;html=1;exitX=0;exitY=0.5;exitDx=0;exitDy=0;startSize=6;endSize=3;fontSize=8;" edge="1" parent="Gv4dUgs55nJd4c6tBSAB-1" source="Gv4dUgs55nJd4c6tBSAB-14" target="Gv4dUgs55nJd4c6tBSAB-16">
                    <mxGeometry relative="1" as="geometry"/>
                </mxCell>
                <mxCell id="Gv4dUgs55nJd4c6tBSAB-14" value="Bundle complete!" style="rounded=0;whiteSpace=wrap;html=1;fontSize=8;align=center;fillColor=#e1d5e7;strokeColor=#9673a6;fontStyle=0" vertex="1" parent="Gv4dUgs55nJd4c6tBSAB-1">
                    <mxGeometry x="540" y="425" width="80" height="20" as="geometry"/>
                </mxCell>
                <mxCell id="Gv4dUgs55nJd4c6tBSAB-16" value="Bundled Code" style="rounded=0;whiteSpace=wrap;html=1;fontSize=8;align=center;fillColor=#f5f5f5;strokeColor=#666666;fontColor=#333333;fontStyle=2" vertex="1" parent="Gv4dUgs55nJd4c6tBSAB-1">
                    <mxGeometry x="450" y="425" width="60" height="20" as="geometry"/>
                </mxCell>
                <mxCell id="Gv4dUgs55nJd4c6tBSAB-17" value="NPM Registry" style="rounded=0;whiteSpace=wrap;html=1;fontSize=12;align=center;fillColor=#d5e8d4;strokeColor=#82b366;fontStyle=1" vertex="1" parent="Gv4dUgs55nJd4c6tBSAB-1">
                    <mxGeometry x="660" y="310" width="110" height="30" as="geometry"/>
                </mxCell>
                <mxCell id="Gv4dUgs55nJd4c6tBSAB-18" value="" style="rounded=0;whiteSpace=wrap;html=1;fontSize=12;align=center;fillColor=#d5e8d4;strokeColor=#82b366;fontStyle=1" vertex="1" parent="Gv4dUgs55nJd4c6tBSAB-1">
                    <mxGeometry x="660" y="340" width="110" height="110" as="geometry"/>
                </mxCell>
                <mxCell id="Gv4dUgs55nJd4c6tBSAB-19" value="React" style="rounded=0;whiteSpace=wrap;html=1;fontSize=12;" vertex="1" parent="Gv4dUgs55nJd4c6tBSAB-1">
                    <mxGeometry x="670" y="350" width="90" height="20" as="geometry"/>
                </mxCell>
                <mxCell id="Gv4dUgs55nJd4c6tBSAB-20" value="" style="rounded=0;whiteSpace=wrap;html=1;fontSize=12;" vertex="1" parent="Gv4dUgs55nJd4c6tBSAB-1">
                    <mxGeometry x="670" y="370" width="90" height="70" as="geometry"/>
                </mxCell>
                <mxCell id="Gv4dUgs55nJd4c6tBSAB-21" value="index.js" style="rounded=0;whiteSpace=wrap;html=1;fontSize=8;fillColor=#dae8fc;strokeColor=#6c8ebf;" vertex="1" parent="Gv4dUgs55nJd4c6tBSAB-1">
                    <mxGeometry x="690" y="378" width="50" height="20" as="geometry"/>
                </mxCell>
                <mxCell id="Gv4dUgs55nJd4c6tBSAB-22" value="renderer.js" style="rounded=0;whiteSpace=wrap;html=1;fontSize=8;fillColor=#dae8fc;strokeColor=#6c8ebf;" vertex="1" parent="Gv4dUgs55nJd4c6tBSAB-1">
                    <mxGeometry x="690" y="410" width="50" height="20" as="geometry"/>
                </mxCell>
                <mxCell id="Gv4dUgs55nJd4c6tBSAB-23" style="edgeStyle=orthogonalEdgeStyle;rounded=0;orthogonalLoop=1;jettySize=auto;html=1;exitX=1;exitY=0.5;exitDx=0;exitDy=0;startSize=6;endSize=3;fontSize=8;" edge="1" parent="Gv4dUgs55nJd4c6tBSAB-1" source="Gv4dUgs55nJd4c6tBSAB-13" target="Gv4dUgs55nJd4c6tBSAB-21">
                    <mxGeometry relative="1" as="geometry"/>
                </mxCell>
            </root>
        </mxGraphModel>
    </diagram>
    <diagram id="RCnp9jciyhXox6fvAEHZ" name="10 - remote">
        <mxGraphModel dx="865" dy="680" grid="1" gridSize="10" guides="1" tooltips="1" connect="1" arrows="1" fold="1" page="1" pageScale="1" pageWidth="1920" pageHeight="1200" math="0" shadow="0">
            <root>
                <mxCell id="QS8-gXiPxSSAEOIQwvfU-0"/>
                <mxCell id="QS8-gXiPxSSAEOIQwvfU-1" parent="QS8-gXiPxSSAEOIQwvfU-0"/>
                <mxCell id="QS8-gXiPxSSAEOIQwvfU-2" value="Remote" style="rounded=0;whiteSpace=wrap;html=1;fontSize=19;fontStyle=1;fillColor=#dae8fc;strokeColor=#6c8ebf;" parent="QS8-gXiPxSSAEOIQwvfU-1" vertex="1">
                    <mxGeometry x="520" y="260" width="240" height="40" as="geometry"/>
                </mxCell>
                <mxCell id="QS8-gXiPxSSAEOIQwvfU-3" value="Local" style="rounded=0;whiteSpace=wrap;html=1;fontSize=19;fontStyle=1;fillColor=#dae8fc;strokeColor=#6c8ebf;" parent="QS8-gXiPxSSAEOIQwvfU-1" vertex="1">
                    <mxGeometry x="800" y="260" width="240" height="40" as="geometry"/>
                </mxCell>
                <mxCell id="QS8-gXiPxSSAEOIQwvfU-4" value="Transpiling/Bundling Remotely or Locally?" style="text;html=1;strokeColor=none;fillColor=none;align=center;verticalAlign=middle;whiteSpace=wrap;rounded=0;fontSize=17;fontStyle=1" parent="QS8-gXiPxSSAEOIQwvfU-1" vertex="1">
                    <mxGeometry x="595" y="230" width="370" height="20" as="geometry"/>
                </mxCell>
                <mxCell id="QS8-gXiPxSSAEOIQwvfU-5" value="We can cache downloaded NPM modules to bundle code faster" style="rounded=0;whiteSpace=wrap;html=1;fontSize=12;fontStyle=0;" parent="QS8-gXiPxSSAEOIQwvfU-1" vertex="1">
                    <mxGeometry x="520" y="310" width="240" height="40" as="geometry"/>
                </mxCell>
                <mxCell id="QS8-gXiPxSSAEOIQwvfU-7" value="Removes an extra request to the API server - faster code execution!" style="rounded=0;whiteSpace=wrap;html=1;fontSize=12;fontStyle=0;" parent="QS8-gXiPxSSAEOIQwvfU-1" vertex="1">
                    <mxGeometry x="800" y="310" width="240" height="40" as="geometry"/>
                </mxCell>
                <mxCell id="QS8-gXiPxSSAEOIQwvfU-8" value="Will work better for users with slow devices or limited internet connections" style="rounded=0;whiteSpace=wrap;html=1;fontSize=12;fontStyle=0;" parent="QS8-gXiPxSSAEOIQwvfU-1" vertex="1">
                    <mxGeometry x="520" y="360" width="240" height="40" as="geometry"/>
                </mxCell>
                <mxCell id="QS8-gXiPxSSAEOIQwvfU-9" value="We don't have to maintain an API server!" style="rounded=0;whiteSpace=wrap;html=1;fontSize=12;fontStyle=0;" parent="QS8-gXiPxSSAEOIQwvfU-1" vertex="1">
                    <mxGeometry x="800" y="360" width="240" height="40" as="geometry"/>
                </mxCell>
                <mxCell id="QS8-gXiPxSSAEOIQwvfU-10" value="Less complexity - no moving code back and forth" style="rounded=0;whiteSpace=wrap;html=1;fontSize=12;fontStyle=0;" parent="QS8-gXiPxSSAEOIQwvfU-1" vertex="1">
                    <mxGeometry x="800" y="410" width="240" height="40" as="geometry"/>
                </mxCell>
            </root>
        </mxGraphModel>
    </diagram>
    <diagram id="IG-Y22YrDjcyuC9P-NdT" name="11 - local">
        <mxGraphModel dx="417" dy="257" grid="1" gridSize="10" guides="1" tooltips="1" connect="1" arrows="1" fold="1" page="1" pageScale="1" pageWidth="1920" pageHeight="1200" math="0" shadow="0">
            <root>
                <mxCell id="Gisy0e3KLH9Ys4HqAKBx-0"/>
                <mxCell id="Gisy0e3KLH9Ys4HqAKBx-1" parent="Gisy0e3KLH9Ys4HqAKBx-0"/>
                <mxCell id="V3SXoRSmasH6Gd_atetV-2" style="edgeStyle=orthogonalEdgeStyle;rounded=0;orthogonalLoop=1;jettySize=auto;html=1;exitX=0.5;exitY=1;exitDx=0;exitDy=0;startSize=6;endSize=3;fontSize=12;" edge="1" parent="Gisy0e3KLH9Ys4HqAKBx-1" source="V3SXoRSmasH6Gd_atetV-0" target="V3SXoRSmasH6Gd_atetV-1">
                    <mxGeometry relative="1" as="geometry"/>
                </mxCell>
                <mxCell id="V3SXoRSmasH6Gd_atetV-0" value="One small problem..." style="rounded=0;whiteSpace=wrap;html=1;fontSize=19;fontStyle=1;fillColor=#dae8fc;strokeColor=#6c8ebf;" vertex="1" parent="Gisy0e3KLH9Ys4HqAKBx-1">
                    <mxGeometry x="630" y="320" width="240" height="40" as="geometry"/>
                </mxCell>
                <mxCell id="V3SXoRSmasH6Gd_atetV-1" value="Webpack doesn't work in the browser..." style="rounded=0;whiteSpace=wrap;html=1;fontSize=19;fontStyle=3;fillColor=#f5f5f5;strokeColor=#666666;fontColor=#333333;" vertex="1" parent="Gisy0e3KLH9Ys4HqAKBx-1">
                    <mxGeometry x="630" y="390" width="240" height="60" as="geometry"/>
                </mxCell>
            </root>
        </mxGraphModel>
    </diagram>
    <diagram id="gRQvtBgtpHW4FF_M4NcD" name="12 - esb">
        <mxGraphModel dx="501" dy="309" grid="1" gridSize="10" guides="1" tooltips="1" connect="1" arrows="1" fold="1" page="1" pageScale="1" pageWidth="1920" pageHeight="1200" math="0" shadow="0">
            <root>
                <mxCell id="7mXTFekQVt7oR9aoPHgt-0"/>
                <mxCell id="7mXTFekQVt7oR9aoPHgt-1" parent="7mXTFekQVt7oR9aoPHgt-0"/>
                <mxCell id="7mXTFekQVt7oR9aoPHgt-10" style="edgeStyle=orthogonalEdgeStyle;rounded=0;orthogonalLoop=1;jettySize=auto;html=1;exitX=1;exitY=0.5;exitDx=0;exitDy=0;entryX=0;entryY=0.5;entryDx=0;entryDy=0;startSize=6;endSize=3;fontSize=12;" edge="1" parent="7mXTFekQVt7oR9aoPHgt-1" target="7mXTFekQVt7oR9aoPHgt-9">
                    <mxGeometry relative="1" as="geometry">
                        <mxPoint x="880" y="430" as="sourcePoint"/>
                    </mxGeometry>
                </mxCell>
                <mxCell id="7mXTFekQVt7oR9aoPHgt-7" style="edgeStyle=orthogonalEdgeStyle;rounded=0;orthogonalLoop=1;jettySize=auto;html=1;exitX=1;exitY=0.5;exitDx=0;exitDy=0;startSize=6;endSize=3;fontSize=12;" edge="1" parent="7mXTFekQVt7oR9aoPHgt-1" source="7mXTFekQVt7oR9aoPHgt-6">
                    <mxGeometry relative="1" as="geometry">
                        <mxPoint x="630" y="430" as="targetPoint"/>
                    </mxGeometry>
                </mxCell>
                <mxCell id="7mXTFekQVt7oR9aoPHgt-6" value="Raw User Code" style="rounded=0;whiteSpace=wrap;html=1;fontSize=12;" vertex="1" parent="7mXTFekQVt7oR9aoPHgt-1">
                    <mxGeometry x="550" y="400" width="50" height="60" as="geometry"/>
                </mxCell>
                <mxCell id="7mXTFekQVt7oR9aoPHgt-9" value="Code Ready to Execute" style="rounded=0;whiteSpace=wrap;html=1;fontSize=12;" vertex="1" parent="7mXTFekQVt7oR9aoPHgt-1">
                    <mxGeometry x="910" y="400" width="50" height="60" as="geometry"/>
                </mxCell>
            </root>
        </mxGraphModel>
    </diagram>
    <diagram name="12 - goal" id="nuOdT_ywePDbPaRbHx9Y">
        <mxGraphModel dx="865" dy="680" grid="1" gridSize="10" guides="1" tooltips="1" connect="1" arrows="1" fold="1" page="1" pageScale="1" pageWidth="1920" pageHeight="1200" math="0" shadow="0">
            <root>
                <mxCell id="47ZeHTRJLF232hGQy9BY-0"/>
                <mxCell id="47ZeHTRJLF232hGQy9BY-1" parent="47ZeHTRJLF232hGQy9BY-0"/>
                <mxCell id="47ZeHTRJLF232hGQy9BY-2" style="edgeStyle=orthogonalEdgeStyle;rounded=0;orthogonalLoop=1;jettySize=auto;html=1;exitX=1;exitY=0.5;exitDx=0;exitDy=0;entryX=0;entryY=0.5;entryDx=0;entryDy=0;startSize=6;endSize=3;fontSize=12;" parent="47ZeHTRJLF232hGQy9BY-1" source="47ZeHTRJLF232hGQy9BY-3" target="47ZeHTRJLF232hGQy9BY-5" edge="1">
                    <mxGeometry relative="1" as="geometry"/>
                </mxCell>
                <mxCell id="47ZeHTRJLF232hGQy9BY-3" value="Babel" style="rounded=0;whiteSpace=wrap;html=1;fontSize=21;fillColor=#f5f5f5;strokeColor=#666666;fontStyle=1;fontColor=#333333;" parent="47ZeHTRJLF232hGQy9BY-1" vertex="1">
                    <mxGeometry x="630" y="400" width="120" height="60" as="geometry"/>
                </mxCell>
                <mxCell id="47ZeHTRJLF232hGQy9BY-4" style="edgeStyle=orthogonalEdgeStyle;rounded=0;orthogonalLoop=1;jettySize=auto;html=1;exitX=1;exitY=0.5;exitDx=0;exitDy=0;entryX=0;entryY=0.5;entryDx=0;entryDy=0;startSize=6;endSize=3;fontSize=12;" parent="47ZeHTRJLF232hGQy9BY-1" source="47ZeHTRJLF232hGQy9BY-5" target="47ZeHTRJLF232hGQy9BY-10" edge="1">
                    <mxGeometry relative="1" as="geometry"/>
                </mxCell>
                <mxCell id="47ZeHTRJLF232hGQy9BY-5" value="Webpack" style="rounded=0;whiteSpace=wrap;html=1;fontSize=21;fillColor=#f5f5f5;strokeColor=#666666;fontStyle=1;fontColor=#333333;" parent="47ZeHTRJLF232hGQy9BY-1" vertex="1">
                    <mxGeometry x="760" y="400" width="120" height="60" as="geometry"/>
                </mxCell>
                <mxCell id="47ZeHTRJLF232hGQy9BY-6" value="Transpiling" style="rounded=0;whiteSpace=wrap;html=1;fontSize=12;fillColor=#f5f5f5;strokeColor=#666666;fontColor=#333333;" parent="47ZeHTRJLF232hGQy9BY-1" vertex="1">
                    <mxGeometry x="630" y="380" width="120" height="20" as="geometry"/>
                </mxCell>
                <mxCell id="47ZeHTRJLF232hGQy9BY-7" value="Bundling" style="rounded=0;whiteSpace=wrap;html=1;fontSize=12;fillColor=#f5f5f5;strokeColor=#666666;fontColor=#333333;" parent="47ZeHTRJLF232hGQy9BY-1" vertex="1">
                    <mxGeometry x="760" y="380" width="120" height="20" as="geometry"/>
                </mxCell>
                <mxCell id="47ZeHTRJLF232hGQy9BY-8" style="edgeStyle=orthogonalEdgeStyle;rounded=0;orthogonalLoop=1;jettySize=auto;html=1;exitX=1;exitY=0.5;exitDx=0;exitDy=0;startSize=6;endSize=3;fontSize=12;" parent="47ZeHTRJLF232hGQy9BY-1" source="47ZeHTRJLF232hGQy9BY-9" target="47ZeHTRJLF232hGQy9BY-3" edge="1">
                    <mxGeometry relative="1" as="geometry"/>
                </mxCell>
                <mxCell id="47ZeHTRJLF232hGQy9BY-9" value="Raw User Code" style="rounded=0;whiteSpace=wrap;html=1;fontSize=12;" parent="47ZeHTRJLF232hGQy9BY-1" vertex="1">
                    <mxGeometry x="550" y="400" width="50" height="60" as="geometry"/>
                </mxCell>
                <mxCell id="47ZeHTRJLF232hGQy9BY-10" value="Code Ready to Execute" style="rounded=0;whiteSpace=wrap;html=1;fontSize=12;" parent="47ZeHTRJLF232hGQy9BY-1" vertex="1">
                    <mxGeometry x="910" y="400" width="50" height="60" as="geometry"/>
                </mxCell>
                <mxCell id="47ZeHTRJLF232hGQy9BY-13" value="ESBuild" style="rounded=0;whiteSpace=wrap;html=1;fontSize=21;fillColor=#dae8fc;strokeColor=#6c8ebf;fontStyle=1" parent="47ZeHTRJLF232hGQy9BY-1" vertex="1">
                    <mxGeometry x="695" y="490" width="120" height="60" as="geometry"/>
                </mxCell>
                <mxCell id="47ZeHTRJLF232hGQy9BY-14" value="" style="shape=curlyBracket;whiteSpace=wrap;html=1;rounded=1;fontSize=12;rotation=-90;" parent="47ZeHTRJLF232hGQy9BY-1" vertex="1">
                    <mxGeometry x="745" y="355" width="20" height="250" as="geometry"/>
                </mxCell>
                <mxCell id="47ZeHTRJLF232hGQy9BY-15" value="&lt;i&gt;ESBuild can transpile + bundle our code - all in the browser!&lt;/i&gt;" style="text;html=1;strokeColor=none;fillColor=none;align=center;verticalAlign=middle;whiteSpace=wrap;rounded=0;fontSize=12;" parent="47ZeHTRJLF232hGQy9BY-1" vertex="1">
                    <mxGeometry x="668.75" y="560" width="172.5" height="20" as="geometry"/>
                </mxCell>
            </root>
        </mxGraphModel>
    </diagram>
    <diagram id="Rj8b3eNKIilFYkUn85Lf" name="13 - mock">
        <mxGraphModel dx="715" dy="441" grid="1" gridSize="10" guides="1" tooltips="1" connect="1" arrows="1" fold="1" page="1" pageScale="1" pageWidth="1920" pageHeight="1200" math="0" shadow="0">
            <root>
                <mxCell id="IZajX-Yr2ZSFgbDCOe0d-0"/>
                <mxCell id="IZajX-Yr2ZSFgbDCOe0d-1" parent="IZajX-Yr2ZSFgbDCOe0d-0"/>
                <mxCell id="IZajX-Yr2ZSFgbDCOe0d-2" value="" style="strokeWidth=1;shadow=0;dashed=0;align=center;html=1;shape=mxgraph.mockup.containers.browserWindow;rSize=0;strokeColor=#666666;strokeColor2=#008cff;strokeColor3=#c4c4c4;mainText=,;recursiveResize=0;fontSize=12;" vertex="1" parent="IZajX-Yr2ZSFgbDCOe0d-1">
                    <mxGeometry x="570" y="200" width="570" height="380" as="geometry"/>
                </mxCell>
                <mxCell id="IZajX-Yr2ZSFgbDCOe0d-3" value="Page 1" style="strokeWidth=1;shadow=0;dashed=0;align=center;html=1;shape=mxgraph.mockup.containers.anchor;fontSize=17;fontColor=#666666;align=left;" vertex="1" parent="IZajX-Yr2ZSFgbDCOe0d-2">
                    <mxGeometry x="60" y="12" width="110" height="26" as="geometry"/>
                </mxCell>
                <mxCell id="IZajX-Yr2ZSFgbDCOe0d-4" value="https://www.draw.io" style="strokeWidth=1;shadow=0;dashed=0;align=center;html=1;shape=mxgraph.mockup.containers.anchor;rSize=0;fontSize=17;fontColor=#666666;align=left;" vertex="1" parent="IZajX-Yr2ZSFgbDCOe0d-2">
                    <mxGeometry x="130" y="60" width="250" height="26" as="geometry"/>
                </mxCell>
                <mxCell id="IZajX-Yr2ZSFgbDCOe0d-5" value="const App = () =&amp;gt; &amp;lt;div&amp;gt;Hi!&amp;lt;/div&amp;gt;&lt;br&gt;&lt;br&gt;&lt;br&gt;&lt;br&gt;" style="rounded=0;whiteSpace=wrap;html=1;fontSize=12;align=left;spacingLeft=5;" vertex="1" parent="IZajX-Yr2ZSFgbDCOe0d-2">
                    <mxGeometry x="20" y="120" width="270" height="80" as="geometry"/>
                </mxCell>
                <mxCell id="IZajX-Yr2ZSFgbDCOe0d-7" value="Submit" style="rounded=1;whiteSpace=wrap;html=1;fontSize=12;align=center;fontStyle=1" vertex="1" parent="IZajX-Yr2ZSFgbDCOe0d-2">
                    <mxGeometry x="20" y="210" width="90" height="30" as="geometry"/>
                </mxCell>
                <mxCell id="IZajX-Yr2ZSFgbDCOe0d-8" value="&lt;pre&gt;const App = () =&amp;gt; /* @__PURE__ */ React.createElement(&quot;div&quot;, null, &quot;Hi!&quot;);&lt;/pre&gt;" style="text;html=1;strokeColor=none;fillColor=none;align=left;verticalAlign=middle;whiteSpace=wrap;rounded=0;fontSize=12;" vertex="1" parent="IZajX-Yr2ZSFgbDCOe0d-2">
                    <mxGeometry x="20" y="260" width="40" height="20" as="geometry"/>
                </mxCell>
            </root>
        </mxGraphModel>
    </diagram>
    <diagram id="zyHkDRhuyRokcPmoBilV" name="15 - wasm">
        <mxGraphModel dx="865" dy="680" grid="1" gridSize="10" guides="1" tooltips="1" connect="1" arrows="1" fold="1" page="1" pageScale="1" pageWidth="1920" pageHeight="1200" math="0" shadow="0">
            <root>
                <mxCell id="6shNbcn06JWfgAI_KIMp-0"/>
                <mxCell id="6shNbcn06JWfgAI_KIMp-1" parent="6shNbcn06JWfgAI_KIMp-0"/>
                <mxCell id="6shNbcn06JWfgAI_KIMp-2" value="esbuild NPM module" style="rounded=0;whiteSpace=wrap;html=1;fontSize=20;align=center;fillColor=#dae8fc;strokeColor=#6c8ebf;" parent="6shNbcn06JWfgAI_KIMp-1" vertex="1">
                    <mxGeometry x="620" y="350" width="210" height="40" as="geometry"/>
                </mxCell>
                <mxCell id="6shNbcn06JWfgAI_KIMp-3" value="" style="rounded=0;whiteSpace=wrap;html=1;fontSize=20;align=center;fillColor=#dae8fc;strokeColor=#6c8ebf;" parent="6shNbcn06JWfgAI_KIMp-1" vertex="1">
                    <mxGeometry x="620" y="390" width="210" height="110" as="geometry"/>
                </mxCell>
                <mxCell id="6shNbcn06JWfgAI_KIMp-4" value="JS Wrapper" style="rounded=0;whiteSpace=wrap;html=1;fontSize=16;align=center;fontStyle=2" parent="6shNbcn06JWfgAI_KIMp-1" vertex="1">
                    <mxGeometry x="630" y="400" width="190" height="30" as="geometry"/>
                </mxCell>
                <mxCell id="6shNbcn06JWfgAI_KIMp-5" value="" style="rounded=0;whiteSpace=wrap;html=1;fontSize=16;align=center;" parent="6shNbcn06JWfgAI_KIMp-1" vertex="1">
                    <mxGeometry x="630" y="430" width="190" height="60" as="geometry"/>
                </mxCell>
                <mxCell id="6shNbcn06JWfgAI_KIMp-6" value="Go Code" style="rounded=0;whiteSpace=wrap;html=1;fontSize=16;align=center;fillColor=#f8cecc;strokeColor=#b85450;" parent="6shNbcn06JWfgAI_KIMp-1" vertex="1">
                    <mxGeometry x="675" y="445" width="100" height="30" as="geometry"/>
                </mxCell>
                <mxCell id="6shNbcn06JWfgAI_KIMp-8" style="edgeStyle=orthogonalEdgeStyle;rounded=0;orthogonalLoop=1;jettySize=auto;html=1;exitX=0.5;exitY=0;exitDx=0;exitDy=0;entryX=0.499;entryY=0.933;entryDx=0;entryDy=0;entryPerimeter=0;startSize=6;endSize=6;fontSize=16;" parent="6shNbcn06JWfgAI_KIMp-1" source="6shNbcn06JWfgAI_KIMp-7" target="6shNbcn06JWfgAI_KIMp-6" edge="1">
                    <mxGeometry relative="1" as="geometry"/>
                </mxCell>
                <mxCell id="6shNbcn06JWfgAI_KIMp-7" value="Thing that does the actual transpile + bundling" style="text;html=1;strokeColor=none;fillColor=none;align=center;verticalAlign=middle;whiteSpace=wrap;rounded=0;fontSize=16;fontStyle=2" parent="6shNbcn06JWfgAI_KIMp-1" vertex="1">
                    <mxGeometry x="635" y="520" width="180" height="60" as="geometry"/>
                </mxCell>
            </root>
        </mxGraphModel>
    </diagram>
    <diagram id="4broHlDA5ZQbsTBOEd7-" name="16 - wasm">
        <mxGraphModel dx="865" dy="680" grid="1" gridSize="10" guides="1" tooltips="1" connect="1" arrows="1" fold="1" page="1" pageScale="1" pageWidth="1920" pageHeight="1200" math="0" shadow="0">
            <root>
                <mxCell id="8BXPXiuyvIakdoEvyS-b-0"/>
                <mxCell id="8BXPXiuyvIakdoEvyS-b-1" parent="8BXPXiuyvIakdoEvyS-b-0"/>
                <mxCell id="n8FovLy7NERvlyXULxQw-0" value="esbuild-wasm NPM module" style="rounded=0;whiteSpace=wrap;html=1;fontSize=20;align=center;fillColor=#dae8fc;strokeColor=#6c8ebf;" parent="8BXPXiuyvIakdoEvyS-b-1" vertex="1">
                    <mxGeometry x="620" y="350" width="260" height="40" as="geometry"/>
                </mxCell>
                <mxCell id="n8FovLy7NERvlyXULxQw-1" value="" style="rounded=0;whiteSpace=wrap;html=1;fontSize=20;align=center;fillColor=#dae8fc;strokeColor=#6c8ebf;" parent="8BXPXiuyvIakdoEvyS-b-1" vertex="1">
                    <mxGeometry x="620" y="390" width="260" height="90" as="geometry"/>
                </mxCell>
                <mxCell id="FsgDYu5eAlGkmAJJcN07-0" style="edgeStyle=orthogonalEdgeStyle;rounded=0;orthogonalLoop=1;jettySize=auto;html=1;exitX=1;exitY=0.5;exitDx=0;exitDy=0;entryX=0;entryY=0.5;entryDx=0;entryDy=0;startSize=6;endSize=6;fontSize=16;" parent="8BXPXiuyvIakdoEvyS-b-1" source="n8FovLy7NERvlyXULxQw-2" target="n8FovLy7NERvlyXULxQw-7" edge="1">
                    <mxGeometry relative="1" as="geometry"/>
                </mxCell>
                <mxCell id="n8FovLy7NERvlyXULxQw-2" value="Small amount of JS" style="rounded=0;whiteSpace=wrap;html=1;fontSize=16;align=center;fontStyle=2" parent="8BXPXiuyvIakdoEvyS-b-1" vertex="1">
                    <mxGeometry x="630" y="405" width="110" height="60" as="geometry"/>
                </mxCell>
                <mxCell id="n8FovLy7NERvlyXULxQw-7" value="WASM" style="rounded=0;whiteSpace=wrap;html=1;fontSize=16;align=center;fontStyle=2" parent="8BXPXiuyvIakdoEvyS-b-1" vertex="1">
                    <mxGeometry x="760" y="405" width="110" height="60" as="geometry"/>
                </mxCell>
                <mxCell id="n8FovLy7NERvlyXULxQw-9" style="edgeStyle=orthogonalEdgeStyle;rounded=0;orthogonalLoop=1;jettySize=auto;html=1;exitX=0.5;exitY=0;exitDx=0;exitDy=0;entryX=0.5;entryY=1;entryDx=0;entryDy=0;startSize=6;endSize=6;fontSize=16;" parent="8BXPXiuyvIakdoEvyS-b-1" source="n8FovLy7NERvlyXULxQw-8" target="n8FovLy7NERvlyXULxQw-2" edge="1">
                    <mxGeometry relative="1" as="geometry"/>
                </mxCell>
                <mxCell id="n8FovLy7NERvlyXULxQw-8" value="Code we're going to interact with in our React App" style="text;html=1;strokeColor=none;fillColor=none;align=center;verticalAlign=middle;whiteSpace=wrap;rounded=0;fontSize=16;" parent="8BXPXiuyvIakdoEvyS-b-1" vertex="1">
                    <mxGeometry x="570" y="510" width="160" height="60" as="geometry"/>
                </mxCell>
                <mxCell id="n8FovLy7NERvlyXULxQw-11" style="edgeStyle=orthogonalEdgeStyle;rounded=0;orthogonalLoop=1;jettySize=auto;html=1;exitX=0.5;exitY=0;exitDx=0;exitDy=0;entryX=0.5;entryY=1;entryDx=0;entryDy=0;startSize=6;endSize=6;fontSize=16;" parent="8BXPXiuyvIakdoEvyS-b-1" source="n8FovLy7NERvlyXULxQw-10" target="n8FovLy7NERvlyXULxQw-7" edge="1">
                    <mxGeometry relative="1" as="geometry"/>
                </mxCell>
                <mxCell id="n8FovLy7NERvlyXULxQw-10" value="Go Lang bundler compiled to work in the browser" style="text;html=1;strokeColor=none;fillColor=none;align=center;verticalAlign=middle;whiteSpace=wrap;rounded=0;fontSize=16;" parent="8BXPXiuyvIakdoEvyS-b-1" vertex="1">
                    <mxGeometry x="780" y="510" width="160" height="60" as="geometry"/>
                </mxCell>
            </root>
        </mxGraphModel>
    </diagram>
</mxfile>